<svg width="480" height="410" viewBox="0 0 480 410" xmlns="http://www.w3.org/2000/svg" xmlns:xlink="http://www.w3.org/1999/xlink"><title>chart</title><defs><path id="a" d="M0 61V0h21v61z"/><path id="c" d="M46.76 70H.4V.527h46.36V70z"/><path id="e" d="M65 65V0H0v65z"/></defs><g fill="none" fill-rule="evenodd"><path fill="#E5E5E2" d="M375 386h105v20H375z"/><path d="M417.186 397.138c-.72-.852-1.758-1.278-3.114-1.278-1.356 0-2.454.384-3.294 1.152-.84.768-1.26 1.848-1.26 3.24 0 1.392.42 2.508 1.26 3.348.84.84 1.926 1.26 3.258 1.26s2.37-.408 3.114-1.224c.744-.816 1.116-1.89 1.116-3.222s-.36-2.424-1.08-3.276zm-3.204-10.854c-1.632 0-2.856.648-3.672 1.944-.816 1.296-1.236 3.372-1.26 6.228.624-.912 1.488-1.608 2.592-2.088s2.256-.72 3.456-.72c2.4 0 4.344.756 5.832 2.268 1.488 1.512 2.232 3.6 2.232 6.264s-.768 4.8-2.304 6.408c-1.536 1.608-3.672 2.412-6.408 2.412-3.552 0-6.078-1.116-7.578-3.348-1.5-2.232-2.25-5.628-2.25-10.188 0-8.904 3.144-13.356 9.432-13.356 2.52 0 4.476.678 5.868 2.034 1.392 1.356 2.22 3.042 2.484 5.058h-4.68c-.456-1.944-1.704-2.916-3.744-2.916zm31.788 14.544c-1.344 0-2.016.918-2.016 2.754 0 1.836.672 2.754 2.016 2.754 1.344 0 2.016-.918 2.016-2.754 0-1.836-.672-2.754-2.016-2.754zm-4.086 7.002c-1.068-1.02-1.602-2.436-1.602-4.248 0-1.812.534-3.228 1.602-4.248s2.436-1.53 4.104-1.53c1.668 0 3.036.51 4.104 1.53s1.602 2.436 1.602 4.248c0 1.812-.528 3.228-1.584 4.248s-2.424 1.53-4.104 1.53c-1.68 0-3.054-.51-4.122-1.53zM429.498 409l14.112-25.2h4.932L434.394 409h-4.896zm2.754-22.536c-1.356 0-2.034.918-2.034 2.754 0 1.836.678 2.754 2.034 2.754 1.356 0 2.034-.918 2.034-2.754 0-1.836-.678-2.754-2.034-2.754zm-5.706 2.736c0-1.8.534-3.21 1.602-4.23 1.068-1.02 2.436-1.53 4.104-1.53 1.668 0 3.036.51 4.104 1.53s1.602 2.43 1.602 4.23c0 1.8-.528 3.216-1.584 4.248s-2.424 1.548-4.104 1.548c-1.68 0-3.054-.516-4.122-1.548s-1.602-2.448-1.602-4.248z" fill="#FFF"/><path fill="#E5E5E2" d="M250 321h105v85H250z"/><path d="M268.462 360.64v-3.708c.624-.552 1.584-1.386 2.88-2.502 1.296-1.116 2.268-1.962 2.916-2.538.648-.576 1.446-1.338 2.394-2.286.948-.948 1.65-1.746 2.106-2.394 1.176-1.68 1.764-3.168 1.764-4.464 0-2.544-1.176-3.816-3.528-3.816-1.152 0-2.052.384-2.7 1.152-.648.768-.984 1.824-1.008 3.168h-4.896c.024-2.808.846-4.944 2.466-6.408 1.62-1.464 3.738-2.196 6.354-2.196s4.668.744 6.156 2.232c1.488 1.488 2.232 3.36 2.232 5.616 0 1.68-.432 3.24-1.296 4.68-.432.768-.852 1.446-1.26 2.034-.408.588-.99 1.266-1.746 2.034-.756.768-1.35 1.368-1.782 1.8-.432.432-1.086 1.038-1.962 1.818-.876.78-1.482 1.326-1.818 1.638h10.476v4.14h-17.748zm22.284-25.956h16.092v4.428h-11.484v5.976c.504-.552 1.2-1.014 2.088-1.386.888-.372 1.968-.558 3.24-.558 1.272 0 2.478.264 3.618.792 1.14.528 2.01 1.236 2.61 2.124 1.2 1.728 1.8 3.648 1.8 5.76 0 2.784-.798 5.01-2.394 6.678-1.596 1.668-3.81 2.502-6.642 2.502-2.832 0-5.058-.666-6.678-1.998-1.62-1.332-2.574-3.078-2.862-5.238h4.968c.216.936.714 1.68 1.494 2.232.78.552 1.824.828 3.132.828s2.322-.444 3.042-1.332c.72-.888 1.08-2.064 1.08-3.528s-.366-2.592-1.098-3.384c-.732-.792-1.71-1.188-2.934-1.188-2.304 0-3.72.924-4.248 2.772h-4.824v-15.48zm40.428 18.144c-1.344 0-2.016.918-2.016 2.754 0 1.836.672 2.754 2.016 2.754 1.344 0 2.016-.918 2.016-2.754 0-1.836-.672-2.754-2.016-2.754zm-4.086 7.002c-1.068-1.02-1.602-2.436-1.602-4.248 0-1.812.534-3.228 1.602-4.248s2.436-1.53 4.104-1.53c1.668 0 3.036.51 4.104 1.53s1.602 2.436 1.602 4.248c0 1.812-.528 3.228-1.584 4.248s-2.424 1.53-4.104 1.53c-1.68 0-3.054-.51-4.122-1.53zM314.902 361l14.112-25.2h4.932L319.798 361h-4.896zm2.754-22.536c-1.356 0-2.034.918-2.034 2.754 0 1.836.678 2.754 2.034 2.754 1.356 0 2.034-.918 2.034-2.754 0-1.836-.678-2.754-2.034-2.754zm-5.706 2.736c0-1.8.534-3.21 1.602-4.23 1.068-1.02 2.436-1.53 4.104-1.53 1.668 0 3.036.51 4.104 1.53s1.602 2.43 1.602 4.23c0 1.8-.528 3.216-1.584 4.248s-2.424 1.548-4.104 1.548c-1.68 0-3.054-.516-4.122-1.548S311.95 343 311.95 341.2z" fill="#FFF"/><path fill="#E5E5E2" d="M125 134h105v272H125z"/><path d="M156.818 162.012c-1.392 0-2.508.36-3.348 1.08-.84.72-1.26 1.728-1.26 3.024s.408 2.334 1.224 3.114c.816.78 1.938 1.17 3.366 1.17 1.428 0 2.532-.396 3.312-1.188.78-.792 1.17-1.818 1.17-3.078 0-1.26-.396-2.262-1.188-3.006-.792-.744-1.884-1.116-3.276-1.116zm2.898-9.972c-.708-.648-1.662-.972-2.862-.972-1.2 0-2.16.324-2.88.972-.72.648-1.08 1.53-1.08 2.646 0 1.116.372 2.01 1.116 2.682.744.672 1.686 1.008 2.826 1.008 1.14 0 2.082-.336 2.826-1.008.744-.672 1.116-1.566 1.116-2.682 0-1.116-.354-1.998-1.062-2.646zm-11.754 1.98c0-1.992.768-3.678 2.304-5.058 1.536-1.38 3.726-2.07 6.57-2.07 2.844 0 5.028.696 6.552 2.088 1.524 1.392 2.286 3.084 2.286 5.076 0 2.592-1.188 4.512-3.564 5.76 2.808 1.2 4.212 3.396 4.212 6.588 0 2.496-.888 4.482-2.664 5.958-1.776 1.476-4.044 2.214-6.804 2.214-2.76 0-5.034-.738-6.822-2.214-1.788-1.476-2.682-3.462-2.682-5.958 0-1.56.372-2.904 1.116-4.032.744-1.128 1.776-1.98 3.096-2.556-2.4-1.272-3.6-3.204-3.6-5.796zM173.558 174v-20.916h-3.816v-4.644h9V174h-5.184zm29.16-8.172c-1.344 0-2.016.918-2.016 2.754 0 1.836.672 2.754 2.016 2.754 1.344 0 2.016-.918 2.016-2.754 0-1.836-.672-2.754-2.016-2.754zm-4.086 7.002c-1.068-1.02-1.602-2.436-1.602-4.248 0-1.812.534-3.228 1.602-4.248s2.436-1.53 4.104-1.53c1.668 0 3.036.51 4.104 1.53s1.602 2.436 1.602 4.248c0 1.812-.528 3.228-1.584 4.248s-2.424 1.53-4.104 1.53c-1.68 0-3.054-.51-4.122-1.53zM186.446 174l14.112-25.2h4.932L191.342 174h-4.896zm2.754-22.536c-1.356 0-2.034.918-2.034 2.754 0 1.836.678 2.754 2.034 2.754 1.356 0 2.034-.918 2.034-2.754 0-1.836-.678-2.754-2.034-2.754zm-5.706 2.736c0-1.8.534-3.21 1.602-4.23 1.068-1.02 2.436-1.53 4.104-1.53 1.668 0 3.036.51 4.104 1.53s1.602 2.43 1.602 4.23c0 1.8-.528 3.216-1.584 4.248s-2.424 1.548-4.104 1.548c-1.68 0-3.054-.516-4.122-1.548s-1.602-2.448-1.602-4.248z" fill="#FFF"/><path fill="#E5E5E2" d="M0 69h105v337H0z"/><path d="M13.728 109V88.084H9.912V83.44h9V109h-5.184zm20.25-26.172c6.468 0 9.702 4.35 9.702 13.05 0 8.7-3.234 13.05-9.702 13.05s-9.702-4.35-9.702-13.05c0-8.7 3.234-13.05 9.702-13.05zm.018 4.68c-.816 0-1.524.156-2.124.468-.6.312-1.062.708-1.386 1.188-.324.48-.582 1.11-.774 1.89-.192.78-.318 1.53-.378 2.25s-.09 1.572-.09 2.556.03 1.836.09 2.556.186 1.47.378 2.25.45 1.416.774 1.908.786.894 1.386 1.206c.6.312 1.308.468 2.124.468.816 0 1.524-.156 2.124-.468.6-.312 1.062-.714 1.386-1.206.324-.492.582-1.128.774-1.908.192-.78.318-1.53.378-2.25s.09-1.572.09-2.556-.03-1.836-.09-2.556-.186-1.47-.378-2.25-.45-1.41-.774-1.89-.786-.876-1.386-1.188c-.6-.312-1.308-.468-2.124-.468zm23.238-4.68c6.468 0 9.702 4.35 9.702 13.05 0 8.7-3.234 13.05-9.702 13.05s-9.702-4.35-9.702-13.05c0-8.7 3.234-13.05 9.702-13.05zm.018 4.68c-.816 0-1.524.156-2.124.468-.6.312-1.062.708-1.386 1.188-.324.48-.582 1.11-.774 1.89-.192.78-.318 1.53-.378 2.25s-.09 1.572-.09 2.556.03 1.836.09 2.556.186 1.47.378 2.25.45 1.416.774 1.908.786.894 1.386 1.206c.6.312 1.308.468 2.124.468.816 0 1.524-.156 2.124-.468.6-.312 1.062-.714 1.386-1.206.324-.492.582-1.128.774-1.908.192-.78.318-1.53.378-2.25s.09-1.572.09-2.556-.03-1.836-.09-2.556-.186-1.47-.378-2.25-.45-1.41-.774-1.89-.786-.876-1.386-1.188c-.6-.312-1.308-.468-2.124-.468zm32.148 13.32c-1.344 0-2.016.918-2.016 2.754 0 1.836.672 2.754 2.016 2.754 1.344 0 2.016-.918 2.016-2.754 0-1.836-.672-2.754-2.016-2.754zm-4.086 7.002c-1.068-1.02-1.602-2.436-1.602-4.248 0-1.812.534-3.228 1.602-4.248s2.436-1.53 4.104-1.53c1.668 0 3.036.51 4.104 1.53s1.602 2.436 1.602 4.248c0 1.812-.528 3.228-1.584 4.248s-2.424 1.53-4.104 1.53c-1.68 0-3.054-.51-4.122-1.53zM73.128 109L87.24 83.8h4.932L78.024 109h-4.896zm2.754-22.536c-1.356 0-2.034.918-2.034 2.754 0 1.836.678 2.754 2.034 2.754 1.356 0 2.034-.918 2.034-2.754 0-1.836-.678-2.754-2.034-2.754zM70.176 89.2c0-1.8.534-3.21 1.602-4.23 1.068-1.02 2.436-1.53 4.104-1.53 1.668 0 3.036.51 4.104 1.53s1.602 2.43 1.602 4.23c0 1.8-.528 3.216-1.584 4.248s-2.424 1.548-4.104 1.548c-1.68 0-3.054-.516-4.122-1.548S70.176 91 70.176 89.2z" fill="#FFF"/><path d="M74.746 21.65c-6.81 9.013-12.814 9.324-22.05 9.79h-.315c-11.237-.007-19.207-4.15-19.207-5.69-.006-1.463 7.19-5.27 17.54-5.65l1.846-4.575c-.06 0-.117-.006-.18-.006-15.358 0-24.38 4.85-24.38 9.475v6.21C28 34.06 29.82 59 51.727 59c21.905 0 25.035-24.942 25.035-27.794v-6.21c0-1.215-.63-2.445-1.828-3.598l-.188.252zM76.75 6.835c-1.38-1.024-3.346-.75-4.38.625L61.08 22.395l7.31-18.13c.645-1.59-.137-3.4-1.742-4.042-1.59-.636-3.43.134-4.07 1.736L52.382 27.246c9.02-.457 13.385-.705 18.987-8.11l6.005-7.953c1.04-1.37.76-3.317-.623-4.35z" fill-rule="nonzero" fill="#D4503E"/><g transform="translate(169 63)"><mask id="b" fill="#fff"><use xlink:href="#a"/></mask><path d="M21 17.973c0 3.29-.62 6.055-1.87 8.288-1.246 2.238-2.91 3.774-4.987 4.614l1.475 27.948c.044.59-.128 1.1-.524 1.533-.395.43-.872.645-1.443.645h-6.3c-.57 0-1.052-.215-1.444-.645-.396-.433-.568-.944-.524-1.533L6.86 30.874c-2.08-.84-3.744-2.376-4.99-4.613C.624 24.03 0 21.265 0 17.974c0-2.907.464-5.736 1.393-8.493.93-2.758 2.216-5.027 3.857-6.81C6.89.89 8.642 0 10.5 0c1.86 0 3.61.89 5.25 2.67 1.64 1.783 2.928 4.052 3.857 6.81C20.54 12.237 21 15.066 21 17.973" fill="#D4503E" mask="url(#b)"/></g><path d="M320 233.998c0 3.867-3.135 7.002-6.998 7.002-3.872 0-7.002-3.135-7.002-7.002 0-3.868 3.13-6.998 7.002-6.998 3.863 0 6.998 3.13 6.998 6.998" fill="#D4503E"/><g transform="translate(276 241)"><mask id="d" fill="#fff"><use xlink:href="#c"/></mask><path d="M26.49.527L8.283 9.097.4 29.582s1.88 2.047 6.194-1.677l6.85-14.528 8.352-1.488-5.252 13.035s-3.194 5.963-.19 9.686l21.208 15.276L39.63 62.18s1.5 7.634 7.13 7.82V45.6L31.745 29.953l5.442-11.734s2.252-2.794 1.03-8.324C36.887 3.83 26.49.526 26.49.526" fill="#D4503E" mask="url(#d)"/></g><path d="M331.996 268H314l2.7-6 9.716.936s5.76.563 5.58 5.064M297 283.333s-5.37-2.665-7.592-7.333l-5.93 10-12.96 4s-5.188 1.714-4.445 8l21.85-5.33 9.077-9.337z" fill="#D4503E"/><g transform="translate(392 311)"><mask id="f" fill="#fff"><use xlink:href="#e"/></mask><path d="M56.06 26.26l-.942-.944L38.74 8.938l1.007-1.506 1.703-2.55.67 2.615c.13.505.524.9 1.03 1.028l4.893 1.256 1.255 4.894c.13.505.524.9 1.03 1.03l4.892 1.254 1.255 4.893c.13.506.524.9 1.03 1.03l2.612.67-4.056 2.71zm-8.558 5.84l5.222-5.138 1.136 1.136-5.18 5.18-1.178-1.178zM35.3 46.66l-1.18-1.18L18.34 29.7l10.183-10.18 1.178-1.18 15.97 15.97.99.99L35.3 46.66zm-7.202 7.2l-1.178-1.178 5.165-5.196 1.193 1.194-5.18 5.18zm-4.548 6.257l-.653-2.55-.017-.063c-.13-.505-.524-.9-1.03-1.03l-4.892-1.253-1.255-4.893c-.13-.505-.524-.9-1.03-1.03l-4.892-1.254-1.255-4.894c-.13-.506-.523-.9-1.028-1.03l-2.615-.67 2.644-1.766 1.412-.943 16.03 16.03 1.29 1.292-2.708 4.055zM64.98 22.72c-.095-.555-.508-1.003-1.054-1.143l-4.893-1.254-1.255-4.894c-.13-.506-.524-.9-1.03-1.03l-4.892-1.255L50.6 8.252c-.128-.505-.523-.9-1.028-1.03L44.678 5.97l-1.255-4.894c-.14-.546-.588-.96-1.144-1.054-.556-.095-1.116.146-1.43.615L35.793 8.21 8.21 35.79l-7.575 5.06c-.47.312-.71.872-.615 1.427.095.555.508 1.003 1.054 1.143l4.894 1.255 1.255 4.894c.13.505.524.9 1.03 1.03l4.893 1.254L14.4 56.75c.13.504.524.9 1.03 1.028l4.893 1.255 1.254 4.893c.14.546.588.96 1.144 1.054.08.013.16.02.24.02.473 0 .92-.234 1.19-.635l5.058-7.574L56.79 29.21l7.575-5.06c.468-.312.71-.872.615-1.427z" fill="#D4503E" mask="url(#f)"/></g></g></svg>