<svg xmlns="http://www.w3.org/2000/svg" viewBox="0 0 1440 600"><defs><style>.cls-1{fill:#f6f6f6;}.cls-11,.cls-2{fill:#acb5bd;}.cls-10,.cls-12,.cls-13,.cls-16,.cls-2,.cls-21,.cls-22,.cls-24,.cls-27,.cls-6,.cls-7,.cls-8{stroke:#1a2674;}.cls-2,.cls-21,.cls-27,.cls-6,.cls-8{stroke-linecap:round;stroke-linejoin:round;}.cls-14,.cls-15,.cls-2{stroke-width:5.94px;}.cls-27,.cls-3,.cls-6{fill:#e0e9ee;}.cls-4{fill:#1a2674;}.cls-22,.cls-5{fill:#cdd6dc;}.cls-6{stroke-width:5.82px;}.cls-7{fill:#f9e4a7;}.cls-10,.cls-12,.cls-13,.cls-14,.cls-15,.cls-16,.cls-22,.cls-23,.cls-24,.cls-25,.cls-26,.cls-7{stroke-miterlimit:10;}.cls-10,.cls-12,.cls-13,.cls-16,.cls-7,.cls-8{stroke-width:3.96px;}.cls-14,.cls-15,.cls-16,.cls-21,.cls-23,.cls-24,.cls-25,.cls-26,.cls-8{fill:none;}.cls-9{fill:#162044;}.cls-10,.cls-20{fill:#eecc6b;}.cls-12,.cls-18{fill:#2bc1d6;}.cls-13,.cls-19{fill:#6f72b5;}.cls-14,.cls-26{stroke:#f2761e;}.cls-15{stroke:#162044;}.cls-17{fill:#f2737a;}.cls-21{stroke-width:1.61px;}.cls-22{stroke-width:3.95px;}.cls-23{stroke:#6f72b5;stroke-width:0.25px;}.cls-24,.cls-25,.cls-26{stroke-width:1.27px;}.cls-25{stroke:#f2737a;}.cls-27{stroke-width:2px;}</style></defs><title>emailmktg</title><g id="background"><rect class="cls-1" width="1440" height="600"/></g><g id="laptop"><rect class="cls-2" x="518.64" y="143.08" width="478.04" height="309.85"/><path class="cls-3" d="M505.78,485.18h-.6l-49.46-11.67a3.14,3.14,0,0,1-2.38-3V451a3,3,0,0,1,3-3H1059a3,3,0,0,1,3,3v19.59a3.14,3.14,0,0,1-2.38,3l-49.46,11.67H505.78Z"/><path class="cls-4" d="M1059,451.15v19.59l-49.47,11.67H505.78l-49.47-11.67V451.15H1059m0-5.93H456.31a5.82,5.82,0,0,0-5.93,5.93v19.59a5.93,5.93,0,0,0,4.55,5.74l49.46,11.67a3.36,3.36,0,0,0,1.39.2h503.75a3.36,3.36,0,0,0,1.39-.2l49.47-11.67a5.73,5.73,0,0,0,4.55-5.74V451.15a6,6,0,0,0-5.94-5.93Z"/><polygon class="cls-5" points="1059 470.54 1009.53 482.22 505.78 482.22 456.31 470.54 1059 470.54"/><rect class="cls-6" x="540.21" y="164.25" width="434.7" height="267.31"/></g><g id="clock"><circle class="cls-7" cx="511.46" cy="378.1" r="60.39"/><circle class="cls-3" cx="511.46" cy="378.1" r="42.24" transform="translate(-105.76 224.51) rotate(-22.5)"/><path class="cls-4" d="M511.46,337.84A40.27,40.27,0,1,1,471.2,378.1a40.27,40.27,0,0,1,40.26-40.26m0-3.95a44.22,44.22,0,1,0,44.22,44.21,44.26,44.26,0,0,0-44.22-44.21Z"/><circle class="cls-8" cx="511.94" cy="377.32" r="6.15"/><line class="cls-8" x1="529.99" y1="360.63" x2="518.09" y2="372.58"/><line class="cls-8" x1="511.94" y1="383.48" x2="511.94" y2="409.49"/><path class="cls-4" d="M535.87,432.39s9.51,13.27,10.9,12.28,0-17.57,0-17.57Z"/><polygon class="cls-9" points="482.7 324.21 482.9 314.13 476.29 317.71 476.29 329.11 482.7 324.21"/><path class="cls-4" d="M488,432.39s-9.52,13.27-10.91,12.28,0-17.57,0-17.57Z"/><path class="cls-10" d="M454.77,331.61c-5.63-9.84-.07-23.6,12.42-30.75s27.18-5,32.81,4.86Z"/><polygon class="cls-9" points="540.37 324.21 540.17 314.13 546.78 317.71 546.78 329.11 540.37 324.21"/><path class="cls-10" d="M568.29,331.61c5.63-9.84.07-23.6-12.41-30.75s-27.18-5-32.81,4.86Z"/><path class="cls-11" d="M511.46,418.37a40.28,40.28,0,0,0,37.09-55.94s3,13.77-10.67,34.06C524.61,416.16,511.46,418.37,511.46,418.37Z"/></g><g id="phone"><rect class="cls-12" x="930.14" y="329.25" width="89.22" height="178.23" rx="1" ry="1"/><circle class="cls-13" cx="974.75" cy="488.6" r="7.86"/><rect class="cls-3" x="939.06" y="341.75" width="71.39" height="123.49"/><path class="cls-4" d="M1008.47,343.73V463.27H941V343.73h67.43m4-4H937.08V467.22h75.35V339.78Z"/><polygon class="cls-5" points="1008.47 343.73 941.04 463.27 1008.47 463.27 1008.47 343.73"/></g><g id="email_window" data-name="email window"><circle class="cls-14" cx="804.9" cy="270.31" r="2.67"/><rect class="cls-3" x="659.52" y="192.81" width="211.64" height="208" rx="3.97" ry="3.97"/><path class="cls-4" d="M867.19,195.78a1,1,0,0,1,1,1V396.84a1,1,0,0,1-1,1H663.49a1,1,0,0,1-1-1V196.78a1,1,0,0,1,1-1h203.7m0-5.94H663.49a6.94,6.94,0,0,0-6.94,6.94V396.84a6.94,6.94,0,0,0,6.94,6.93h203.7a6.94,6.94,0,0,0,6.94-6.93V196.78a6.94,6.94,0,0,0-6.94-6.94Z"/><line class="cls-15" x1="662.49" y1="224.35" x2="868.19" y2="224.35"/><path class="cls-11" d="M659.52,231.85V197.76a5,5,0,0,1,5-4.95H866.21a5,5,0,0,1,4.95,4.95v34.09Z"/><path class="cls-4" d="M866.21,195.78a2,2,0,0,1,2,2v31.13H662.49V197.76a2,2,0,0,1,2-2H866.21m0-5.94H664.47a7.93,7.93,0,0,0-7.92,7.92v37.06H874.13V197.76a7.93,7.93,0,0,0-7.92-7.92Z"/><line class="cls-8" x1="857.27" y1="204.78" x2="842.09" y2="204.78"/><line class="cls-8" x1="857.27" y1="211.67" x2="842.09" y2="211.67"/><line class="cls-8" x1="857.27" y1="218.56" x2="842.09" y2="218.56"/><rect class="cls-16" x="673.92" y="205.02" width="146.54" height="15.24" rx="0.92" ry="0.92"/></g><g id="box"><polyline class="cls-8" points="816.45 300.1 781.49 297.21 771.14 303.89"/><polyline class="cls-8" points="821.89 312.88 839.99 302.04 830.95 301.3"/><polyline class="cls-8" points="699.46 305.97 690.06 306.38 704.29 312.44"/><polyline class="cls-8" points="821.89 312.88 784.96 323.27 704.29 312.44"/><polygon class="cls-8" points="821.72 366.86 784.96 380.83 704.11 366.43 704.29 312.44 784.96 323.27 821.89 312.88 821.72 366.86"/><polygon class="cls-8" points="784.96 323.27 704.29 312.44 690.72 293.92 777.06 304.73 784.96 323.27"/><polygon class="cls-8" points="792.65 305.88 835.5 295.47 821.89 312.88 784.96 323.27 792.65 305.88"/><line class="cls-8" x1="784.96" y1="323.27" x2="784.96" y2="380.83"/><rect class="cls-17" x="771.1" y="252.23" width="4.3" height="7.53" transform="translate(-40.55 290.42) rotate(-20.74)"/><rect class="cls-18" x="785.59" y="243.01" width="4.3" height="7.53" transform="translate(90.83 -195.66) rotate(15.02)"/><rect class="cls-19" x="739.65" y="271.3" width="4.3" height="7.53" transform="translate(-42.17 168.69) rotate(-12.62)"/><rect class="cls-19" x="733.7" y="242.11" width="4.3" height="7.53" transform="translate(282.76 -383.92) rotate(35.79)"/><rect class="cls-17" x="743.09" y="256.67" width="4.3" height="7.53" transform="translate(86.8 -175.07) rotate(14.22)"/><rect class="cls-19" x="765.87" y="285.48" width="4.3" height="7.53" transform="translate(42.58 -94.5) rotate(7.24)"/><rect class="cls-17" x="767.3" y="270.05" width="4.3" height="7.53" transform="translate(239.99 -348.04) rotate(30)"/><rect class="cls-20" x="752.05" y="280.17" width="4.3" height="7.53" transform="translate(96.22 -181.36) rotate(14.64)"/><rect class="cls-19" x="780.63" y="267.6" width="4.3" height="7.53" transform="translate(176.98 -293.79) rotate(23.89)"/><rect class="cls-17" x="725.95" y="260.74" width="4.3" height="7.53" transform="translate(-30.21 106.19) rotate(-8.17)"/><rect class="cls-20" x="757.49" y="239.44" width="4.3" height="7.53" transform="translate(-30.55 134.6) rotate(-9.93)"/><rect class="cls-18" x="755.72" y="260.24" width="4.3" height="7.53" transform="matrix(0.98, -0.21, 0.21, 0.98, -38.15, 161.94)"/></g><g id="box_copy" data-name="box copy"><polyline class="cls-21" points="995.76 399.88 981.5 398.7 977.28 401.42"/><polyline class="cls-21" points="997.98 405.09 1005.37 400.67 1001.68 400.36"/><polyline class="cls-21" points="948.04 402.27 944.2 402.44 950.01 404.91"/><polyline class="cls-21" points="997.98 405.09 982.92 409.33 950.01 404.91"/><polygon class="cls-21" points="997.91 427.11 982.92 432.81 949.94 426.93 950.01 404.91 982.92 409.33 997.98 405.09 997.91 427.11"/><polygon class="cls-21" points="982.92 409.33 950.01 404.91 944.47 397.36 979.7 401.76 982.92 409.33"/><polygon class="cls-21" points="986.05 402.23 1003.53 397.99 997.98 405.09 982.92 409.33 986.05 402.23"/><line class="cls-21" x1="982.92" y1="409.33" x2="982.92" y2="432.81"/><rect class="cls-17" x="977.27" y="380.35" width="1.75" height="3.07" transform="translate(-71.85 371.14) rotate(-20.74)"/><rect class="cls-18" x="983.18" y="376.59" width="1.75" height="3.07" transform="translate(131.56 -242.03) rotate(15.02)"/><rect class="cls-19" x="964.43" y="388.13" width="1.75" height="3.07" transform="translate(-61.81 220.28) rotate(-12.62)"/><rect class="cls-19" x="962.01" y="376.22" width="1.75" height="3.07" transform="translate(402.77 -491.79) rotate(35.79)"/><rect class="cls-17" x="965.84" y="382.16" width="1.75" height="3.07" transform="translate(123.86 -225.69) rotate(14.22)"/><rect class="cls-19" x="975.13" y="393.91" width="1.75" height="3.07" transform="translate(57.63 -119.86) rotate(7.24)"/><rect class="cls-17" x="975.71" y="387.62" width="1.75" height="3.07" transform="translate(325.42 -436.16) rotate(30)"/><rect class="cls-20" x="969.49" y="391.75" width="1.75" height="3.07" transform="translate(130.87 -232.43) rotate(14.64)"/><rect class="cls-19" x="981.15" y="386.62" width="1.75" height="3.07" transform="translate(241.36 -364.48) rotate(23.89)"/><rect class="cls-17" x="958.85" y="383.82" width="1.75" height="3.07" transform="translate(-45.03 140.34) rotate(-8.17)"/><rect class="cls-20" x="971.71" y="375.13" width="1.75" height="3.07" transform="translate(-50.37 173.31) rotate(-9.93)"/><rect class="cls-18" x="970.99" y="383.62" width="1.75" height="3.07" transform="translate(-58.53 208.67) rotate(-11.9)"/></g><g id="metrics"><rect class="cls-22" x="432.7" y="118.31" width="168.06" height="113.67" rx="1" ry="1"/><line class="cls-23" x1="598.67" y1="221.5" x2="434.62" y2="221.5"/><line class="cls-23" x1="598.67" y1="210.19" x2="434.62" y2="210.19"/><line class="cls-23" x1="598.67" y1="198.87" x2="434.62" y2="198.87"/><line class="cls-23" x1="598.67" y1="187.56" x2="434.62" y2="187.56"/><line class="cls-23" x1="598.67" y1="176.25" x2="434.62" y2="176.25"/><line class="cls-23" x1="598.67" y1="164.93" x2="434.62" y2="164.93"/><line class="cls-23" x1="598.67" y1="153.62" x2="434.62" y2="153.62"/><line class="cls-23" x1="598.67" y1="142.31" x2="434.62" y2="142.31"/><line class="cls-23" x1="598.67" y1="130.99" x2="434.62" y2="130.99"/><line class="cls-23" x1="590.18" y1="120.24" x2="590.18" y2="229.99"/><line class="cls-23" x1="578.87" y1="120.24" x2="578.87" y2="229.99"/><line class="cls-23" x1="567.56" y1="120.24" x2="567.56" y2="229.99"/><line class="cls-23" x1="556.24" y1="120.24" x2="556.24" y2="229.99"/><line class="cls-23" x1="544.93" y1="120.24" x2="544.93" y2="229.99"/><line class="cls-23" x1="533.61" y1="120.24" x2="533.61" y2="229.99"/><line class="cls-23" x1="522.3" y1="120.24" x2="522.3" y2="229.99"/><line class="cls-23" x1="510.99" y1="120.24" x2="510.99" y2="229.99"/><line class="cls-23" x1="499.67" y1="120.24" x2="499.67" y2="229.99"/><line class="cls-23" x1="488.36" y1="120.24" x2="488.36" y2="229.99"/><line class="cls-23" x1="477.05" y1="120.24" x2="477.05" y2="229.99"/><line class="cls-23" x1="465.73" y1="120.24" x2="465.73" y2="229.99"/><line class="cls-23" x1="454.42" y1="120.24" x2="454.42" y2="229.99"/><line class="cls-23" x1="443.11" y1="120.24" x2="443.11" y2="229.99"/><line class="cls-24" x1="592.98" y1="187.08" x2="598.2" y2="180.74"/><line class="cls-24" x1="564.96" y1="175.6" x2="589.15" y2="187.7"/><line class="cls-24" x1="536.04" y1="201.31" x2="561.13" y2="176.23"/><line class="cls-24" x1="520.69" y1="148.38" x2="533.75" y2="200.61"/><line class="cls-24" x1="492.97" y1="186.78" x2="518.79" y2="148.05"/><line class="cls-24" x1="465.31" y1="175.6" x2="489.5" y2="187.7"/><line class="cls-24" x1="434.95" y1="202.49" x2="461.48" y2="176.23"/><line class="cls-25" x1="565.13" y1="160.87" x2="598.57" y2="170.74"/><line class="cls-25" x1="522.37" y1="173.78" x2="560.42" y2="161.1"/><line class="cls-25" x1="493.78" y1="161.36" x2="517.72" y2="173.33"/><line class="cls-25" x1="464.48" y1="201.04" x2="490.33" y2="162.27"/><line class="cls-25" x1="435.07" y1="188.86" x2="461.24" y2="202.18"/><circle class="cls-24" cx="463.17" cy="174.53" r="2.4"/><circle class="cls-24" cx="491.64" cy="188.77" r="2.4"/><circle class="cls-24" cx="520.11" cy="146.06" r="2.4"/><circle class="cls-24" cx="534.35" cy="203" r="2.4"/><circle class="cls-24" cx="562.82" cy="174.53" r="2.4"/><circle class="cls-24" cx="591.29" cy="188.77" r="2.4"/><circle class="cls-26" cx="562.82" cy="160.3" r="2.4"/><circle class="cls-25" cx="520.11" cy="174.53" r="2.4"/><circle class="cls-25" cx="491.64" cy="160.3" r="2.4"/><circle class="cls-25" cx="562.82" cy="160.3" r="2.4"/><circle class="cls-25" cx="463.17" cy="203" r="2.4"/></g><g id="arrow"><polygon class="cls-27" points="815.68 379.26 813.69 374.96 818.36 373.42 805.13 360.9 805.03 360.94 806.32 379.07 810.49 376.46 812.53 380.74 815.68 379.26"/></g></svg>