<?xml version="1.0" encoding="utf-8"?>
<!-- Generator: Adobe Illustrator 22.0.1, SVG Export Plug-In . SVG Version: 6.00 Build 0)  -->
<svg version="1.1" id="Layer_1" xmlns="http://www.w3.org/2000/svg" xmlns:xlink="http://www.w3.org/1999/xlink" x="0px" y="0px"
	 viewBox="0 0 750 1334" style="enable-background:new 0 0 750 1334;" xml:space="preserve">
<g>
	<path d="M381.1,649.7c2-3.2,4.6-5.7,8-7.6c3.4-1.8,7.2-2.7,11.4-2.7c5.1,0,9.1,1.2,11.8,3.5c2.7,2.3,4.1,5.7,4.1,10.2
		c0,3.5-1,6.9-3,10.1c-2,3.2-4.8,5.8-8.2,7.8c-3.5,2-7.2,3-11.3,3c-5.1,0-9-1.1-11.7-3.4s-4-5.5-4-9.8
		C378.1,656.5,379.1,652.9,381.1,649.7z M401.1,602.5c0-4.4-0.2-11.2-0.7-20.3c-0.5-9.1-0.7-16-0.7-20.8c0-7.6,0.9-15,2.7-22.1
		c1.8-7.1,4.8-13,9.1-17.7c4.3-4.7,9.9-7.1,16.8-7.1c5.3,0,9.5,1.5,12.4,4.6c2.9,3.1,4.4,7.7,4.4,13.8c0,6.8-1.6,13.7-4.8,20.8
		c-3.2,7.1-9.6,18.8-19.1,35.2c-9.5,16.3-16.1,30.6-19.6,42.8l-3.5-0.7C400.1,622.7,401.1,613.2,401.1,602.5z"/>
</g>
</svg>
