<svg width="720" height="625" viewBox="0 0 720 625" xmlns="http://www.w3.org/2000/svg"><title>Page 1</title><g fill="none" fill-rule="evenodd"><path fill="#E5E5E2" d="M0 625h720V0H0"/><path fill="#F6F6F6" d="M529.502 494.672h190.494l-.153-219.33-190.34-.767M137.17 494.672V274.575l195.643.788 1.05 164.876 2.368.788v53.644H137.434"/><path fill="#E5E5E2" d="M529.593 282.726v1.84l190.31.003.002-2.867"/><g fill="#E5E5E2"><path d="M627.324 274.97l2.63.01v173.937h-1.84c-.002 0-.592-173.75-.79-173.948"/><path d="M529.502 357.67v2.104h190.24l.003-1.847M634.16 434.185v6.048h85.51l.007-6.823M597.872 288.774s-4.207 12.096-20.248 10.78c-16.04-1.314-17.093-11.043-17.093-11.043l37.342.264zM695.43 288.51s-4.207 12.097-20.247 10.783c-16.04-1.315-17.093-11.045-17.093-11.045l37.34.263zM696.745 363.98s-4.207 12.097-20.248 10.782c-16.04-1.315-17.093-11.045-17.093-11.045l37.34.264zM597.083 364.244s-4.207 12.096-20.248 10.78c-16.04-1.313-17.092-11.043-17.092-11.043l37.34.264zM696.745 446.024s-4.207 12.097-20.248 10.78c-16.04-1.313-17.093-11.043-17.093-11.043l37.34.264zM332.858 282.466l.014 2.104-195.702-.003v-1.84l195.643-1.053"/><path d="M234.992 274.97l2.63.01v173.937h-1.842s-.59-173.75-.788-173.948"/><path d="M333.34 357.935l.01 1.84H137.17v-2.105M329.394 440.24l-.525-6.838-87.04.79v6.047M205.54 288.774s-4.208 12.096-20.248 10.78c-16.04-1.314-17.092-11.043-17.092-11.043l37.34.264zM303.098 288.51s-4.208 12.097-20.248 10.783c-16.04-1.315-17.092-11.045-17.092-11.045l37.34.263zM304.413 363.98s-4.208 12.097-20.248 10.782c-16.04-1.315-17.092-11.045-17.092-11.045l37.34.264zM204.75 364.244s-4.207 12.096-20.247 10.78c-16.04-1.313-17.092-11.043-17.092-11.043l37.34.264zM304.413 446.024s-4.208 12.097-20.248 10.78c-16.04-1.313-17.092-11.043-17.092-11.043l37.34.264z"/></g><path fill="#F6F6F6" d="M530.06 494.672V274.575l-195.642.788-1.05 164.876-2.368.788v53.644h198.798M.2 275.13V494.67h137.528V274.576"/><path fill="#E5E5E2" d="M334.373 282.466l-.014 2.104 195.7-.003v-1.84l-195.642-1.053"/><g fill="#E5E5E2"><path d="M432.24 274.97l-2.63.01v173.937h1.84s.592-173.75.79-173.948M335.272 274.97l-2.63.01v173.937h1.842s.59-173.75.788-173.948"/><path d="M333.892 357.935l-.012 1.84h196.18v-2.105M337.837 440.24l.525-6.838 87.04.79v6.047M461.692 288.774s4.207 12.096 20.247 10.78c16.04-1.314 17.092-11.043 17.092-11.043l-37.34.264zM364.133 288.51s4.207 12.097 20.248 10.783c16.04-1.315 17.093-11.045 17.093-11.045l-37.34.263zM362.818 363.98s4.208 12.097 20.248 10.782c16.04-1.315 17.093-11.045 17.093-11.045l-37.342.264zM462.48 364.244s4.208 12.096 20.248 10.78c16.04-1.313 17.093-11.043 17.093-11.043l-37.34.264zM362.818 446.024s4.208 12.097 20.248 10.78c16.04-1.313 17.093-11.043 17.093-11.043l-37.342.264zM137.728 282.726l-137.53-.604v2.583l137.53-.138"/><path d="M39.906 274.97l-2.63.01v173.937h1.842s.59-173.75.788-173.948"/><path d="M137.728 357.67l-137.53.186v1.918h137.53M33.07 434.19L.2 433.894v6.346h32.87M69.36 288.774s4.207 12.096 20.247 10.78c16.04-1.314 17.092-11.043 17.092-11.043l-37.34.264zM70.148 364.244s4.207 12.096 20.248 10.78c16.04-1.313 17.092-11.043 17.092-11.043l-37.34.264z"/></g><g fill="#F6F6F6"><path d="M42.708 193.025l-4.072-45.416 1.78-.988-1.78-19.746 1.018-.494-.764-19.005 1.527-.494-1.527-20.24 1.782.248.254-27.89h87.05l-.254 7.404h8.654L134.85 86.89h1.526l-1.78 19.993 1.526.74-1.018 19.747 1.272.247-.763 19.992-1.273 46.156-28.762.246s-.255-7.157-5.345-7.157h-21.89s-7.127.246-7.127 6.664l-28.508-.495zM144.013 66.158l.254-7.158 86.033.494v8.145h7.38l-1.78 19.745 1.527.494-2.037 20.485h2.29l-2.035 20.486 2.545.495-3.054 19.5 2.036.74-4.073 45.17h-91.632l-1.528-46.65 1.018-.742-.763-19.252 1.527-1.233-.764-19.993-.508-19.993 1.78-.246-1.526-20.486M240.736 194.753l91.123.247 6.362-46.65-2.036-.247 3.054-19.252-2.036-.74 2.036-19.746-3.054-.493 2.8-20.24-2.29-.246 2.544-20.733-8.145-.493.255-7.157-87.814.246-.255 7.405-1.272.248-2.8 4.443 1.02 122.426"/></g><g fill="#E5E5E2"><path d="M132.304 106.39l-.254-12.34-88.578 1.233v11.848l26.217-.246s1.526 7.898 6.108 7.404c4.58-.493 22.908-.247 22.908-.247s4.58-1.233 5.6-4.688c1.018-3.456 1.272-2.22 1.272-2.22l26.726-.742zM131.032 86.15l-.51-7.404-87.813.74v7.158l26.98.987s0 4.938 5.854 5.925c5.854.988 23.67 0 23.67 0s5.346-1.727 5.346-6.417l26.472-.987zM234.88 140.7l.255-3.95-87.56-1.48-1.017 12.834 3.563.246-.253-7.898M234.372 88.125V75.043l-87.56-.74-1.018 13.082 25.453.493s1.528 5.924 6.11 6.17c4.58.248 21.635 0 21.635 0s5.345.742 7.38-5.923h28zM246.335 107.624l2.545-16.783 87.05 5.43-1.78 12.342-26.472.74s-1.273 4.937-5.855 5.677c-4.58.74-23.417.493-23.417.493s-6.11-3.21-6.11-7.158l-25.96-.74z"/></g><path d="M202.136 429.01s-10.883-.92-17.155-2.027c-6.27-1.107-19.366-7.194-19.366-7.194l-5.72-1.476c-2.028-1.66-5.717-1.845-10.882-3.32-5.165-1.476-37.444-8.854-37.444-8.854s-5.824-1.527-4.425-4.06c-2.767-3.32 6.456-6.824 14.018-8.484 3.554-.78-.736-12.174-.736-12.174l3.67-.267c.1.194.153.302.153.302s8.776 20.073 16.248 21.897c7.473 1.825 30.585 5.388 37.883 5.388 7.3 0 20.562-4.54 29.455-9.037.174-.088 9.82 7.904 16.335 11.902 6.517 3.997 34.742-2.718 37.35-2.458 2.605.26 3.64.687 3.64.687-24.923 21.09-58.042 18.806-58.042 18.806l-4.98.368z" fill="#E5E5E2"/><g fill="#F6F6F6"><path d="M165.613 419.79c-.738 1.105-1.66 13.648-1.66 13.648l-7.378 165.09c-2.03 2.58-6.456 0-6.456 0s7.377-156.973 7.377-163.983c0-7.01 2.398-16.232 2.398-16.232l5.718 1.476zM207.116 428.643l1.476 79.316c-2.03 1.475-4.243.37-4.243.37l-2.214-79.32 4.98-.367zM111.567 406.14c-7.932 1.106-11.437 12.912-11.437 12.912l-27.853 125.8c-3.136 2.767-5.533-.738-5.533-.738L95.15 415.546s.553-3.32 3.32-7.01c3.302-4.4 8.672-6.455 8.672-6.455-1.398 2.533 4.425 4.06 4.425 4.06"/></g><g fill="#F6F6F6"><path d="M248.088 320.018s-8.954-6.156-11.472-7.555c-2.518-1.4-8.114 3.078-8.114 3.078s-9.038 6.82-17.008 9.835c-7.97 3.017-15.08-.43-15.08-.43-4.954-1.077-15.726-2.8-20.034-2.8-4.31 0-18.527-7.11-18.527-7.11-6.678-5.816-16.372-4.31-16.372-4.31s-6.03 8.62-10.555 14.435c-4.524 5.816-11.418 11.848-11.418 11.848 2.155 0 35.33 9.695 35.33 9.695s8.833 1.508 21.112.646c12.278-.863 19.387-1.294 21.972-2.586 2.585-1.293 2.585-3.447 6.894-2.155 4.308 1.292 11.633.646 11.633.646s13.786 0 15.51-1.077c1.723-1.08 7.754-4.525 9.263-4.31 1.508.215 11.417 1.293 11.417 1.293s10.125 2.37 11.633 1.077c1.508-1.293.43-2.8.43-2.8s6.68-.647 8.403-1.294c1.723-.646 4.308-.43 6.462.862 2.155 1.293 5.17 2.586 7.325 1.51 2.154-1.08 2.585-2.802 2.585-2.802l2.585-1.077 1.508.645s-2.153 5.386 1.078 6.247c3.232.862 3.016-.86 3.016-.86l4.31.86 2.89-4.952-.254-.053 1.68-1.12c1.678-1.12 1.118-10.633 0-12.59-1.12-1.96-8.675-3.64-11.473-4.198-2.798-.56-4.197-1.4-5.597-3.92-1.4-2.517-19.306 2.8-19.306 2.8l-21.826 2.518zM274.614 157.56c-1.938-.647-4.227-1.3-6.812-5.61-2.585-4.308-8.698-3.008-8.698-3.008l-9.48-8.617h-1.076s10.986 11.202 10.986 12.28c0 1.076-.43 5.385-2.154 6.462-1.723 1.077-12.064 1.508-16.803 1.292-4.74-.216-11.633 3.877-11.633 3.877-2.8-5.6-8.964-3.533-10.987-2.37-1.68.967-7.324 15.08-7.324 15.08s-2.585-2.37-5.17-3.877c-2.585-1.51-4.927.436-4.927.436-.52 2.306-.855 3.808-.855 3.808l-.264.243s8.2 20.287 13.587 30.196c5.385 9.91 10.555 18.31 10.555 18.31s3.447-6.892 6.248-6.03c2.8.86 6.342 2.538 13.87 4.746 5.19 1.522 8.307-6.77 8.307-8.17 0-1.4 1.583-2.835 2.422-3.115.84-.28 2.078-.925 1.52-1.765-.56-.84.838-1.12 1.677-1.4.84-.278 1.96-4.755 1.96-4.755s.94.28 5.136 1.12c4.198.84 3.155-4.84 3.155-5.754 0-1.737 1.61-5.38 1.782-9.076.156-3.366 2.518-3.358 2.518-3.358 7.274-12.59 7.555-26.862 7.555-26.862s-3.155-3.44-5.094-4.085"/></g><g fill="#E5E5E2"><path d="M288.758 337.023l3.305-2.385 1.25 1.416 1.422-4.362-.465-5.113s-3.253-1.085-3.873-2.17l-6.817-1.084-2.642 5.91s7.498 2.673 8.05 3.833c1.08 2.257-.23 3.953-.23 3.953M126.796 329.933c-3.7 3.935-7.288 7.075-7.288 7.075 2.154 0 35.33 9.695 35.33 9.695s8.832 1.508 21.11.646c12.28-.863 19.39-1.294 21.974-2.586l-39.038 1.486-27.503-8.11 9.714-1.214s16.573 1.75 16.998 1.215c.425-.537-17.605-6.07-17.605-6.07l-13.69-2.137z"/><path d="M297.233 339.778s.136-3.904 1.686-5.298c1.548-1.394 2.167-7.127 2.167-7.127s-4.895-5.796-4.183-5.887c.712-.092 6.043 5.422 6.043 5.422s-2.17 7.592-2.014 8.83c.154 1.24 3.93.862 3.93.862l-2.89 4.952-4.308-.86s.215 1.722-3.016.86c-1.213-.323-1.667-1.282-1.762-2.355 0 0 3.26 1.685 4.345.6M262.2 334.79c0-.465-5.888-2.014-7.437-2.79-1.55-.773-6.972-3.872-6.972-3.872l-5.266 1.55s3.873.31 4.492.464c.62.155 7.127 3.41 7.127 3.41l8.057 1.238zM259.1 325.96l-1.394-1.55s-2.324-2.48-3.098-2.634c-.775-.155-3.718-.775-3.718-.775l7.59-.928 7.747.31s-4.337 1.55-5.732 2.633c-1.394 1.085-1.394 2.944-1.394 2.944M277.848 326.89l1.86-6.198s-2.945 2.788-4.03 3.253c-1.084.465-7.746 2.48-6.97 2.324.773-.156 6.816-.62 7.59-.465.775.154 1.55 1.084 1.55 1.084M267.932 185.127l-4.647-4.028h-3.254s-7.99.362-8.21.618c-.22.256 8.83.62 8.83.62l2.944 1.705-.31 1.55-1.406.894-3.397-.276s-4.688-3.053-4.956-2.632c-.27.42 6.042 5.267 6.042 5.267l8.366-3.718zM264.582 204.853s-3.93-2.22-5.945-2.374c-2.014-.155-2.944-.465-2.634-1.55.31-1.085.245-2.492.155-2.48-.09.015-1.085 4.185-1.085 4.185s3.114 1.25 5.283 1.56c2.17.308 4.226.66 4.226.66M255.26 211.337c.083-.066-1.608-1.532-1.608-1.532s-6.842-3.078-7.144-2.94c-.302.136 4.938 3.36 4.938 3.36s3.73 1.178 3.813 1.112M226.72 165.45s-1.293-3.374-3.785-3.19c-6.85.507-6.317 7.356-6.13 7.374.158.016.97-5.646 4.758-6.527 2.013-.468 2.55 3.965 3.788 3.965 1.24 0 1.37-1.62 1.37-1.62M225.016 168.55s-2.324 0-3.253.465c-.93.465 2.633 1.55 2.633 1.55l.62-2.015zM223.777 171.648s-1.86-.31-2.79.465c-.928.774-1.393 2.17-.31 2.324 1.086.155 1.24 1.084 1.705 2.17.465 1.083 2.17 2.942 1.86 1.858-.31-1.085-.465-6.817-.465-6.817M234.263 221.668c-2.857-2.403-6.605-5.96-8.472-9.428-3.253-6.042-6.638-17.936-6.97-17.662-.333.274 3.098 16.423 2.168 17.972-.93 1.55-3.67 2.934-3.67 2.934 3.534 6.184 6.24 10.58 6.24 10.58s3.447-6.893 6.247-6.032l4.458 1.636z"/></g><path d="M235.217 231.038s5.316 19.867 4.757 26.022c-.56 6.156-2.24 15.11-2.24 15.11l1.4 1.12s-10.353 23.784-10.353 25.742c0 1.96.28 3.358-.838 3.918-1.12.56.56 12.59.56 12.59s-9.037 6.82-17.008 9.836c-7.97 3.016-15.08-.43-15.08-.43-4.954-1.078-15.726-2.802-20.034-2.802-4.31 0-18.527-7.108-18.527-7.108-6.678-5.817-16.372-4.31-16.372-4.31s-6.03 8.618-10.555 14.435c-4.524 5.817-11.417 11.85-11.417 11.85 2.154 0 35.33 9.693 35.33 9.693l-23.482 1.508-4.74-2.153-5.095.08c.24.107.373.184.373.184l-.372-.184c-.67-.306-2.17-.862-3.824-.655-2.238.28-6.995.84-6.715-1.398.28-2.238.84-6.156.84-6.156s-1.958-2.798-3.358-3.358c-1.4-.56-13.15-1.678-13.99-5.036-.84-3.358 2.518-29.1 3.917-33.018 1.398-3.917.84-9.514 3.357-10.913 2.518-1.397 6.995-9.232 6.995-9.232s.28-10.353 2.24-14.27c1.957-3.918 4.476-13.99 4.476-13.99s.28-19.028 1.4-20.427c1.118-1.4 4.476-3.637 7.274-6.435 2.798-2.798 20.985-20.707 26.862-21.546 5.876-.84 9.793-2.24 13.43-3.918 3.638-1.68 16.23-3.917 16.23-3.917l5.875-2.52 12.885-11.787s8.2 20.286 13.587 30.195c5.385 9.91 10.556 18.312 10.556 18.312s3.447-6.894 6.247-6.032c2.066.635 4.536 1.715 8.712 3.124l-3.3 7.88z" fill="#E5E5E2"/><g fill="#D1D1CC"><path d="M127.734 217.723c3.696-3.55 9.376-8.826 14.398-12.76 0 0 9.768-1.882 10.36-1.43.59.454-6.7 2.437-11.876 6.396-5.176 3.957-12.882 7.793-12.882 7.793M100.118 330.814c2.74.913 10.048 1.827 10.048 1.827 2.74-1.522 12.79-10.352 12.79-10.352l-3.046.61c-6.09 5.48-14.006 4.87-14.006 4.87 10.657-3.35 10.657-6.698 11.266-10.657.61-3.957 4.263-.912 8.526-.303 4.263.61 7.612-3.045 11.875-6.09 4.264-3.045 10.05-.913 10.05-.913l-4.263-3.96 2.74-3.653s3.654 1.22 5.176 1.523c1.523.305 6.395 3.35 6.395 3.35-2.132-1.522-9.135-.305-9.135-.305s10.962 3.655 18.574 5.786c7.613 2.13 20.097 1.827 20.097 1.827s-6.7 1.22-13.398.61c-6.7-.61-14.31-.914-14.31-.914 3.35 2.436 16.884 8.078 16.884 8.078-4.308 0-18.526-7.11-18.526-7.11-6.678-5.815-16.373-4.307-16.373-4.307s-6.03 8.617-10.554 14.433c-3.837 4.932-9.377 10.02-10.973 11.452 0 0-.997 2.945-8.132 1.314 0 0-1.958-2.8-3.357-3.358-1.4-.56-13.15-1.68-13.99-5.037 0 0 2.904.37 5.645 1.284M238.645 266.923c-.49 3.008-.91 5.247-.91 5.247l1.4 1.12s-11.738.583-11.433-.027c.304-.61 7.612-2.13 7.612-2.13s-.075-20.47.61-20.402c.683.067 2.13 10.05 2.13 10.05l.59 6.143zM198.47 229.416l.304-6.7s-9.724-27.236-9.115-27.236c.608 0 13.073 28.76 13.682 30.89.61 2.132 3.92 13.426 3.92 13.426l-8.792-10.38zM221.307 227.894c0-.914-14.007 10.048-14.007 10.962 0 .913 5.48-2.132 5.48-2.132s7.005 6.7 7.31 6.09c.303-.61-4.57-7.612-4.57-7.612s5.787-6.395 5.787-7.308M220.545 248.273s-.146 6.685 1.377 13.08c1.522 6.394 1.774 10.76 1.147 18.357-.694 8.393-1.153 8.474-5.112 13.04-3.958 4.57-2.69 12.43-2.69 12.43s6.953.36 7.257 3.405c.305 3.045-2.502 6.335-3.044 5.48-.54-.854 4.49-3.62.836-6.36-3.654-2.74-5.1-.642-5.708-2.774-.608-2.13-2.245-8.656 2.437-14.006 2.13-2.436 4.727-1.766 5.335-9.38.61-7.61-.463-12.543-1.377-18.024-.752-4.516-.914-8.222-.914-12.79 0-4.814.455-2.457.455-2.457"/><path d="M125.086 307.368s-17.965 11.266-17.66 12.79c.304 1.52 11.57-3.96 14.006-7.918s3.654-4.872 3.654-4.872M130.872 298.537s-7.308-5.176-17.66-2.74c-10.354 2.435-15.226 10.048-15.226 10.048s6.394-7.003 15.834-7.613c9.44-.61 17.052.305 17.052.305M136.657 220.28s-5.176 10.354-8.22 15.226c-3.046 4.872-7.738 15.988-8.527 16.443-.79.454 5.785-15.53 6.7-20.402.912-4.872 7.307-9.745 10.047-11.267M154.622 295.492l1.522-6.7s3.654-3.348 4.264-4.567c.61-1.217 3.958-8.83 1.217-15.224-2.74-6.394-3.35-10.96-1.217-8.22 2.13 2.74 5.785 8.83 4.87 14.006-.912 5.177-10.656 20.706-10.656 20.706M167.41 278.745c.61-.913 13.703-22.228 13.703-22.228l2.436-4.872v6.394s7.307-3.045 7.61-1.828c.306 1.22-6.088 2.132-9.438 4.872-3.35 2.74-8.22 12.485-8.22 12.485s6.36.123 6.393.608c.034.484-7.917 1.827-7.917 1.827s16.825 2.613 16.747 3.045c-.076.43-18.574-.914-18.574-.914l-2.74.61zM119.508 337.008c2.154 0 35.33 9.694 35.33 9.694l-23.482 1.51-4.74-2.156-5.095.08c.24.107.374.184.374.184l-.373-.185c-.67-.305-2.17-.86-3.824-.654-2.238.28-6.995.84-6.715-1.4.28-2.237.84-6.155.84-6.155l7.688-.917zM229.805 220.032c2.066.636 4.536 1.715 8.713 3.125l-.504 1.445-2.797 6.435-5.08 6.905-6.58-11.878s3.448-6.893 6.25-6.032"/></g><path d="M274.614 157.56c-1.938-.647-4.227-1.3-6.812-5.61-2.585-4.308-8.698-3.008-8.698-3.008l-9.48-8.617h-1.076s10.986 11.202 10.986 12.28c0 1.076-.43 5.385-2.154 6.462-1.723 1.077-12.064 1.508-16.803 1.292-4.74-.216-11.633 3.877-11.633 3.877-2.8-5.6-8.964-3.533-10.987-2.37-1.68.967-7.324 15.08-7.324 15.08s-2.585-2.37-5.17-3.877c-2.585-1.51-4.927.436-4.927.436 1.66-7.384 5.222-23.095 5.86-25.013.84-2.518.28-4.757 1.68-5.316 1.4-.56 6.156-8.115 7.275-9.234 1.12-1.12 2.52-2.238 4.198-2.798 1.68-.56 6.715-4.757 8.674-5.596 1.96-.84 6.436-3.64 7.275-2.52.84 1.12 2.518-.56 2.518-.56l-1.678-3.637s1.96.56 3.078 1.12c1.12.56 1.678 0 2.518-1.4.84-1.4 2.24-2.798 4.757-1.958 2.518.84 2.238 2.518 2.238 2.518l2.798-1.96 7.835 4.478s2.8 4.2 4.478 6.437c1.68 2.24 5.597 7.275 7.555 8.394 1.96 1.12 2.798 3.64 4.477 5.038 1.68 1.4 4.197 2.798 3.638 4.757-.56 1.958 1.4 2.238 1.4 2.238l4.756 4.477s.84 4.757-.28 6.995c0 0-.84-2.798-1.96-1.678-1.118 1.12-3.916 3.357-3.916 3.357s-3.155-3.44-5.094-4.085M356.375 278.326c4.197-.28 30.5-4.756 30.5-4.756s4.477-.56 2.238 1.678c-2.238 2.24-47.458 65.508-49.872 66.716-3.446 1.723-7.323 2.37-7.323 2.37s-18.096 4.954-24.99 6.677c-6.893 1.725-6.893 1.078-6.893 1.078s-81.43-5.385-82.724-5.6c-1.292-.216-.86-3.232-.86-3.232s13.786 0 15.51-1.077c1.723-1.078 7.754-4.525 9.263-4.31 1.507.216 11.417 1.293 11.417 1.293s10.125 2.37 11.633 1.077c1.508-1.292.43-2.8.43-2.8s6.68-.647 8.402-1.293c1.724-.646 4.31-.43 6.463.862 2.155 1.29 5.17 2.584 7.325 1.507 2.154-1.077 2.585-2.8 2.585-2.8l2.585-1.078 1.508.645s-2.153 5.386 1.078 6.248c3.23.86 3.016-.862 3.016-.862l4.31.863 2.89-4.953 5.062 1.066 41.413-56.242s1.723-2.734 5.035-3.078" fill="#D1D1CC"/><path d="M300.034 352.088s-81.43-5.385-82.724-5.6c-1.292-.216-.86-3.232-.86-3.232s13.786 0 15.51-1.077c1.723-1.078 7.755-4.525 9.263-4.31 1.508.216 11.417 1.293 11.417 1.293s10.125 2.37 11.633 1.077c1.51-1.293.43-2.8.43-2.8s6.68-.647 8.403-1.293c1.723-.646 4.308-.43 6.463.86 2.153 1.294 5.17 2.587 7.323 1.51 2.154-1.077 2.585-2.8 2.585-2.8l2.585-1.078 1.508.645s-2.153 5.386 1.078 6.247c3.232.862 3.016-.86 3.016-.86l4.31.86 2.89-4.952 5.063 1.066 41.412-56.242s1.724-2.734 5.035-3.078c4.185-.435 30.5-4.757 30.5-4.757s4.477-.56 2.24 1.678l-31.604 5.058s-2.433.252-4.364 2.623c-2.41 2.96-41.35 55.06-50.13 66.873-.17.228-2.15-.21-2.295-.013-.824 1.11-.686 2.298-.686 2.298" fill="#E5E5E2"/><path d="M331.917 344.333s21.94 5.065 23.62 12.62c1.678 7.555 5.595 20.985.838 59.88 0 0-2.238 59.6-1.958 64.636.28 5.036.56 19.306-.56 20.985-1.12 1.68-3.078 4.477-1.96 6.436 1.12 1.96 3.36 13.43 2.24 14.55-1.12 1.12-17.07 3.08-17.07 3.08l-8.597 1.787-8.402-.863-5.6 1.508.215 3.878s2.585 4.955 1.507 6.032c-1.077 1.077-14.864 4.524-21.11 4.954-6.248.432-10.988.216-16.804-.214-5.817-.43-17.326-4.143-17.326-4.143l-.83-.91v-13.99s.28-4.756 1.12-6.435c.84-1.68-.84-13.71.28-14.83 1.118-1.12 1.118-10.354 1.398-13.15.28-2.8.84-9.515 1.12-12.034.28-2.517-3.358-55.122 4.476-68.273 0 0-.28-1.12-3.357 0-3.078 1.12-21.546 5.037-25.183 5.037-3.638 0-7.556 0-11.473 1.4-3.916 1.398-16.508 2.238-22.104 1.678s-30.22-1.68-46.17-5.316c-15.948-3.638-27.7-3.078-33.576-12.87-5.876-9.795-8.674-19.31-8.115-30.78.56-11.473 3.358-22.666 3.358-22.666s-.134-.076-.372-.185l5.096-.08 4.74 2.156 23.48-1.507s8.833 1.508 21.113.646c12.278-.863 19.387-1.294 21.972-2.586 2.585-1.293 2.585-3.447 6.893-2.155 4.31 1.292 11.634.646 11.634.646s-.432 3.016.86 3.23c1.293.217 82.724 5.602 82.724 5.602s0 .646 6.893-1.077c6.894-1.722 24.99-6.677 24.99-6.677" fill="#D1D1CC"/><g fill="#E5E5E2"><path d="M319.215 527.675l-4.747 1.277.215 3.878s2.585 4.955 1.508 6.033c-1.076 1.077-14.863 4.523-21.11 4.954-6.248.43-10.987.215-16.803-.215-5.817-.43-17.327-4.143-17.327-4.143l-.83-.91v-13.99s2.47 2.33 5.104 3.082c2.634.752 10.533 2.068 10.533 2.068l3.95 10.533.753-6.207-.753-3.95 21.82-2.068 11.66-3.197.377-1.317 3.198-.94 2.453 5.112zM353.084 512.674c.973 4.116 1.837 9.982 1.053 10.768-1.12 1.12-17.07 3.077-17.07 3.077l-8.597 1.787-5.698-.585-.368-5.347s17.492-3.574 18.057-3.95c.565-.376 10.91-3.762 10.91-3.762l1.714-1.99z"/></g><g fill="#E5E5E2"><path d="M321.94 368.938c-2.247-3.247-6.743-9.242-18.983-10.74l-.102.265c-6.178-.906-34.456-3.735-36.1-3.324-1.998.498-4.89 1.678-3.642 2.427.965.58 27.16 9.837 33.402 11.8l-1.552 2.068 3.248 2.997s5.778-1.927 9.064-4.656c-1.843 2.507-4.435 5.765-6.065 6.655l1.247 1s6.11-2.88 9.334-6.043c-2.362 2.838-6.98 8.306-8.084 9.04-1.498 1 3.248 6.746 4.247 6.746 1 0 9.492-8.743 10.49-8.493 1 .25 2.748 21.5 3.498 21.483.75-.018 2.25-27.978 0-31.225M168.568 402.91c-.083-.418 16.237-10.99 16.736-11.74.5-.75 24.025-13.883 24.73-13.74.704.144-10.49 8.993-14.988 11.74-4.496 2.75-26.395 14.157-26.478 13.74M169.39 355.184c-3.998-1.75-8.738-4.712-9.064-3.98-.327.73 5.632 3.257 5.632 3.257s7.71 3.245 7.107 10.73c-.076.945-.23 1.972-.44 3.044-5.07 3.296-21.736 15.21-23.178 16.252-1.7 1.227-2.36 2.643-1.04 2.265 1.146-.326 18.792-12.197 23.49-15.364-1.757 6.732-4.694 13.825-3.828 13.29.765-.474 6.917-14.62 6.917-18.116 0-3.497-1.6-9.628-5.598-11.376"/><path d="M167.382 366.644c-.095 1.227-26.904 16.048-28.13 15.858-1.228-.188-1.795-2.737-.756-3.02 1.038-.283 16.803-6.514 19.918-8.4 3.115-1.888 9.007-4.944 8.968-4.437"/></g><path d="M353.005 540.89l-4.012-3.02s2.185-.556 3.297-.04c1.11.517.715 3.06.715 3.06m40.646 21.683c1.68-7.275-7.894-8.353-10.693-8.353-2.798 0-17.068-3.917-17.068-3.917l-3.08-.84-8.393-7.274c2.798-9.515-7.835-5.877-7.835-5.877s-1.96-1.4-3.918-4.757c-1.958-3.358-3.357-.28-3.357-.28l-2.52-1.958.28-2.8-8.597 1.79-8.402-.863-5.6 1.507.215 3.878s2.585 4.955 1.508 6.033c-1.077 1.077-14.864 4.523-21.11 4.954-6.248.43-10.988.216-16.804-.215-5.816-.43-17.326-4.143-17.326-4.143-.67 2.814-.67 4.422-1.474 4.154-.9-.3-3.216.67-3.216.67-11.658 25.73-9.38 35.645-9.38 35.645 2.238 2.518 23.048 4.823 23.048 4.823l.825-5.07s4.015 4.487 14.184 8.02c9.648 3.348 20.234 4.018 37.253 4.957 17.6.97 29.677-6.193 31.357-8.71 1.68-2.52-2.547-3.485-2.547-3.485.28-2.24-3.277-6.923-7.1-7.772-3.62-.804-8.874-2.097-11.392-3.216-2.52-1.12-6.912-4.064-6.912-4.064l.28-3.918s10.393 5.61 16.548 7.847c6.156 2.24 22.905 3.067 33.26 3.346 10.35.28 18.523-6.392 19.586-7.834 1.1-1.495-1.62-2.28-1.62-2.28" fill="#D1D1CC"/><g fill="#E5E5E2"><path d="M353.005 540.89l-4.012-3.02s2.185-.556 3.297-.04c1.11.517.715 3.06.715 3.06zm-27.23 24.643l-.18-.12s-1.408-.8-4.47-1.446c-3.064-.645-3.71.645-3.71.645l1.13-1.935s-3.87-3.386-5.804-4.997c-1.933-1.612-5.48-2.74-5.964-2.096-.483.645 1.13 4.997 2.096 7.254.967 2.257 1.774 6.932 1.774 6.932l.322 3.547 4.997-1.45s3.708.966 5.804.805c2.094-.16 9.188-1.612 9.188-1.612l-7.255 4.19s.968.162 3.87-.966c2.9-1.128 8.866-1.45 8.866-1.45l5.64.483-3.223 2.257.967 2.9-11.285 2.58c1.45 1.45 12.896 1.612 12.896 1.612s3.063-4.997 4.998-4.836c1.934.162 3.062 2.902 3.062 2.902l-.967 1.612v2.418l4.945-3.026c-.83-.895-2.475-1.27-2.475-1.27.28-2.24-3.277-6.924-7.1-7.773-3.1-.69-7.4-1.737-10.15-2.726l-1.986.125-.13-1.036c-1.08-.553-2.337-1.296-3.422-1.966l-2.09.423-.346-1.98zm28.642-23.344c2.798-9.515-7.835-5.877-7.835-5.877s-.81-.58-1.91-1.885c0 0-.817 4.23.15 4.713.966.484 2.74.323 2.74.323v2.418l3.385.647-4.836 1.45.485 5.32 1.934-.16 2.9-3.226.97 5.16s1.288-4.19.32-6.61c0 0 2.258 3.064 1.935 6.772l.323 3.546 4.352-2.096s1.45 7.416 4.192 9.995l2.9-4.352.807-2.096 3.223.966s-2.257 2.58-1.934 4.03c.32 1.45 2.9 2.58 4.19 2.418 1.29-.16 11.445-.322 11.445-.322l-.16-4.514 6.286 1.773s-3.302 5.747-3.383 6.288c-.08.542 6.754-4.295 6.754-4.295 1.68-7.275-7.894-8.353-10.693-8.353-2.798 0-17.068-3.917-17.068-3.917l-3.08-.84-8.393-7.274zM343.855 543.17l-1.13 3.547-1.29-1.29-3.706-.644-7.095-5.32 2.74-1.773 8.545 5.16M256.78 545.943s1.41 1.31 2.015 1.21c.604-.102.682-3.54.682-3.54-.9-.3-3.217.67-3.217.67l.52 1.66z"/></g></g></svg>