<svg width="720" height="625" viewBox="0 0 720 625" xmlns="http://www.w3.org/2000/svg"><title>Page 1</title><g fill="none" fill-rule="evenodd"><path fill="#E4E4E1" d="M.256 625H720V0H.256"/><path fill="#F5F5F5" d="M146.56 499.26l-80.75 19.347-42.9 10.094-22.655 5.492v38.588L720 603.034V457.076l-354.64-12.61"/><path d="M312.268 496.317c-3.785-2.944-26.076-23.132-27.338-26.076-1.262-2.944-5.047-8.83-8.41-8.41-3.365.42-24.395-.842-29.862-3.366-5.467-2.523-8.41-3.364-13.88-2.943-5.467.42-64.348.842-63.086.42.158-.052.15-.216-.008-.468.16.252.166.416.008.47 0 0-22.397.51-32.998 7.972-10.602 7.46 9.867 35.346 9.867 35.346s15.982-.84 17.244-1.26c1.262-.42 13.88 9.672 21.45 10.093 7.57.42 10.093-2.524 15.56-1.26 5.47 1.26 11.777 2.1 11.777 2.1l22.712-2.1s4.206-.843 4.627-7.573l13.036-1.26 13.88 6.728h13.458s14.72 5.468 17.244 0l.84-1.682s10.095 4.206 14.72 1.682c4.628-2.523 2.945-5.468-.84-8.41" fill="#FFF"/><g fill="#E4E4E1"><path d="M146.323 459.52c-3.59 1.098-6.98 2.528-9.63 4.394-10.6 7.46 9.868 35.346 9.868 35.346s15.983-.84 17.244-1.26c0 0-2.73-20.21 7.46-28.492 0 0-5.733-3.184-8.28 1.275-2.55 4.458-10.19 15.286-10.19 15.286s-11.467-12.103-10.83-17.198l4.36-9.352zM298.39 503.046s10.093 4.206 14.72 1.683c0 0-8.09-5.92-11.91-9.106-3.823-3.184-14.65-8.917-19.11-14.65-4.458-5.733-12.738-14.013-17.834-14.65-5.095-.636-28.662-8.28-28.662-8.28s22.293 8.917 29.3 12.74c7.006 3.82 17.834 12.738 22.293 19.108 4.458 6.37 11.202 13.154 11.202 13.154M236.51 491.853c-1.49-1.832-4.916-1.35-11.922-1.987-7.007-.638-17.02-5.707-17.02-5.707l8.28.635s-.636-7.006 1.275-7.006c1.91 0 12.102 5.73 14.013 5.094 1.91-.636 6.37-3.184 10.19-1.273 3.823 1.91 17.835 3.822 17.835 3.822 1.912 4.46 12.103 8.917 12.103 8.917 0 2.547 9.04 10.378 9.04 10.378h-13.457l-13.88-6.73-13.037 1.262s-.514-3.84-3.42-7.407"/></g><path d="M221.11 503.03c.497 1.49 9.19.498 9.19.498-.247-2.235 4.705-12.67 4.705-12.67-1.668-.578-4.33-.54-8.44-.833 0 0-7.25 7.622-5.454 13.006" fill="#F6F6F6"/><path d="M347.37 484.55s190.992 19.255 204.185 20.764c13.006 1.488 15.025-12.355 15.025-12.355l30.542-122.04s7.5-20.764-14.996-20.764c-22.495 0-196.11-9.228-196.11-9.228s-14.42-2.885-19.613 17.303c-6.17 23.996-32.877 109.015-32.877 109.015s-8.652 16.151 13.843 17.305" fill="#FFF"/><path fill="#E4E4E1" d="M584.752 364.312l-32.19 125.434-208.38-18.873 35.63-117.952"/><path d="M315.01 503.34c-.448.474-1.073.938-1.9 1.39-4.627 2.522-14.72-1.684-14.72-1.684l-.84 1.683c-2.524 5.466-17.245 0-17.245 0h-13.46l-13.88-6.73-13.036 1.26c-.422 6.73-4.627 7.572-4.627 7.572l-22.712 2.103-40.825 6.28-.566 1.703h-11.63l-.565 1.7-10.493.57-.85 1.7-9.644.284-.567 1.134-9.073.284-.285 2.27-16.164.85-.284 1.984-4.822.284s-1.418 0-1.418 2.268c0 2.27-.566 3.688 2.837 3.97 3.404.284 74.302 1.702 78.84 3.12 4.536 1.418 9.64 5.106 12.194 7.374 2.553 2.27 11.06 2.552 15.88 1.984 4.822-.566 133.856-26.657 133.856-26.657s3.12 0 5.39-3.403c2.268-3.402 2.836-5.955 2.836-9.358 0-3.404-1.418-4.822-3.688-3.687-2.27 1.134-8.51 1.984-8.51 1.984v-3.403l-11.058 1.42-.85-2.27-18.12 2.02z" fill="#FFF"/><path d="M357.235 507.275c0 3.403-.567 5.956-2.836 9.358-2.27 3.404-5.39 3.404-5.39 3.404s-129.034 26.09-133.855 26.657c-4.82.567-13.328.284-15.88-1.984-2.554-2.27-7.658-5.956-12.195-7.374-4.537-1.418-75.436-2.836-78.84-3.12-2.026-.17-2.645-.74-2.813-1.654l100.37 3.072s8.79.568 16.448-.85c7.657-1.418 134.99-27.51 134.99-27.51" fill="#E4E4E1"/><path d="M147.823 445.426c-13.88-2.522-24.394-4.625-24.394-4.625s-9.253-13.038-18.927-14.3c-9.673-1.26-13.037-2.522-15.14-6.308-2.103-3.786-10.516-6.308-13.46-7.57-2.943-1.262-2.522-6.73-7.15-8.41-4.625-1.683-15.98-4.207-15.98-4.207s-1.263-24.394-6.31-34.488c-5.046-10.094-44.892-76.983-44.892-76.983L0 286.313.12 500.59s2.296 1.702 3.444 1.613c5.468-.42 24.815-.84 24.815-.84l37.43 17.242 80.75-19.346s-20.467-27.885-9.866-35.346c10.602-7.462 32.998-7.972 32.998-7.972 1.262-.42-7.99-7.993-21.87-10.516" fill="#F5F5F5"/><g fill="#E4E4E1"><path d="M3.564 502.205c5.468-.42 24.814-.84 24.814-.84l37.432 17.242 80.75-19.346c2.322-1.684-.564-4.295-3.76-8 0 0-8.964 2.464-15.12-.615-6.157-3.078-14.366-5.13-11.8-4.617 2.564.513 9.234 13.34 9.234 13.34s-3.078 2.052-8.21 1.54c-5.13-.515-16.417-.515-16.417-.515l5.13 3.592s-6.67 5.13-7.182 2.566c-.514-2.565 3.078-8.208-1.026-15.39-4.106-7.184-7.184-13.854-3.593-22.063 3.592-8.21 14.88-20.523 14.88-20.523S97.92 454.73 94.33 460.888s-6.157 18.983-6.157 24.627c0 5.644 1.54 16.418-2.05 17.444-3.593 1.025-15.907 2.052-12.83-1.027 3.08-3.08 7.698-14.878 8.724-20.01 1.026-5.13 2.052-37.453 2.052-37.453s-4.618 21.548-5.13 28.73c-.515 7.185-5.646 22.064-9.236 23.603-3.592 1.54-7.697 4.104-11.287-2.566-3.592-6.67-13.854-18.983-13.34-11.287.512 7.695 5.13 16.93-.514 16.418-5.644-.514-13.34-13.853-14.878-18.983-1.54-5.13-6.67-7.697-5.644-2.053 1.027 5.644 6.158 14.88 2.566 13.852-3.59-1.025-8.722-9.234-9.748-7.695-1.026 1.538 2.565 10.774 1.026 12.313-1.54 1.54-12.826 4.104-11.287-2.566 1.54-6.67 10.26-21.036 14.88-27.192 4.616-6.157 1.024-11.287-7.184 0-8.21 11.287-10.775 13.34-11.8 21.035-1.027 7.696 1.07 14.125 1.07 14.125M164.435 451.472c3.89 2.26 5.888 4.26 5.257 4.47 0 0-22.397.51-32.998 7.97 0 0 8.942-10.208 16.126-10.208 7.182 0 11.615-2.232 11.615-2.232M47.676 396.49s-13.834 1.38-17.938 3.944c-4.104 2.566-4.67 2-10.828 5.592C15.493 408.02 7.497 416.33.968 423.862c.04.64.077 1.282.107 1.928 1.442-1.955 2.699-3.727 3.47-4.885 3.077-4.618 11.808-11.095 18.478-13.66 6.67-2.565 29.75-7.24 29.75-7.24-.843-1.736-2.784-2.674-5.097-3.516"/></g></g></svg>