<svg width="720" height="625" viewBox="0 0 720 625" xmlns="http://www.w3.org/2000/svg" xmlns:xlink="http://www.w3.org/1999/xlink"><title>Page 1</title><defs><path id="a" d="M.797 0H109.71v120.74H.797V0z"/><path id="c" d="M.445 0h13.97v17.82H.446V0z"/><path id="e" d="M.32 0h25.43v22.245H.32V0z"/></defs><g fill="none" fill-rule="evenodd"><path fill="#E4E4E1" d="M0 625h720V0H0"/><path d="M719.508 91.377L199.602 58.874s-13.508-2.272-19.348 12.47c-5.842 14.74-25.59 48.675-25.59 48.675s-1.112 5.562 1.67 6.396l6.397 3.616-26.98 113.76-44.502 16.69s-15.576 4.45-15.854 18.078c-.28 13.63.556 25.31.556 25.31s-5.563.28-6.397 2.782c-.835 2.504-3.616 13.073-.835 21.14 2.782 8.065 9.18 11.403 9.18 11.403l.555 5.285-7.51 1.668-1.39-3.615s-8.623 0-9.457 1.947c-.835 1.946 3.616 46.45 13.35 46.17l58.41 4.174s-1.112 57.018 62.583 53.68c60.104-3.15 53.402-65.92 53.402-65.92l14.742-1.112 3.337 5.564s3.06 5.284 11.405 3.06l428.896-32.822s1.113-7.51 4.45-7.51c3.34 0 9.18.28 9.18.28l-.342-258.667z" fill="#F5F5F5"/><path d="M538.096 117.013l.118-2.638s3.648-5.392 3.805-13.162c.158-7.77-.318-13.163-.793-18.554-.477-5.393.316-17.126.634-20.14.318-3.013.254-5.773.254-5.773-.2.118-.4.23-.6.332-.18.093-.355.162-.53.242 7.27-3.372 15.67-15.826 15.67-15.826l.245 1.3s.617 28.438 63.058 51.93c0 0-15.982 2.266-27.854 5.99-11.872 3.726-48.072 14.9-54.008 16.297" fill="#F5F5F5"/><g transform="translate(431)"><mask id="b" fill="#fff"><use xlink:href="#a"/></mask><path d="M109.274 88.368c-.95-5.392-1.426-10.784-1.11-13.955.317-3.17 1.215-16.815 1.215-16.815.068-.027.14-.067.21-.096-1 .42-1.976.67-2.9.67-7.73 0-8.873 1.146-8.873 1.146l-8.586 5.438s-3.145-2.862-2.288-4.293c.857-1.43-4.006-1.717-4.006-1.717s7.728-4.008 8.585-6.297c.858-2.29 2.86-6.868-3.148-18.603-6.01-11.734-20.32-33.77-20.32-33.77S64.31.184 59.587 0h-11.44l5.597 2.938-4.58 2.862-10.017-2.29s3.722 4.58 8.3 4.007v5.725s-4.578 1.717-6.867.572C38.29 12.67 29.705 5.8 27.988 2.938c-.343-.57-.836-1.616-1.417-2.938h-9.647c.22.814.47 1.608.76 2.366 3.722 9.73 9.733 14.596 9.733 14.596l-3.437.86s-6.867-5.726-9.443-13.453C14.08 3 13.725 1.516 13.445 0H10.75c-.61 6.03-1.023 12.01-.507 13.814l-4.292-2.29-.86-6.582-2.288 5.724H.797l1.69 10.93c1.03 3.212 3.13 3.43 6.505 7.255 3.58 4.057 4.056 8.113 4.056 8.113-2.146 8.59 7.634 24.095 7.634 24.095-.715 10.736 11.4 9.933 11.4 9.933s1.01 4.05 1.772 7.087c.248.99 1.67.628 2.78.76 1.388.162.837 7.825 5.305 8.38 1.41.174 3.354 1.907 3.354 1.907s3.093 1.935 3.692 3.2c2.523 5.33 8.438 6.19 8.438 6.19l-7.158 2.147s-4.258 3.59-1.14 6.262c3.118 2.672 15.364 14.25 26.94 13.805 11.58-.445 25.16-2.45 25.16-2.45l2.497-3.903 1.587-.633s4.6-8.245 4.282-12.05c-.318-3.807.634-7.93-.318-13.322" fill="#F5F5F5" mask="url(#b)"/></g><path d="M471.075 195.43s-3.73 3.13-4.813 5.535l-2.045-2.406s2.767-1.083 4.212-2.888c1.442-1.805 2.162-3.73 2.162-3.73l.483 3.49z" fill="#F5F5F5"/><path d="M502.945 260.767s-3.956-1.978-5.82-2.56c-1.865-.582-10.01-2.33-12.688-4.308-2.68-1.98-8.614-5.82-8.614-5.82l-2.703-2.356s-.483-.84-6.98-5.172c-6.495-4.333-16.965-4.814-16.965-4.814-.48.242-9.024 7.702-9.867 9.263-.842 1.565 2.408 20.34 2.408 20.34l.703 3.344s2.08 12.566 2.97 18.357c.893 5.792 2.45 12.47 1.115 20.263-1.335 7.793-1.56 14.474-2.004 21.152-.444 6.68-1.113 23.377-2.67 25.382-1.558 2.005-7.124 4.678-15.14.67-8.016-4.01-9.573-4.007-16.253-15.808-6.68-11.803-9.096-15.45-9.096-15.45 0-3.103 1.435-77.538 1.435-77.538s-2.864-2.385-2.625-4.532c0 0-4.53-2.624-4.056-7.635 0 0-3.102-15.745-5.25-16.938-2.146-1.194-8.348.476-9.78-1.91-1.432-2.383-3.58-6.202-2.386-9.066 1.193-2.86 4.534-9.302 4.534-9.302s6.725-6.677 11.272-6.12c.113.016.234.012.346.036 4.542.957 7.653 4.066 5.26 8.85-3.142 6.293-5.978 7.415-5.978 7.415l11.72 10.764s8.37-3.35 11.003-5.264c2.63-1.912 11.483-8.85 15.31-3.108 3.828 5.74-1.436 8.372-1.436 8.372l-12.678 8.612s-.48 3.585 2.152 1.912 15.31-13.635 17.94-13.875l.463-.083c3.97-1.322 6.978 4.332 6.978 4.332l14.318 4.333s4.454 1.323 8.062.843c3.608-.48 5.294.358 5.294.358 1.204-2.766.573-4.554.573-4.554s-1.284-.19-2.016-.26c-1.324-.12-3.49-6.615-3.49-6.615s-3.37 5.293-5.897 2.046c-1.154-1.484-3.73-6.62-3.73-6.62.603 1.565-2.887 3.61-4.812 4.694-1.925 1.083-5.777-5.535-5.777-5.535s-2.283-4.09-2.766-7.1c-.483-3.007-2.045-4.57-2.045-4.57s-4.21 2.645-7.82 5.653c-3.612 3.008-6.017 2.768-6.017 2.768l-4.09-3.73c-.24-1.084 2.646-4.212 4.813-6.377 2.166-2.165 4.21-6.016 7.46-8.06 3.25-2.047 18.288-7.34 18.288-7.34s4.933-4.09 6.98-4.452c2.044-.362 22.98 9.144 22.98 9.144l2.507 1.073 4.352 2.177 1.946.918s6.173 1.517 8.383 6.752c2.21 5.237 8.73 19.904 11.873 24.444 3.142 4.54 9.54 15.25 11.522 15.83 1.98.582 4.19.93 4.19.93 0 .002 7.568 3.145 8.847 7.218 0 0 21.183 15.946 25.604 19.44 4.425 3.49 38.763 31.195 47.375 33.87 8.616 2.675 17.81 2.795 22.58 8.264 4.776 5.47 11.062 12.923 8.734 39.23 0 0-11.872 32.24-41.204 15.363 0 0-25.956-13.618-42.603-34.803-16.644-21.183-29.446-37.476-32.822-40.387-3.376-2.91-11.676-9.46-11.676-9.46 0 .002-3.554-.17-4.972-1.2-1.238-.897-7.097-6.916-7.563-11.688" fill="#F5F5F5"/><g fill="#E4E4E1"><path d="M491.486 98.596c-.567-.488 5.827 1.116 19.875-6.547 7.333-4 18.693-22.094 18.767-21.664.074.43-7.908 16.075-18.913 23.163-11.88 7.65-19.16 5.534-19.728 5.046M475.823 205.81c-.773-1.548.772-2.064 2.58-3.352 1.806-1.288 2.836 1.288 2.836 1.288s0 3.094.772 3.353c.773.257 2.58 4.9 3.87 5.93 1.29 1.03 8.768 9.542 8.768 9.542-2.062 1.546 0 6.707 2.576 19.34 2.577 12.636 3.473 17.775 3.473 17.775-1.216-.56-2.652-1.192-3.575-1.48-.415-.127-1.142-.316-2.05-.55 0 0 2.15-10.068 1.12-14.195-1.03-4.13-4.897-15.99-4.124-21.148l-12.895-11.605s2.577 4.123-2.58 7.22c0 0 1.81-4.126 1.034-6.447 0 0-1.035-4.126-1.807-5.673M482.527 191.11c-2.065-1.29-3.87.773-5.415 1.805-1.545 1.03-3.61.774-3.61.774s2.062-1.807 5.672-3.61c3.61-1.807 3.094.772 6.19 1.546 3.096.772 7.875 4.625 7.875 4.625.804.395 1.653.85 2.438 1.307 3.096 1.806 6.706 3.094 6.706 3.094l-7.075-13.494c1.63.544 5.974 2.348 7.75 6.56 2.21 5.24 8.73 19.906 11.873 24.445 3.142 4.54 9.54 15.248 11.522 15.83 1.98.582 4.19.932 4.19.932s7.568 3.142 8.847 7.215c0 0 21.183 15.947 25.604 19.44 4.425 3.49 38.763 31.195 47.375 33.87 8.616 2.677 17.81 2.795 22.58 8.266 0 0-12.49 4.218-23.32-.938s-26.046-12.638-34.558-21.92c-8.51-9.283-53.124-37.652-60.087-52.352-6.962-14.7-10.83-21.663-14.442-23.983-2.55-1.64-6.774-4.18-9.67-6.26 0 0-8.382-5.86-10.446-7.15M459.62 175.33c-1.886 1.266-3.706 2.775-3.706 2.775s-4.335 3.98-6.397 6.3c-2.063 2.32-5.157 5.414-5.415 7.737-.258 2.32 1.545.515 2.32-1.547.776-2.063 3.872-5.416 5.418-6.705 1.546-1.29 7.735-7.222 7.735-7.222l.046-1.338zM474.234 177.702c-2.505-1.056-5.004-2.073-7.033-2.826 0 0 .112 1.535-1.436 3.856-1.548 2.32-4.38 5.415-6.704 7.736-2.323 2.32-5.417 5.674-5.675 9.026-.258 3.353 3.87 10.315 3.87 10.315s.516-2.065-1.033-5.16c-1.548-3.093-2.064-6.703.774-9.282 2.838-2.58 7.734-6.963 8.51-8.77.775-1.804 3.352-4.64 4.64-4.9 1.29-.256 4.088.004 4.088.004M414.705 228.762c-.775.26-5.156 5.158-8.51 5.158-3.355 0-6.707-1.806-7.738-3.868-1.03-2.062-1.804-7.222.517-8.77 0 0-3.355 1.804-3.355 3.61 0 1.807 2.317 8.514 4.64 9.028l5.418 1.546s-2.58 5.158-.258 6.706c2.32 1.548 4.64 3.094 8.51 2.063 3.87-1.032 9.542-2.58 9.542-2.58s11.605-6.704 12.636-7.735c1.032-1.03 4.903-5.158 4.128-4.9-.775.26-5.16 3.35-6.19 4.125-1.03.775-7.48 4.9-9.8 6.19-2.32 1.29-7.478 4.644-10.058 3.354s-4.128-5.16-3.87-6.966c.26-1.804 1.033-3.352 3.612-4.383 2.58-1.03 5.933-1.288 4.127-1.547-1.807-.26-3.352-1.03-3.352-1.03M402.724 248.36l.05-2.578s12.703 6.187 16.313 6.704c3.61.517 8.51-.515 8.51-.515s.776 1.03-1.03 1.805c-1.807.775-11.09-1.03-13.41-1.804-2.322-.77-5.157-1.805-3.353.775 1.805 2.58 7.48 9.285 5.932 10.057-1.548.774-5.932-4.643-7.48-6.447-1.548-1.805-5.532-7.994-5.532-7.994M385.807 197.963c-1.507 1.696-7.13 7.67-7.13 7.67 1.193-2.863 4.534-9.305 4.534-9.305s6.727-6.677 11.274-6.12c.113.016.234.013.345.036.05.01.1.022.15.034 0 0-7.666 5.988-9.173 7.685"/></g><g fill="#D1D1CC"><path d="M510.975 271.94c-1.512.232-7.564-6.4-8.03-11.173M505.024 262.173c1.54 1.715 4.943 3.08 6.487 2.396 1.544-.685 9.603-4.674 12.51-12.915 1.408-3.992-.577-9.342 2.307-12.34 2.572-2.673 4.577-1.993 3.89-3.02-.684-1.03-3.762-2.305-3.762-2.305 1.98.582 4.19.932 4.19.932s7.568 3.143 8.847 7.216c0 0 2.12 3.384 1.604 6.127 0 0 .172 5.313-5.312 7.542 0 0-4.144 6.583-8.534 10.61-5.45 4.998-11.77 7.24-11.77 7.24s-3.554-.172-4.972-1.2c-1.238-.9-7.097-6.918-7.563-11.69l2.08 1.406z"/></g><path d="M530.39 243.063c-1.347 1.42 1.12 6.863 1.965 7.355.846.494 4.486 3.307 6.348-.826 1.707-3.784-2.678-6.914-2.678-6.914s-2.375-3.06-5.636.385zm3.173-4.9l-1.143 1.047 6.163 4.166s1.705-.72 1 5.132c-.71 5.852-6.107 4.29-6.107 4.29-4.237-1.565-5.23-5.775-5.23-5.775-.54.73-.678 4.274-.678 4.274l-.808-.23s-.742-6.944.88-10.05c1.293-2.485 5.203-3.335 5.203-3.335l.72.48z" fill="#F5F5F5"/><g fill="#D1D1CC"><path d="M396.684 197.584s-3.453 2.466-5.18 1.233c-1.727-1.233-2.715-4.932 2.96-7.4 0 0 .74 5.675 2.22 6.167M432.206 214.605c.78 0-5.675 3.453-5.675 3.453s-6.165-1.974-3.204-6.167l4.44-2.466s1.48 5.18 4.44 5.18M437.88 216.084l-3.947 3.207s.493 6.166 3.946 4.688c1.726-.74 4.44-3.454 4.44-3.454s.246-5.427-4.44-4.44M444.293 231.133s1.48-4.194 2.466-4.194c.987 0 4.193.738 4.193 1.725l-3.206 3.947s-2.713.497-3.454-1.48M430.166 193.507c-1.328 1.327-2.928 3.018-3.912 4.375 0 0 3.733 2.17 4.472-1.284.74-3.453-.56-3.09-.56-3.09M473.813 219.15s-1.284-.19-2.017-.258c-.94-.085-2.303-3.384-3.015-5.29 0 0 2.152-1.218 3.633 1.25 1.48 2.466 1.4 4.3 1.4 4.3M465.945 214.78c-1.094.736-2.4 1-3.535-.458-.722-.927-1.997-3.28-2.855-4.914 0 0 1.758-.478 3.485 1.25 1.727 1.727 2.905 4.123 2.905 4.123M448.092 206.86s1.93 3.32 3.74 4.873c0 0 3.317-1.815.85-3.79-2.47-1.972-4.59-1.082-4.59-1.082"/></g><g fill="#F5F5F5"><path d="M524 607.506c-3.544-.34-13.61-1.017-24.212.97-13.19 2.473-68.417.824-76.66.824-6.02 0-14.678 1.758-18.91 2.707 0 0 .692 5.34 1.722 12.8h116.716c.783-9.863 1.343-17.3 1.343-17.3M644.042 601.88s-54.404 12.366-79.133 12.366c-16.767 0-27.472.002-33.652-2.055-.734-.243-1.494-1.265-2.012-.82-1.45 1.242-1.35 6.593-.486 13.436h109.492c3.25-13.296 5.79-22.925 5.79-22.925"/></g><path d="M398.872 475.484c2.056 3.3 4.38 6.42 4.38 6.42s.817.436 10.37 8.395c9.555 7.96 46.97 17.515 56.523 19.372 9.554 1.858 43.786 7.166 64.22 6.9 20.432-.266 52.01 2.918 61.83 1.06 9.817-1.857 16.185-3.713 26.004-9.553 9.82-5.84 11.147-7.43 16.452-9.552 2.654-1.063 6.32-3.405 9.325-5.482 0 0 5.957 18.16 5.957 24.755 0 6.597.824 24.73 3.296 28.853 2.473 4.122 1.653 31.324 3.3 37.094 1.647 5.77 2.472 14.838 2.472 14.838l-18.96 5.77s-54.404 12.363-79.133 12.363c-24.73 0-36.27.003-39.568-6.592 0 0-12.365-1.65-25.554.823-13.19 2.472-68.417.823-76.66.823-8.244 0-21.433 3.3-21.433 3.3s1.65-27.206 0-40.395c-1.65-13.187-3.296-35.44-2.472-46.16.823-10.717-4.947-25.555-3.298-31.323 1.648-5.77 2.947-21.71 2.947-21.71" fill="#F5F5F5"/><g fill="#E4E4E1"><path d="M589.677 518.18c-6.726.175-16.292-.28-26.31-.755 0 0-23.665 8.12-34.726 8.5-11.06.383-30.517-1.525-30.517-1.525s-45.396-6.485-52.262-5.72c-6.865.762-19.455 9.535-19.455 9.535s18.693-5.342 36.623-1.525c17.93 3.815 33.187 9.54 40.436 13.733 7.248 4.195 9.156 8.01 9.156 8.01s-47.303-2.29-59.51-3.815c-12.208-1.526-30.137-4.958-30.137-4.958s18.69 9.54 30.137 11.445c11.444 1.905 40.817 3.05 51.88 6.102 11.063 3.052 15.26 4.198 15.26 4.198s27.083-1.527 40.435-3.816c13.352-2.29 26.705-6.867 32.807-9.538 0 0-59.128 1.145-67.52.382-8.393-.764-10.302-4.197-6.868-4.197 3.434 0 23.27-3.432 26.704-8.393 3.433-4.96 12.21-9.154 18.31-10.68 6.104-1.527 25.56-6.985 25.56-6.985M657.23 546.653c-1.418-2.36-2.292-9.326-2.78-16.084 0 0-12.89 44.95-13.654 50.29-.763 5.338 3.814-.767 6.103-7.25 2.288-6.485 10.33-26.957 10.33-26.957M511.476 609.665c7.98-.324 13.865.46 13.865.46.702 1.404 1.78 2.51 3.276 3.38l-2.646-29.214s13.734 8.396 24.032 6.87c10.3-1.527 8.396-2.672 8.396-2.672s-15.26-2.292-21.364-3.816c-6.104-1.524-11.827-5.72-11.827-5.72l-1.908-8.392s11.063 4.958 22.125 4.958c11.065 0 17.167-3.05 17.167-3.05s-16.786-1.528-22.888-2.29c-6.104-.764-17.93-4.58-17.93-4.58s-11.825.382-23.27 1.145c-11.445.764-43.87 1.908-43.87 1.908s3.434 3.817 17.548 3.817c14.114 0 35.477.382 41.2.382 5.72 0 7.63 1.522 8.393 3.048.763 1.527-.382 4.58-.382 4.58s-27.85 8.01-31.663 8.773c-3.815.765 5.34 1.91 14.114 1.145 8.776-.762 13.353-.762 13.353-.762l-5.72 20.032z"/></g><g fill="#F5F5F5"><path d="M474.084 117.704c.483 13.117 2.164 16.365 3.608 22.14 1.445 5.776 6.257 19.49 8.784 26.23 2.526 6.74 1.685 17.686 1.685 17.686l4.572 2.286s8.303-16.123 11.55-22.74c3.25-6.617 10.108-14.2 12.757-17.447 2.65-3.25 8.662-13.117 8.662-13.117l-.6-1.553 7.125-12.914s-13.58 2.005-25.16 2.45c-11.577.446-23.823-11.133-26.94-13.805-3.118-2.67 1.115-6.244 1.115-6.244-.915-.13-3.384-.263-5.564 1.483l-2.16 1.162s.084 1.266.566 14.382"/><path d="M401.34 323.25c0 3.103-.236 3.1-1.19 6.92-.954 3.816 12.406 20.992 19.086 28.15 6.68 7.158 18.368 8.348 18.368 8.348s-8.588 37.935-10.495 39.128c-1.91 1.192-6.206 6.2-8.83 11.688-2.626 5.487-11.928 22.664-13.836 29.108-1.908 6.443-7.636 19.324-8.59 21.708-.954 2.384 7.397 13.603 7.397 13.603s.82.438 10.373 8.397c9.554 7.96 46.97 17.515 56.523 19.373 9.553 1.857 43.785 7.165 64.218 6.9 20.433-.266 52.01 2.917 61.83 1.06 9.818-1.858 16.186-3.714 26.005-9.554 9.82-5.84 11.147-7.43 16.453-9.552 5.305-2.123 14.668-9.368 14.668-9.368.694-2.11 2.44-7.655 2.82-11.077.477-4.294-1.908-10.02 1.43-17.893 3.34-7.873-1.67-9.065-1.67-10.498 0-1.43-4.055-9.78-5.487-15.028-1.43-5.248 1.194-3.818 2.386-7.873 1.192-4.054.238-3.102-4.534-9.064-4.772-5.963-7.395-17.417-9.305-21.236-1.91-3.817.24-4.293.72-9.54.475-5.25-2.865-10.738-2.865-10.738s4.532-.478 13.838-7.397c9.304-6.92 10.495-12.406 14.79-20.278 4.297-7.873 2.863-14.553 2.863-14.553 5.25-4.533 5.965-17.177 5.965-22.186 0-5.01 1.91-10.976 6.444-38.65 4.53-27.672 5.965-93.282 6.44-101.632.476-8.35-.954-24.574-.24-35.07.716-10.497-6.44-15.03-11.212-20.04-4.77-5.01-17.414-4.533-21.95-6.68-4.53-2.147-21.946-12.168-25.525-14.076-3.58-1.908-8.27-.924-8.27-.924s-15.98 2.265-27.853 5.99c-11.872 3.725-48.073 14.9-54.008 16.297l-8.964 16.644-1.63.348s-6.63 9.778-9.658 13.502c-3.028 3.726-8.963 12.107-11.64 16.88-2.678 4.77-11.525 22.58-11.525 22.58s6.172 1.514 8.382 6.75c2.21 5.238 8.73 19.905 11.872 24.444 3.14 4.54 9.54 15.248 11.52 15.83 1.982.582 4.193.932 4.193.932s7.566 3.142 8.845 7.216c0 0 21.184 15.946 25.605 19.438 4.425 3.492 38.763 31.196 47.375 33.872 8.614 2.676 17.808 2.794 22.58 8.265 4.774 5.47 11.06 12.922 8.732 39.228 0 0-11.872 32.244-41.204 15.366 0 0-25.956-13.62-42.602-34.803-16.645-21.184-29.447-37.478-32.823-40.388-3.375-2.91-11.675-9.46-11.675-9.46s-3.553-.17-4.97-1.2c-1.24-.897-7.1-6.916-7.565-11.687 0 0-3.956-1.98-5.82-2.56-1.864-.583-10.01-2.33-12.687-4.31-2.68-1.977-8.615-5.817-8.615-5.817s-2.326 15.13-2.093 18.623c.23 3.492.308 41.94-11.807 35.315-11.377-6.224-10.767-14.128-12.638-19.134-4.01-10.733-6.866-14.2-6.866-14.2s2.08 12.567 2.972 18.358c.89 5.79 2.45 12.47 1.113 20.262-1.335 7.793-1.56 14.472-2.004 21.152-.443 6.68-1.112 23.377-2.67 25.382-1.557 2.004-7.124 4.678-15.14.67-8.015-4.01-9.573-4.008-16.252-15.81-6.68-11.802-9.097-15.448-9.097-15.448M408.262 182.73s2.864-35.786 5.01-41.75c2.148-5.965 2.387-9.066 6.68-13.6 4.294-4.532 10.497-6.68 12.167-9.065 1.67-2.386 3.103-2.387 8.59-3.818 5.487-1.43 8.587-4.056 13.12-5.487 4.533-1.43 18.132-5.25 18.132-5.25s-.285 14.183.558 19.117c.843 4.934 5.055 24.066 8.18 31.646 3.13 7.58 6.858 20.335 5.174 28.275 0 0-20.935-9.507-22.98-9.145-2.046.36-6.98 4.452-6.98 4.452s-15.038 5.293-18.29 7.34c-3.25 2.045-5.293 5.896-7.46 8.06-2.165 2.166-5.05 5.294-4.81 6.378L408.26 182.73z"/><path d="M468.307 212.276s2.166 6.496 3.49 6.616c.732.07 2.016.26 2.016.26s.63 1.787-.574 4.555c0 0-1.687-.84-5.295-.36-3.61.48-8.062-.842-8.062-.842l-14.318-4.333s-3.01-5.655-6.98-4.332l-9.142-10.227s2.405.24 6.015-2.768c3.61-3.007 7.82-5.654 7.82-5.654s1.563 1.565 2.046 4.572c.483 3.008 2.767 7.1 2.767 7.1s3.853 6.617 5.778 5.534c1.924-1.083 5.415-3.128 4.813-4.692 0 0 2.575 5.135 3.73 6.618 2.528 3.247 5.897-2.046 5.897-2.046M473.12 245.725s-.604 4.093-.963 10.108c-.36 6.017.258 8.573-.144 13.442-.387 4.675-.64 8.593-1.122 14.127-.48 5.535-1.75 13.91-4.037 15.475-2.287 1.565-4.923 1.835-6.97-.21-2.044-2.046-5.172-4.212-6.616-8.904s-3.73-12.393-6.015-16.605c-2.287-4.212-5.535-7.82-5.535-7.82s-3.25-18.774-2.41-20.337c.844-1.56 9.388-9.02 9.87-9.262 0 0 10.468.48 16.964 4.813 6.498 4.333 6.98 5.174 6.98 5.174M464.217 198.558s2.768-1.082 4.212-2.887c1.442-1.803 2.162-3.728 2.162-3.728l.483 3.488s-3.728 3.128-4.813 5.534l-2.045-2.406z"/></g><g fill="#E4E4E1"><path d="M530.03 122.26l2.196-3.983s-13.58 2.004-25.16 2.45c-11.576.445-23.822-11.134-26.94-13.805-3.118-2.673 1.116-6.246 1.116-6.246-.915-.13-3.384-.263-5.565 1.483l-2.16 1.162s.072 1.066.453 11.364l5.236-.585s4.77 3.725 7.15 4.47l-12.182 1.192c.123 2.41.287 4.458.485 6.235 0 0 6.48-.724 11.844-1.618 5.364-.894 8.194-1.49 14.004-1.49 5.81 0 8.79.745 15.642.447 6.854-.298 13.88-1.078 13.88-1.078M524.228 135.13c.887-1.422 1.474-2.385 1.474-2.385l-.602-1.554 1.91-3.46s-1.772 1.118-9.817 1.715c-8.044.597-9.833.597-15.494.298-5.66-.298-3.872 0-12.216 1.043s-13.642 2.15-13.642 2.15c.586 2.476 1.24 4.466 1.85 6.908 0 0 10.3-1.61 16.856-2.355 6.557-.746 13.855-1.34 18.62-1.64 4.77-.298 11.06-.72 11.06-.72M513.047 150.634c1.623-1.97 3.065-3.638 3.992-4.774.658-.81 1.528-2.03 2.46-3.404 0 0-12.587.843-16.31 1.44-3.724.595-8.195.892-13.855 1.49-5.66.596-9.598 1.365-9.598 1.365.78 2.424 1.674 5.09 2.584 7.723 0 0 8.355-1.042 14.165-1.787 5.81-.745 8.64-2.087 11.918-2.236 3.278-.148 4.644.184 4.644.184M502.307 167.276c.756-1.507 1.437-2.87 1.976-3.97.73-1.486 1.64-3.02 2.644-4.545 0 0-2.1 1.075-5.972 1.372-3.874.3-5.513.3-10.13.597-4.62.296-6.077.635-6.077.635.638 1.765 1.227 3.374 1.727 4.71.292.78.538 1.62.746 2.49 0 0 2.71-.536 6.584-.983 3.874-.447 8.503-.306 8.503-.306M494.075 183.433c1.077-2.095 2.678-5.217 4.347-8.487l-10.186 1.71c.125 2.985.02 5.507-.042 6.567l5.88.21zM653.557 488.433c-.087.272-26.125-.558-34.47-.558-8.34 0-50.05-.596-60.63-.596-10.577 0-30.39-1.938-42.307-2.98-11.918-1.045-30.39-5.216-35.604-6.406-5.214-1.19-19.22-2.533-23.985-4.767-4.767-2.233-13.258-4.767-17.728-5.067-4.47-.298-6.704-4.17-7.747-5.81-1.044-1.64-7.15-4.32-11.022-5.957-3.87-1.637-6.854-5.065-6.854-5.065s-1.49 4.47-1.49 5.512c0 1.043.596 2.98 5.213 4.916 4.618 1.936 5.96 3.424 9.088 5.214 3.13 1.79 7.748 6.108 10.43 7.894 2.68 1.787 8.193 1.938 14.003 2.68 5.81.745 5.362 2.385 10.128 4.32 4.77 1.938 32.18 5.962 36.65 6.856 4.472.892 25.92 3.873 45.288 5.212 19.366 1.34 44.393.745 50.503.298 6.105-.447 17.133.3 26.517.897 9.384.596 22.048.297 22.048.297s-8.94 3.573-12.664 5.363c-3.722 1.79-7.297.594-12.81-.15-5.513-.744-15.342-.296-23.09-.744-7.746-.447-11.47 1.34-17.877 2.83-6.404 1.49-26.368-.596-33.667-.745-7.3-.15-27.71-3.277-37.094-4.32-9.385-1.044-41.864-8.49-44.842-8.938-2.977-.447-4.917-2.534-8.193-3.127-3.277-.596-16.535-4.62-18.473-5.365-1.936-.743-8.49-8.044-11.323-8.344-2.832-.298-10.277-6.85-11.468-8.64-1.19-1.79-1.79-4.317-.45-7.896 1.34-3.575-5.19-8.656-5.19-8.656-.465 1.574-1.16 3.533-1.955 5.63 0 0 3.572 8.24 6.402 14.2 2.83 5.962 14.3 13.407 16.834 15.79 2.533 2.384 8.49 4.47 14.6 6.558 6.106 2.086 13.853 4.32 21.3 6.703 7.45 2.383 33.818 7.15 40.37 8.34 6.556 1.192 20.263 1.788 32.777 3.278s19.218.3 25.922.6c6.704.296 22.345-1.195 26.965-1.195 4.62 0 6.407.447 12.068-1.488 5.66-1.933 11.47-1.64 15.194-2.236 3.724-.595 5.064.002 5.064.002s-5.364 2.978-12.512 7.15c-7.153 4.17-20.262 4.766-24.582 5.513-4.32.747-20.708-.896-27.412-.896-6.704 0-26.815-1.788-33.667-2.68-6.85-.895-21.154-1.34-31.136-2.682-9.98-1.34-36.2-7.896-53.032-13.11-16.833-5.214-28.456-18.322-30.986-21.303-2.532-2.98-8.23-12.543-8.23-12.543-1.22 2.888-2.22 5.2-2.573 6.078-.954 2.384 7.397 13.604 7.397 13.604s.82.437 10.372 8.396c9.554 7.96 46.97 17.516 56.523 19.373 9.554 1.858 43.785 7.165 64.22 6.9 20.43-.266 52.01 2.918 61.83 1.06 9.816-1.857 16.184-3.714 26.004-9.553 9.818-5.84 11.146-7.43 16.452-9.55 5.305-2.124 14.668-9.37 14.668-9.37M443.93 271.014c-.958-1.66-1.512-2.33-1.512-2.33s.156.932.397 2.407l1.115-.076zM443.82 277.2c.343 2.097.7 4.31 1.017 6.287l5.204 1.956c-.23-.913-.46-1.772-.755-2.56-.518-1.378-1.015-2.64-1.487-3.786l-3.978-1.896zM492.91 263.073c7.302.447 11.504 1.91 11.504 1.91-.77-1.407-1.336-2.86-1.47-4.216 0 0-3.955-1.978-5.82-2.56-1.64-.514-8.16-1.932-11.52-3.615l-10.423-2.137c-.32 2.272-.7 5.107-.995 7.698l18.726 2.92zM504.976 273.5c-5.214-.745-10.428-1.786-16.685-3.126-6.256-1.34-14.52-2.533-14.52-2.533.028 1.49.024 4.07-.102 7.173 0 0 16.56 2.51 24.753 4.002 8.196 1.49 30.203 5.556 30.203 5.556-.6-.64-1.093-1.13-1.468-1.455-2.39-2.06-7.25-5.943-9.882-8.034 0 0-7.083-.833-12.297-1.58M529.855 293.763c-4.468-.597-33.667-6.257-38.138-7.3-4.47-1.044-18.63-3.18-18.63-3.18-.27 2.58-.633 5.192-1.13 7.63 0 0 11.12 1.807 14.697 2.404 3.576.596 17.578 3.426 20.558 3.873 2.98.447 12.96 2.53 19.216 3.574 6.257 1.044 7.15 1.34 11.62 2.236 4.47.897 6.93 1.46 6.93 1.46-2.703-3.408-5.18-6.51-7.383-9.238 0 0-3.27-.862-7.74-1.46M549.52 314.47c-1.19-.447-4.172-1.34-9.534-2.682-5.362-1.34-7.45-1.936-12.218-2.233-4.767-.298-12.215-2.533-17.726-3.427-5.51-.893-23.09-4.17-26.965-4.767-3.873-.596-13.874-2.07-13.874-2.07-1.722 3.077-4.074 4.48-7.28 2.728-3.46-1.892-5.81-3.94-7.46-6.014l-8.154-3.29c.388 2.573.704 5.302.714 8.2 0 0 15.943 5.064 16.39 5.064 4.195 0 8.79 2.087 13.855 2.98 5.065.894 14.298 1.787 19.662 3.127 5.363 1.34 23.24 5.364 28.902 6.407 5.663 1.043 10.873 1.49 16.982 2.087 6.108.595 8.342 2.382 11.62 3.574 3.275 1.19 6.88 1.016 6.88 1.016-.45-.55-.9-1.106-1.34-1.667-2.25-2.866-4.43-5.643-6.53-8.31 0 0-2.733-.278-3.926-.724M563.97 333.984c-2.98 0-8.49-2.53-14.302-3.574-5.81-1.043-8.343-2.384-17.28-2.98-8.938-.596-19.516-4.17-23.836-4.915-4.32-.744-25.622-4.62-29.496-4.767-3.873-.147-9.533-1.193-13.557-2.383-4.024-1.192-19.357-5.804-19.357-5.804-.376 2.532-.647 4.95-.855 7.302 0 0 4.273 1.48 6.953 1.927 2.68.446 7 1.34 12.662 3.425 5.662 2.084 15.793 3.427 18.772 4.17 2.98.745 18.473 3.578 24.282 4.918 5.81 1.34 14.75 2.534 21.155 3.577 6.405 1.043 15.493 2.084 18.92 2.084 3.427 0 7.15 1.043 11.024 3.13 3.87 2.086 9.685 1.937 12.813 2.234 3.126.297 3.276.297 6.254 1.787 2.98 1.49 4.465 1.11 4.465 1.11-4.27-3.255-8.814-7.052-13.186-11.316 0 0-2.45.074-5.428.074M665.57 112.165c-4.628-.893-9.388-1.29-11.817-2.44-1.242-.587-3.45-1.766-6.074-3.208"/><path d="M627.434 103.077c-5.066-.595-12.964-2.384-12.964-2.384s4.47-1.936 7.004-2.085c2.533-.148 2.384 1.787 6.854 1.787 4.467 0 3.127.298 6.404 1.788s8.457 1.848 8.457 1.848c-6.17-3.443-12.89-7.274-14.964-8.38-3.58-1.908-8.27-.924-8.27-.924s-15.98 2.265-27.853 5.99c-11.872 3.725-48.072 14.9-54.008 16.297l-2.124 3.944s2.526-.15 8.634-1.64c6.11-1.488 4.022-.894 9.982-1.638 5.958-.745 3.87-.15 9.085.147 5.218.3 3.875.447 9.985 1.937 6.107 1.49 7.3 1.49 11.62 2.83 4.32 1.34 13.107 2.235 16.683 2.235 3.578 0 4.32.297 9.238 1.49 4.915 1.19 5.36 1.488 9.978 2.382 4.62.894 4.323 2.98 7.154 4.47 2.83 1.49 3.424.15 6.554.15 3.125 0 2.38 1.042 4.617 2.084 2.236 1.042.893-1.936 1.636-3.724.746-1.787 2.236-1.49 7.304-2.83 5.063-1.34 8.04-1.937 14.15-1.788 6.106.148 6.853.744 11.023 1.34 4.174.597 6.407 1.043 9.535 2.832 3.13 1.788 3.793 2.83 3.793 2.83-.037-.82-.13-1.6-.265-2.343 0 0-2.928-2.127-6.358-4.66-3.424-2.53-4.914-5.51-11.47-5.958-6.556-.447-7.3-1.044-12.96 0-5.66 1.043-4.322-.448-7.153 1.64-2.83 2.084-3.873 3.723-5.21 4.17-1.344.447-.3 0-2.832-.298-2.533-.298-2.086.448-4.173.298-2.088-.15-1.488-.15-5.812-1.638-4.317-1.49-1.636-3.13-6.703-3.28-5.064-.147-5.81 1.193-7.894 0-2.084-1.19-8.044-2.978-15.49-4.468-7.45-1.49-8.048-.746-14.303-2.086-6.257-1.34-8.788-2.53-11.472-2.98-2.682-.447-3.725-1.34-3.725-1.34l11.918-3.874s7.896 1.64 13.707 2.98c5.81 1.34 13.257 3.13 16.387 4.022 3.128.894 7.152 2.98 9.832 2.98 2.68 0 7-1.342 9.238-.448 2.23.895 4.317 2.235 6.85 2.682 2.533.447 2.384-1.342 4.768-.298 2.384 1.043 4.47 1.937 4.47 1.937l5.36-4.023s-2.83-2.234-5.36-2.383c-2.534-.15-4.32-1.043-7.3-1.34-2.98-.3-5.81-1.79-7.896-1.49-2.086.297.295.893-5.81-.15-6.11-1.043-12.214-2.682-13.707-2.682-1.488 0-6.108-1.638-9.085-1.937-2.98-.297-8.79-2.68-8.79-2.68l9.384-2.234s12.664 2.234 17.728 3.277c5.064 1.043 9.534 1.64 14.75 2.235 5.213.595 7.746 1.19 11.47 2.086 3.723.893 5.81 1.04 8.044 2.233 2.234 1.192 2.533 2.682 3.277 2.98.744.3 4.767-.596 4.767-.596s0-1.935-1.937-2.233c-1.937-.298-3.87-.894-6.404-1.937-2.533-1.043-7.297-3.425-10.727-4.022-3.424-.596-12.808-2.385-14.598-2.533-1.79-.15-4.02-.598-4.02-.598"/><path d="M670.932 135.704c-4.467-.595-10.428.298-14.896-.15-4.47-.445-5.96 2.087-9.534 2.832-3.576.745-6.704 1.935-9.534 3.425-2.83 1.492-8.493.448-11.62-.297-3.128-.745-10.578-5.362-12.365-6.256-1.79-.893-3.13-1.49-7.447-1.49-4.324 0-9.834-.447-15.048-1.34-5.214-.894-11.77-2.98-17.432-4.47-5.66-1.49-9.682-2.532-12.81-2.98-3.128-.446-8.195.15-12.96.596-4.768.447-14.413 1.134-14.413 1.134l-3.742 6.95-1.628.348s-.236.35-.642.942c0 0 9.997-2.37 16.552-2.67 6.556-.297 7.3-1.34 14.302-1.04 7 .297 4.767-.3 8.638 1.786 3.874 2.085 14.898 3.13 19.516 4.767 4.617 1.64 10.28 2.235 15.644 2.98 5.363.745 6.107 1.04 9.98 1.34 3.875.298 2.83.447 5.662 2.383 2.83 1.937 6.407 4.62 9.534 4.767 3.127.15 6.554.15 6.554.15 3.724.147 1.79-1.043 5.364-1.79 3.574-.743 3.723-.595 7-1.34 3.278-.745 1.64-1.192 4.918-2.68 3.276-1.49 6.257-.298 12.512-.298 6.256 0 5.66.148 10.876.446 5.217.298 2.83.745 7.598 1.79 4.767 1.04 5.216.595 5.216.595-.026-2.172-.023-4.284.03-6.268 0 0-11.356-3.566-15.824-4.16"/><path d="M673.02 152.092c-5.367-.597-7.005-.596-11.175-.447-4.17.148-7.448.298-12.068.298-4.617 0-3.127-.15-5.064 1.49-1.936 1.638-4.32 2.234-8.788 4.022-4.47 1.788-4.767.744-9.385.297-4.617-.446-6.556-2.384-6.556-2.384-2.533-1.49-4.17-4.617-5.958-4.468-1.79.148-7.3-.447-9.384-.745-2.087-.298-12.964-2.085-18.325-3.426-5.366-1.34-15.642-5.513-18.027-6.556-2.382-1.043-5.212-1.34-9.085-1.043-3.874.297-9.387 1.937-11.175 1.79-1.788-.15-11.768.297-15.79.594-4.023.297-10.565.862-10.565.862-1.425 1.99-2.828 3.895-3.832 5.132-.536.662-1.164 1.468-1.85 2.376 0 0 5.818-.474 10.437-.92 4.62-.448 7.745-.894 12.513-1.043 4.766-.148 5.81-.894 9.683-.298 3.874.597 5.067.3 10.58-.596 5.51-.894 5.062-.595 9.533-.148 4.466.446 5.956 1.638 8.936 3.575 2.98 1.937 8.49 3.277 12.96 4.47 4.47 1.19 14.6 2.68 18.473 3.426 3.873.744 2.83.744 6.554 1.49 3.723.743 1.787 2.382 5.213 5.063 3.427 2.68 6.704 1.192 7.15.893.448-.298-.593 1.79-.593 1.79s.894-.3 2.978-.894c2.084-.596 1.79-.597 2.086-1.938.297-1.34.596 0 3.277-.596 2.68-.596 1.488-2.086 5.66-3.425 4.174-1.34 3.725-.3 8.938-.448 5.214-.148 5.96.15 13.41-.15 7.45-.298 7.893.3 13.407.746 5.513.447 10.02 2.753 10.02 2.753-.056-2.724-.16-5.687-.26-8.715 0 0-8.57-2.23-13.93-2.826"/><path d="M670.34 167.585c-7.6-.745-12.965.744-17.282.744-4.323 0-13.408.148-15.942 1.192-2.533 1.042-2.383 1.787-5.363 2.68-2.977.896-1.638.895-2.087 2.385-.446 1.49-.744 1.488-2.38 2.68-1.643 1.192-2.237.298-1.938-1.192.3-1.49-.596-1.488-2.68-1.936-2.087-.45-3.13-.45-4.62-1.49-1.49-1.042.297-2.086-2.978-3.427-3.28-1.34-4.767-.894-9.534-1.49s-10.428-5.064-12.514-4.916c-2.087.15-5.96-1.043-8.344-2.532-2.384-1.488-6.407-4.618-10.13-5.214-3.723-.594-5.81.15-10.576.45-4.767.296-7.747.445-12.96.147-5.215-.3-12.366-.148-18.623-.3-6.258-.148-10.578 1.194-15.943 2.088-5.363.895-5.96.146-5.96.146-1.68 2.486-3.233 4.915-4.284 6.786-.313.557-.712 1.297-1.17 2.165 0 0 8.734-2.094 13.352-2.987 4.617-.894 5.81-.894 9.534-.746 3.723.15 6.405.596 11.023-.148 4.618-.745 14.3-.3 17.43-.746 3.13-.446 9.832 1.34 13.854 1.34 4.023 0 6.11-.15 12.067.894 5.96 1.04 3.28 2.086 5.51 4.47 2.237 2.383 2.388 1.34 6.408 1.787 4.02.446 4.917 1.19 8.344 3.276 3.425 2.087 9.978 2.982 10.724 3.13.746.15 3.427.3 3.427.3s.447 2.978 1.49 3.426c1.043.448 4.17.446 4.17.446l.744 6.703s2.088-1.638 4.325-2.234c2.234-.594.744-1.936.893-3.574.148-1.64.148-1.788 1.787-1.788 1.64 0 1.34-.596 1.638-2.235.3-1.637 1.64-.298 3.576-.298 1.936 0 1.786-.297 3.723-1.638 1.937-1.34 5.364-.298 9.682-.446 4.323-.148 9.983.298 16.387.15 6.405-.15 8.342.445 14.153 1.638 5.81 1.19 7.553 2.682 7.553 2.682.14-4.095.247-7.052.326-8.434.007-.117.012-.234.017-.354 0 0-9.233-2.833-16.83-3.577"/><path d="M682.254 186.505c-3.13-1.936-8.64-1.64-18.024-2.087-9.385-.446-28.753-.297-30.24 0-1.494.297-1.788 1.342-3.43 1.342-1.638 0-1.488.743-2.084 2.83-.597 2.087-1.19 3.13-3.278 4.768-2.087 1.638-2.83 3.723-2.83 3.723l.743-5.213-6.85-2.235s.447-1.64-1.34-2.384c-1.79-.745-21.602-8.342-23.835-8.937-2.236-.595-2.087-2.98-4.323-5.51-2.234-2.533-3.574-1.045-9.382-1.045-5.81 0-5.96.597-11.175-.148-5.214-.746-17.43-.894-20.856-.746-3.428.15-13.706 1.045-19.665.895-5.957-.15-7.747.895-12.96 1.79-5.215.892-12.18 1.728-12.18 1.728-1.485 2.928-2.946 5.842-4.04 8.03 0 0 13.835-1.566 18.01-2.31 4.172-.746 6.85-1.79 10.723-2.98 3.873-1.193 11.77-.894 13.855-.3 2.085.597 6.852.598 11.767.3 4.915-.3 9.238-.596 12.218-.745 2.978-.15 11.618 1.788 14.302 1.788 2.68 0 7.447.893 7.447.893s7.152 1.638 7.745 1.936c.597.3 3.13 6.107 3.13 6.107s13.558 5.66 16.088 6.704c2.53 1.043 3.874 2.085 3.874 2.085l.447 1.64 6.408 2.83s.893-1.64 1.488-2.98c.596-1.34 1.043-1.936 1.342-2.978.3-1.042.744-.894 1.488-.597.746.3 1.64-1.19 2.535-2.235.895-1.043 3.277-1.042 7.45-1.19 4.167-.15 7.148.296 13.108.148 5.96-.148 8.49.447 13.854.447 5.365 0 16.835 1.937 19.367 2.533 2.534.594 3.06 2.83 3.06 2.83.106-2.783.203-5.43.29-7.896 0 0-1.116-.893-4.246-2.83"/><path d="M666.91 200.805c-7.448-1.49-15.046-1.787-21.6-2.085-6.554-.3-14.45.745-18.474 1.043-4.022.298-4.468 2.085-4.468 2.085v4.768s4.32-.448 7.747-.448c3.427 0 8.79.15 11.915.3 3.13.15 15.645 1.34 18.922 1.638 3.277.298 9.83 2.085 16.685 2.83 6.853.745 7.925 1.786 7.925 1.786.12-2.64.233-5.23.338-7.752 0 0-11.54-2.675-18.99-4.165"/><path d="M675.4 218.682c-8.788-1.937-8.788-2.384-16.98-3.13-8.193-.744-8.94-1.19-17.728-1.786-8.79-.595-21.75-.298-21.75-.298s-.745-5.513-.598-5.96c.15-.445-5.36-1.19-7.298-2.53-1.937-1.34-10.578-6.108-10.578-6.108l-3.426-7.3s-2.084-.448-4.914-1.193c-2.83-.745-5.514-1.34-9.238-3.723-3.723-2.384-6.554 0-11.47-1.193-4.917-1.19-5.81-1.19-9.982-.594-4.17.594-7.45 1.043-15.195.15-7.746-.895-8.49-.598-14.003.296-5.513.893-13.11 2.832-18.027 4.172-4.917 1.34-13.67.706-13.67.706 1 .925 1.91 2.086 2.518 3.528.27.636.6 1.407.982 2.282 0 0 8.087.486 14.342.486 6.254 0 4.173-.597 10.727-2.533 6.556-1.937 6.108-1.937 12.812-1.937 6.705 0 5.662-.148 12.066 1.342 6.407 1.49 7.153-.3 11.92-.896 4.767-.596 3.275.15 11.32 1.79 8.046 1.637 5.662 1.786 11.47 2.978 5.81 1.19 4.62 1.342 7.747 2.83 3.13 1.49 5.217.597 5.217.597l4.17 9.682s.744-.298-1.34-.298c-2.086 0-7.003-1.043-8.79-2.533-1.787-1.49-4.917-1.64-8.49-2.235-3.576-.595-8.942-3.575-12.07-4.767-3.13-1.192-9.533 1.34-11.02.894-1.49-.448-8.494-1.49-13.857-2.086-5.362-.595-11.024.894-16.09 1.788-5.062.892-12.065 2.234-16.535 2.085-4.47-.15-11.063-1.475-11.063-1.475.906 2 1.888 4.124 2.872 6.18 0 0 4.167-.683 8.487.956 4.32 1.64 4.62-.298 10.728.15 6.107.446 4.17-.596 9.384-1.49 5.213-.895 2.98-.298 9.683-.894 6.704-.597 7.15 0 11.32.297 4.172.3 8.196.596 14.75 1.34 6.554.746 3.873.15 8.044 2.086 4.17 1.935 6.108 3.426 9.83 4.022 3.725.594 8.198 1.64 11.772 3.13 3.573 1.487 7.746 2.68 7.746 2.68l-3.724-7.895s-.6-1.34.894-.448c1.487.893 5.064 2.532 8.19 3.575 3.128 1.044 2.534 1.044 2.534 1.044l-.893 2.53s7 .447 13.705 1.044c6.704.595 7.003.298 12.664 1.042 5.66.743 9.98 1.49 15.342 2.533 5.364 1.042 13.11 1.936 18.028 3.573 4.917 1.637 6.757 2.517 6.757 2.517.157-2.727.305-5.46.444-8.173 0 0-.946-.898-9.737-2.835"/><path d="M675.7 234.473c-5.51-1.64-10.13-2.233-16.982-2.98-6.854-.746-21.305-3.87-26.965-4.17-5.66-.3-16.09-1.937-16.09-1.937l-.446-4.618-3.277.744 3.13 5.364 2.38 1.04-1.19 2.98s-12.662-4.767-13.854-5.066c-1.193-.3-6.258-1.787-9.534-2.68-3.277-.894-5.96-4.62-8.94-5.66-2.98-1.043-9.236-1.64-14.15-1.938-4.917-.298-12.067-1.19-19.22-1.342-7.15-.15-13.406 1.49-17.876 1.788-4.468.3-7.448-.446-11.92-1.637-4.468-1.192-8.127-.1-8.127-.1.86 1.613 1.65 2.97 2.293 3.9.686.993 1.527 2.275 2.442 3.685 0 0 3.692-.633 6.673-.482 2.98.15 3.574.593 8.788.893 5.214.3 5.66-.15 15.343 0 9.684.15 14.45 0 23.09.597 8.643.596 17.28 3.724 20.708 4.766 3.427 1.042 3.277 2.234 5.36 4.915 2.088 2.68 4.768 1.64 8.344 3.277 3.578 1.637 2.98.596 4.915.15 1.937-.448 1.642 2.085 1.642 2.085l2.68.595.893-5.36s2.98.742 7.152 1.04c4.17.297 10.277.895 15.64 1.192 5.365.298 10.875 2.384 14.897 2.68 4.023.298 13.11 2.384 19.068 3.578 5.96 1.192 11.023 4.632 11.023 4.632.22-2.923.43-5.917.628-8.95 0 0-3.01-1.34-8.52-2.98M674.062 250.412c-4.023-.597-12.364-4.47-17.132-4.917-4.766-.447-18.92-3.128-25.178-3.874-6.254-.745-16.088-1.786-16.088-1.786l-.894 6.853s4.617 1.04 9.98 1.638c5.365.597 10.282 1.64 15.196 2.087 4.915.446 7.45 1.34 14.005 2.98 6.554 1.64 14.003 2.83 19.07 4.467 5.06 1.637 9.09 4.788 9.09 4.788.306-2.743.593-5.656.863-8.69 0 0-4.89-2.95-8.91-3.546"/><path d="M678.084 268.14c-2.384-1.934-8.49-3.28-17.28-5.513-8.79-2.234-25.624-5.064-30.392-6.404-4.767-1.34-16.386-1.044-16.386-1.044V248.03s-.595-.15-1.64-.45c-1.042-.295-1.49-2.38-1.49-2.38s-5.51-1.045-8.79-1.94c-3.274-.892-3.274-2.085-5.66-5.213-2.382-3.127-7-2.682-12.065-4.17-5.064-1.488-12.217-2.534-18.32-3.28-6.112-.746-18.03-.894-24.137-1.04-6.108-.147-19.34.104-19.34.104 1.657 2.338 3.1 4.103 3.872 4.33 1.98.583 4.192.932 4.192.932s1.758.73 3.724 1.943c0 0 9.043.736 14.405.736 5.363 0 8.94.595 18.77 1.044 9.832.45 25.327 6.404 28.9 7.448 3.577 1.043 4.324 1.787 6.704 4.02 2.386 2.235 3.873 2.384 6.554 2.98 2.683.597 3.43 1.938 3.43 1.938l-.747 7.597s1.34 0 4.915.3c3.576.3 9.983 1.04 15.94 1.34 5.958.3 23.39 5.958 27.858 6.404 4.47.45 12.216 3.428 14.75 4.62 2.53 1.194 3.838 4.02 3.838 4.02.326-1.925.666-3.976 1.026-6.16.144-.892.287-1.822.427-2.788 0 0-.672-.287-3.056-2.222"/><path d="M671.38 282.142c-4.62-1.787-17.132-6.106-22.047-6.554-4.916-.447-12.364-2.088-18.77-3.13-6.408-1.044-18.773-3.128-18.773-3.128l.15-5.214s-1.193-.744-3.13-1.937c-1.937-1.193-8.34-4.47-14.598-7.448-6.257-2.978-21.303-6.704-27.56-7.3-6.256-.598-22.596-1.854-22.596-1.854 3.536 2.667 8.55 6.454 12.88 9.743 0 0 4.65.602 7.185.752 2.532.15 7.746 1.19 17.13 3.575 9.388 2.383 20.263 7.3 22.646 7.897 2.383.596 6.702 4.467 6.702 4.467l.3 5.068s2.83.893 7.447 1.19c4.62.297 7.003 1.34 13.11 1.49 6.11.15 14.45 3.13 18.473 4.024 4.023.893 16.388 4.914 21.155 6.404 4.767 1.49 5.78 5.06 5.78 5.06.462-2.498.992-5.398 1.593-8.796 0 0-2.457-2.52-7.076-4.31M670.34 297.933c-3.28-1.34-11.178-5.064-15.795-5.81-4.617-.747-14.895-3.278-21.152-4.468-6.258-1.19-22.943-3.13-22.943-3.13s-.297-4.617-1.043-5.065c-.746-.446-2.83-.746-6.407-2.83-3.574-2.084-10.724-4.766-16.533-6.703-5.81-1.937-15.26-3.5-15.26-3.5 4.72 3.732 11.403 8.962 18.108 13.966 0 0 10.708 2.942 14.58 4.433 3.875 1.49 6.108 3.423 6.108 3.423l.744 4.173s9.684.148 14.898 1.34c5.215 1.193 8.494 2.234 11.92 2.53 3.422.297 7.15 1.344 14.45 2.534 7.3 1.19 8.64 1.787 12.064 3.278 3.43 1.49 10.407 6.53 10.407 6.53.223-1.788.62-3.995 1.204-7.13 0 0-2.077-2.23-5.35-3.57"/><path d="M671.38 310.448c-1.34-.894-11.024-4.47-18.622-7.45-7.598-2.98-12.812-1.488-12.812-1.488 4.17.15 10.726 2.383 14.155 3.424 3.426 1.04 9.535 3.874 11.47 5.214 1.94 1.34 3.13 5.067 4.77 7.898 1.637 2.83 3.242 3.122 3.242 3.122.558-3.698.69-7.23.69-9.37l-2.892-1.35z"/><path d="M670.19 325.493c-.3-3.13-4.175-7.3-6.556-9.684-2.385-2.384-8.343-4.32-8.343-4.32s3.875 4.47 5.662 5.81c1.787 1.34 2.233 3.873 4.02 5.66 1.787 1.787 1.938 1.043 2.98 2.833 1.044 1.79.353 8.19.353 8.19.826-.712 1.538-1.625 2.155-2.678 0 0 .026-2.682-.27-5.812M664.676 333.24s-.597 6.555-.297 5.958c.298-.597-1.194-4.468-2.682-6.404-1.492-1.938-4.917-8.195-4.917-8.195s1.938 5.81 2.832 8.79c.893 2.98-.3 5.808-.596 9.535-.298 3.725-1.04 5.36-.148 8.19.894 2.83-2.683 10.578-1.937 10.28.745-.296 1.938-2.978 3.575-7.3 1.638-4.32.894-5.51 2.236-7.747 1.342-2.236 1.79-4.914 1.64-2.53-.15 2.383.655 5.472.655 5.472.136-.25.27-.5.41-.753 2.066-3.79 2.807-7.304 3.018-9.93l-3.787-5.367zM653.205 359.757c1.79-4.915 2.683-16.386 2.533-23.983-.252-12.913-8.79-23.836-8.79-23.836 3.13 6.405 3.578 10.13 4.322 21.006.744 10.874-3.726 15.79-3.726 15.79-4.02 11.467-13.09 15.993-22.792 18.173-7.3 1.64-13.26-1.49-11.77-1.49 1.49 0 13.706-.594 20.113-3.276 6.405-2.683 11.768-12.364 14.896-22.492 3.128-10.13-.446-18.03-3.573-27.263-3.13-9.235-9.365-8.672-9.365-8.672 4.774 5.47 11.06 12.922 8.732 39.23 0 0-11.872 32.24-41.204 15.363 0 0-1.374-.72-3.693-2.09 0 0 1.582 3.097.54 2.946-1.044-.15-3.577-.895-5.068-1.64-1.488-.743-2.083-1.788-4.618-2.085-2.53-.297-4.023-.15-5.36-1.34-1.344-1.192.445-2.085-2.982-2.085-3.426 0-8.79-.744-10.874-.894-2.087-.15-13.26-3.13-17.58-3.576-4.32-.447-14.003-2.386-17.28-2.533-3.277-.15-11.77-2.685-14.302-2.832-2.533-.147-14.154-3.574-17.728-3.574-3.575 0-17.43-1.94-23.835-3.576-6.405-1.638-12.214-4.47-16.982-5.214-4.766-.744-18.148-4.01-18.148-4.01-.054.885-.11 1.768-.17 2.652-.096 1.454-.202 3.38-.328 5.53 0 0 13.58 3.722 17.603 4.468 4.024.746 15.644 4.17 18.772 4.32 3.127.15 38.436 7.002 44.244 8.045 5.81 1.042 23.688 3.875 27.86 4.022 4.168.147 14.152 2.382 17.576 3.128 3.427.746 10.13 1.49 13.855 2.086 3.725.597 5.96 1.94 7.748 2.98 1.787 1.04 4.023.297 6.854.744 2.83.447 1.488 1.046 5.51 1.64 4.025.594 6.11.594 6.406 1.04.298.447 5.066 2.387 7.003 2.684 1.938.297 8.342 2.678 11.322 2.53 2.98-.146 8.19-1.337 10.727-2.977 2.53-1.64 2.98-2.68 3.873-4.767.894-2.087 7-15.345 7-15.345s-1.786 12.367-2.83 14.45c-1.043 2.085-4.022 7.748-6.107 9.386l-4.772 3.792s.135-.014.41-.074c1.168-.254 4.82-1.333 11.042-5.615 0 0 2.683-4.567 4.94-10.766M632.348 379.57c-2.83.448-4.47.448-4.47.448l-5.958-6.407s-5.663.15-11.174-.593c-5.51-.744-7.597-.3-9.683-.15-2.085.15-3.425-.894-5.958-2.086-2.533-1.192-9.237-.893-13.258-1.637-4.023-.743-19.963-4.62-23.39-5.214-3.426-.594-22.197-3.278-27.112-3.577-4.915-.3-32.626-5.064-38.287-5.66-5.66-.598-14.896-2.98-18.77-3.874-3.873-.895-8.64-2.832-12.364-4.172-3.723-1.34-18.274-4.594-18.274-4.594-.222 2.92-.486 5.712-.804 7.867 0 0 4.924 1.942 8.65 2.388 3.727.448 7.298 1.787 13.406 2.83 6.107 1.044 13.557 3.578 19.815 5.365 6.257 1.787 19.218 3.426 23.39 3.723 4.17.297 10.277 2.235 15.49 3.278 5.215 1.043 19.518 3.13 24.135 3.277 4.618.148 24.73 4.47 29.647 4.918 4.913.446 11.318 1.936 15.938 1.936 4.62 0 4.47.297 8.044.894 3.574.597 5.066 2.533 8.49 2.086 3.426-.446 4.47.447 8.792.447 4.317 0 10.277.895 10.277.895l3.726 3.574 7.052-.44c-.12-1.95-.658-3.84-1.235-5.372 0 0-3.284-.593-6.115-.147"/><path d="M632.646 394.17l.15-3.574s-3.724-.597-9.685-.447c-5.956.15-8.34-.897-12.513-2.087-4.17-1.19-7.745-1.788-12.662-1.788-4.917 0-6.107.297-12.66-1.043-6.556-1.34-12.22-1.937-18.923-3.426-6.704-1.49-18.322-2.084-21.004-2.384-2.68-.3-34.115-5.214-38.732-6.404-4.617-1.19-25.476-4.62-32.477-6.704-7.002-2.084-14.303-4.024-18.772-4.62-4.47-.597-12.365-2.532-12.365-2.532l-1.173-5.324c-.915 1.18-3.217 2.59-6.583 2.735l4.925.8s.097 1.323-.593 1.64c-3.578 1.64-11.92-.297-11.92-.297s-5.513-2.384-7.3-3.427c-1.786-1.044-6.854-6.108-6.854-6.108s2.98 2.53 8.64 4.914c5.662 2.384 8.558 1.95 8.558 1.95-1.256-.332-2.596-.832-4.014-1.54-8.016-4.008-9.573-4.006-16.253-15.808-6.68-11.8-9.097-15.448-9.097-15.448 0 3.103-.237 3.1-1.19 6.92-.826 3.305 9.072 16.616 16.08 24.778l14.708 7.64c3.874 1.637 5.958.148 8.194-.148 2.237-.297 1.04-2.234 1.04-2.234l2.087.744.893 6.257s6.554 1.937 11.62 2.384c5.067.447 6.85 1.34 12.662 2.384 5.81 1.044 8.49 3.277 14.45 4.618 5.96 1.34 13.11 2.83 16.24 3.427 3.13.594 22.942 3.425 26.963 3.872 4.02.447 19.07 2.977 22.197 3.128 3.13.15 17.877 1.936 23.538 3.426 5.66 1.49 18.768 2.68 22.345 3.127 3.577.448 11.174 1.343 14.75 1.194 3.573-.15 4.32.596 7.895 1.49 3.574.893 5.958 1.19 10.428 1.49 4.47.3 7.15.743 7.15.743l.448 2.83c.894-1.64 6.555-1.19 6.555-1.19-.526-1.504-.998-2.77-1.433-3.64-1.013-2.028-.883-3.114-.465-4.47l-5.85 2.15z"/><path d="M635.032 409.664l-.896-2.683s-7.895-.592-9.238-.892c-1.34-.3-3.424-1.638-4.914-2.234-1.49-.596-14.897-.893-18.622-.747-3.724.148-13.854-1.636-20.11-1.936-6.26-.3-8.045-1.34-14.75-2.68-6.703-1.34-14.747-2.086-20.856-2.98-6.107-.894-13.555-2.83-19.81-2.977-6.26-.147-28.605-3.577-32.478-4.47-3.874-.894-17.43-4.768-24.136-6.705-6.704-1.936-27.112-6.404-27.112-6.404l-.298-6.11-4.397-1.347c-.287 1.265-.89 3.888-1.67 7.196l5.472 2.345.746 5.514s2.233.893 5.66 1.787c3.427.892 6.85 1.935 12.365 2.382 5.513.447 8.193 1.34 12.512 2.68 4.318 1.34 14.302 3.874 19.965 5.214 5.663 1.34 14.3 2.684 19.962 3.428 5.66.743 41.117 6.107 44.094 6.703 2.98.597 14.452.597 18.176 1.34 3.725.745 7.898 2.234 12.365 3.428 4.468 1.193 12.515.744 19.368 1.787 6.855 1.043 11.47 1.043 16.683 1.043 5.218 0 7.302 1.64 9.386 1.937 2.087.297 4.023.446 4.023.446l.743 2.83s2.086-1.636 4.47-3.276 4.23-.1 4.23-.1c-1.194-2.192-2.223-4.66-3.126-7.07l-7.805 2.552z"/><path d="M639.35 425.307s-.298-2.384-1.044-2.684c-.743-.3-19.662-1.934-21.898-2.233-2.232-.3-21.45-1.49-25.177-1.937-3.725-.447-7.596-1.637-11.916-2.98s-15.343-1.19-15.343-1.19c-4.172 0-16.834-3.128-21.9-3.128-5.065 0-39.775-6.408-45.436-7.3-5.66-.894-18.472-3.428-25.176-5.215-6.704-1.787-30.392-7.15-30.392-7.15l-.594-6.554-6.598-2.433c-.555 2.283-1.137 4.637-1.72 6.932l8.465 4.29-.297 5.062s.15.15 2.533.897c2.384.746 14.748 3.424 19.662 3.87 4.915.447 5.514 1.938 8.94 2.087 3.427.15 5.065 1.194 11.322 2.682 6.256 1.488 23.985 6.556 31.136 6.704 7.15.147 52.14 7.45 57.353 7.747 5.213.298 12.066 1.193 16.387 1.64 4.32.447 11.32 1.637 16.088 1.937 4.768.3 9.682.594 15.048.894 5.362.298 7.598 1.636 11.618 2.383 4.022.746 10.726 1.043 10.726 1.043l.45 1.637s5.36-3.276 7.448-5.51c2.086-2.234 4.22-2.53 4.22-2.53-.1-1.337-1.207-2.064-3.7-4.983l-10.205 6.023z"/><path d="M646.353 438.564c-2.087.597-5.066 3.127-5.066 3.127l-.15-2.83s-14.003-1.786-17.28-2.233c-3.276-.447-15.49-2.383-15.49-2.383s-4.175-1.64-6.26-2.235c-2.085-.594-11.023-.447-15.196-.3-4.167.148-15.938-1.787-20.258-1.637-4.32.15-22.346-3.427-29.795-4.32-7.45-.894-35.605-5.214-42.31-6.554-6.703-1.342-38.583-8.643-42.457-9.24-3.873-.595-11.918-3.425-11.918-3.425l-.297-5.81-9.696-3.778c-1.346 4.89-2.505 8.493-3.072 8.848l13.064 3.57-.446 5.066s6.854 2.085 12.812 3.426c5.957 1.34 10.28 1.79 17.13 2.533 6.852.742 11.325 3.128 15.792 4.32 4.468 1.19 16.985 4.32 22.793 5.213 5.808.894 28.007 3.724 31.88 4.32 3.874.597 14.304 1.937 22.495 3.128 8.192 1.19 33.372 1.79 36.947 1.64 3.574-.15 4.023.298 6.255.448 2.236.15 1.79 1.043 4.767 1.193 2.98.15 12.07 2.68 15.942 4.02 3.87 1.34 10.873 1.79 13.258 1.938 2.382.15 2.382 1.64 2.382 1.64s2.086-.597 4.173-1.79c2.084-1.193 7.144-3.332 7.144-3.332-1.145-2.81-2.41-5.982-3.084-8.462-.148-.538-1.976 3.303-4.06 3.9M655.738 458.973c-.894.598-1.044 1.193-3.13 0-2.084-1.192-4.468.895-8.342 1.193-3.873.3-11.32 0-18.025-.298-6.702-.3-11.47-2.384-16.087-2.832-4.62-.446-24.88.15-32.924 0-8.045-.15-28.455.894-32.18.894-3.725 0-8.938-.594-15.493-.894-6.555-.298-11.77-1.787-18.62-3.426-6.852-1.64-17.73-2.83-22.346-3.87-4.617-1.042-15.79-5.068-20.558-5.515-4.767-.446-27.71-5.81-29.2-6.704-1.49-.892-.893-4.466-1.637-5.362-.743-.896-13.854-5.66-13.854-5.66l.297-7.895-3.277 5.957 1.64 2.236-1.49 4.915s-2.533-.446-2.383-1.19c.15-.743.744-2.532.893-4.32.15-1.787-.74-8.715-.74-8.715-.692 1.444-1.846 3.702-3.208 6.36 0 0 1.712 1.462 2.755 2.95 1.044 1.49-.594 1.788-1.637 3.428-1.044 1.64-.746 4.618-.746 4.618l3.873 2.83 1.64-4.32 15.046 6.108s-.745 1.937 1.34 4.917c2.083 2.98 9.237 3.724 16.09 5.364 6.855 1.638 15.046 2.976 20.41 3.722 5.363.747 9.384 2.384 18.622 4.618 9.237 2.234 18.918 2.98 23.24 4.024 4.32 1.043 4.616 1.786 8.64 1.936 4.023.15 7.447 0 13.257-.15s25.476.597 33.37.597c7.897 0 49.906.744 54.672 1.488 4.768.743 6.11 0 12.515.596 6.406.597 7.744.894 11.47.597 3.726-.297 4.17-1.192 5.064-.893.894.3-2.53 4.17-2.233 5.51.298 1.34.448 3.13.448 3.13s-7.3-.446-11.025-.596c-3.726-.15-16.985-.893-21.9-.893-4.913 0-30.985-1.044-39.326-.747-8.345.298-29.943-1.04-35.01-1.19-5.065-.15-18.472-.447-24.73-1.34-6.257-.894-8.49-1.34-14.598-1.64-6.108-.3-19.07-3.277-23.39-4.618-4.32-1.34-7.15-1.937-11.024-2.533-3.874-.596-12.365-3.277-17.282-4.467-4.917-1.19-6.554-2.236-10.725-2.384-4.172-.147-7.15-2.236-8.94-4.023-1.79-1.787.298-3.724-1.938-4.47-2.236-.747-15.045-5.215-15.045-5.215l-.596 2.237s-1.49-.15-2.53-1.043c-1.042-.894-.597-5.81-.597-6.854 0-1.044-2.804-4.173-2.804-4.173-1.228 2.446-2.454 4.936-3.54 7.254 0 0 2.32 1.537 5.003 6.305 2.682 4.767 1.637 4.767 1.637 4.767l1.64-2.833s2.98 1.64 5.214 2.832c2.233 1.193 6.107 2.68 9.087 3.87 2.98 1.192 2.086 1.64 2.682 3.428.596 1.787 3.277 3.278 5.66 4.024 2.384.746 7.004 1.49 10.28 1.787 3.278.298 7.746 2.83 11.473 4.17 3.725 1.34 15.938 3.725 19.81 4.024 3.875.3 19.22 4.768 24.434 5.214 5.213.447 13.257 2.83 23.238 3.128 9.982.297 20.41.446 27.857 1.043 7.45.596 27.113 0 32.03.148 4.917.15 15.94-.3 26.515-.3 10.58 0 20.413 1.64 26.966 1.938 6.555.297 13.98.15 13.98.15.332-1.375.6-2.717.722-3.833.48-4.294-1.907-10.02 1.43-17.892.718-1.685 1.05-3.064 1.13-4.206 0 0-2.066 2.393-2.96 2.99M419.467 160.878s.15 1.34 3.277 1.937c3.128.596 2.68 2.532 4.024 4.022 1.343 1.49.893 0 2.384.148 1.49.15.893 2.384.893 2.384l2.53.596.3-1.49s2.53 0 9.682.298c7.15.298 5.96-.298 12.81-3.128 6.853-2.83 8.196-2.98 15.2-3.13 7.003-.15 12.805-.506 12.805-.506.72 2.34 1.377 4.818 1.884 7.293 0 0-8.732 1.11-14.99.96-6.257-.15-8.938-1.19-14.3 1.342-5.364 2.532-1.64 2.532-7.15 3.723-5.513 1.192-5.07 2.087-10.132 1.788l-5.065-.298-.448 1.79s-4.022-1.94-4.47-3.726c-.447-1.788.6-3.128-1.487-3.873-2.087-.746-3.277 1.338-3.427-.45-.15-1.786.896-2.68-.893-2.53-1.79.148-13.295-.297-13.295-.297.23-2.376.483-4.866.75-7.34l9.117.485z"/><path d="M417.827 146.13c2.83 1.043 2.533 2.085 5.067 4.172 2.534 2.087 4.914 4.022 6.405 4.766 1.49.744 1.34 0 2.382-.447 1.043-.446.596-1.488.596-1.488s4.32.744 8.49.894c4.172.15 7.002-.298 11.175-1.49 4.174-1.192 8.94-2.086 14.75-3.576 5.81-1.49 11.572-1.742 11.572-1.742.833 2.88 1.668 5.44 2.436 7.306 0 0-8.646.694-13.86 1.587-5.215.895-9.383.596-13.407 2.384-4.023 1.79-3.873 2.68-7.747 2.532-3.874-.148-10.278-1.636-11.767-1.042-1.49.596-.6 1.788-1.344 2.086-.744.298-4.318-.596-4.915-1.192-.596-.595-.596-1.935-1.936-2.085-1.34-.15-2.828-3.13-6.107-4.32-3.28-1.193-8.308-2.364-8.308-2.364.347-2.748.705-5.235 1.057-7.222 0 0 2.63.2 5.46 1.242"/><path d="M429.448 136.447l-.15 2.68c2.234.895 29.796-3.723 35.754-4.32 5.958-.594 9.635-1.584 9.635-1.584.513 2.22 1.08 4.59 1.677 6.95 0 0-7.44.89-12.355 1.935-4.916 1.043-13.407 2.382-17.876 2.978-4.47.597-8.492.596-11.322.745-2.83.15-4.917 1.938-5.81 1.492-.894-.447-.3-2.383-.747-2.533-.447-.15-13.28-8.896-13.28-8.896.845-2.502 1.705-4.562 3.567-6.896l10.906 7.45z"/><path d="M472.186 119.76c.084 1.223.192 2.298.333 3.118.137.806.363 1.994.663 3.45 0 0-16.173 2.223-20.793 2.82-4.62.595-22.793 1.936-22.793 1.936l-.15-3.576-5.02-3.815c2.188-1.478 4.347-2.642 5.888-3.73l.474 4.865s17.28-.895 25.77-2.235c8.49-1.34 15.626-2.832 15.626-2.832M471.925 111.86c.01.983.026 1.995.05 2.997 0 0-4.387.583-8.56 1.18-4.173.596-13.408 1.938-15.94 2.086-2.534.15-16.184 1.08-16.184 1.08.34-.295.62-.59.83-.888 1.67-2.386 3.103-2.387 8.59-3.818 0 0 9.297-.694 14.36-1.14 5.066-.448 16.855-1.497 16.855-1.497M460.135 109.78c-4.917 1.044-8.704.135-8.704.135.767-.332 1.56-.64 2.4-.905 4.533-1.43 18.132-5.25 18.132-5.25s-.03 1.476-.04 3.64c-.002 0-6.87 1.338-11.787 2.38M425.277 190.374c3.277 0 2.978.3 4.17 1.044 1.194.745 2.7-.263 2.7-.263-.673.875-1.32 1.69-1.98 2.352-1.262 1.258-2.762 2.84-3.752 4.16l-3.61-.345-6.697-6.72s5.893-.228 9.17-.228M437.625 185.444c-1.632 1.027-2.96 2.512-4.153 4.007 0 0 1.043-2.5-.597-2.8-1.64-.298-3.424.3-3.724-.745-.298-1.043-.445-2.98-2.382-3.128-1.937-.148-18.506-.048-18.506-.048s.208-2.593.55-6.5c0 0 6.185-1.05 9.462-1.05 3.278 0 6.108-1.044 6.705.893.594 1.936.297 1.49 2.235 2.384 1.936.893 3.127-.447 4.02 2.533.894 2.978 1.194 3.872 2.534 4.17 1.34.3 3.855.284 3.855.284M486.25 176.69c.112 2.21.01 4.286-.376 6.108 0 0-6.1-2.77-12.034-5.26l12.41-.847zM430.745 203.453c-.833.206-1.302.16-1.302.16l7.733 8.65s2.698.16 2.55-1.032c-.147-1.19-.744-2.68.747-2.68 1.49 0 1.787-1.194 2.83-2.98 1.044-1.788 2.92-2.714 2.92-2.714-.396-1.027-.742-2.118-.9-3.093 0 0-1.426.592-4.106 1.04-2.68.446-4.32-.3-4.468 1.19-.15 1.49 1.04 1.79-1.64 1.79-2.68 0-4.365-.33-4.365-.33M441.717 214.126c2.318 1.167 3.85 4.046 3.85 4.046l14.317 4.333s4.453 1.323 8.062.843c3.608-.48 5.293.36 5.293.36.3-.69.487-1.322.598-1.88 0 0-6.252-1.062-8.636-2.105-2.383-1.044-9.235-3.13-11.768-3.576-2.533-.447-2.83-1.043-6.257-1.49-3.427-.447-5.46-.53-5.46-.53M441.342 263.112c.225 1.366.375 2.227.375 2.227s2.564 2.846 4.737 6.437l25.133 2.927c.136-1.79.27-3.548.426-5.43.058-.714.096-1.378.118-2.01 0 0-16.017-1.952-21.528-2.848-5.512-.896-9.26-1.304-9.26-1.304M458.027 296.92c.66.625 1.3 1.19 1.856 1.748 2.046 2.045 4.683 1.774 6.97.21.116-.08.23-.177.34-.29l-9.166-1.67zM470.89 283.402c-.19 2.17-.5 4.774-.94 7.23l-17.473-3.44c-.708-2.297-1.538-4.93-2.43-7.422l20.844 3.632zM471.04 243.966c-1.04-.774-2.59-1.874-4.898-3.414-6.497-4.333-16.966-4.814-16.966-4.814-.18.09-1.468 1.174-3.062 2.582l24.925 5.646zM439.258 245.13c-.27.94.11 4.61.65 8.568 0 0 22.166 5.204 25.74 5.652 3.575.447 6.388.437 6.388.437 0-1.162.03-2.45.12-3.954.08-1.304.167-2.518.26-3.62 0 0-7.217-1.504-13.174-2.845-5.958-1.34-19.984-4.238-19.984-4.238M636.222 451.822s-5.958-4.468-11.47-4.617c-5.513-.15-5.808-.597-13.258.297-7.452.893-8.79.3-12.813.3-4.02 0-45.436-3.28-51.692-4.024-6.256-.744-23.09-3.13-28.007-3.427-4.916-.296-36.793-7.746-41.264-9.087-4.47-1.34-10.575-1.934-17.13-3.574-6.557-1.64-8.644-3.13-13.112-3.577-4.468-.447-8.044-1.787-8.044-1.787l-.447-5.214s-5.51-1.638-8.49-2.68l-3.578-.747-1.34 5.66 12.96 5.365 1.044 5.363s30.39 6.404 37.39 8.49c7 2.088 38.584 8.64 45.585 9.386 7.003.745 30.09 4.32 38.88 3.426 8.792-.894 21.458-2.384 28.16-1.787 6.7.595 14.448 3.573 22.495 4.17 8.042.595 24.133-1.938 24.133-1.938"/></g><g fill="#F5F5F5"><path d="M471.135 84.88l-1.27-1.587 2.096 20.468s-.284 14.183.56 19.117c.842 4.934 5.053 24.066 8.18 31.646 3.128 7.58 6.857 20.335 5.173 28.275l2.524 1.08-.237-.118s.84-10.947-1.685-17.686c-2.527-6.74-7.34-20.455-8.783-26.23-1.445-5.776-3.125-9.024-3.61-22.14-.48-13.116-.564-14.382-.564-14.382l-2.383-18.443zM441.717 265.34s3.248 3.606 5.535 7.818c2.286 4.212 4.57 11.913 6.016 16.606 1.443 4.692 4.57 6.858 6.616 8.904 2.046 2.045 4.683 1.775 6.97.21s3.557-9.94 4.038-15.476c.48-5.535.734-9.452 1.12-14.126.403-4.87-.215-7.426.145-13.443.36-6.015.963-10.108.963-10.108l2.703 2.356s-2.326 15.13-2.093 18.623c.23 3.492.308 41.94-11.807 35.315-11.377-6.224-10.767-14.128-12.638-19.134-4.01-10.733-6.866-14.2-6.866-14.2l-.703-3.345zM541.86 62.52c-.317 3.014-1.11 14.747-.634 20.14.476 5.39.95 10.783.793 18.552-.16 7.77-3.806 13.162-3.806 13.162l-.12 2.64-8.963 16.643-1.627.348s-6.63 9.778-9.66 13.502c-3.028 3.726-8.963 12.107-11.64 16.88-2.678 4.77-11.525 22.58-11.525 22.58l-1.946-.92s8.303-16.123 11.55-22.74c3.25-6.618 10.107-14.2 12.757-17.448 2.648-3.25 8.662-13.116 8.662-13.116l-.602-1.553 7.126-12.913 2.497-3.903 1.587-.633s4.6-8.245 4.282-12.052c-.317-3.805.634-7.93-.317-13.32-.952-5.392-1.427-10.785-1.11-13.955.316-3.17 1.215-16.815 1.215-16.815.374-.147.75-.32 1.132-.52.2-.102.4-.214.6-.33 0 0 .065 2.758-.252 5.772"/></g><g fill="#D1D1CC"><path d="M429.48 206.88c-.096-.03-.194-.05-.292-.073.098.022.196.044.292.072M429 206.765c-.15-.028-.304-.05-.458-.064.154.016.308.037.46.065M430.396 207.258c-.08-.045-.163-.086-.247-.125.083.04.165.08.246.125M430.83 207.53c-.077-.056-.156-.11-.236-.158.08.05.16.102.237.157M427.796 206.68c-.1.002-.198.004-.3.01.102-.006.2-.008.3-.01M429.946 207.042c-.086-.035-.174-.065-.26-.096.086.03.174.06.26.096M393.805 177.513c-8.005-8.006-11.507-6.254-11.507-6.254l-21.513-1.175c-1.432 1.67 2.147 5.49 2.147 5.49l20.28 20.753s7.075-7.04 11.618-6.084c4.542.957 7.654 4.066 5.262 8.85-3.143 6.293-5.98 7.415-5.98 7.415l11.72 10.764s8.37-3.35 11.003-5.264c1.476-1.07 4.905-3.72 8.308-4.833l-.07.022c-.604.2-23.26-21.68-31.267-29.687M425.675 207.017c-.127.035-.254.073-.38.113.126-.04.253-.078.38-.113M427.265 206.712c-.1.01-.197.02-.296.033.098-.013.196-.023.295-.033M426.737 206.78c-.103.018-.204.036-.307.057.103-.02.204-.04.307-.056M426.207 206.884c-.11.024-.22.052-.33.08.11-.028.22-.056.33-.08M432.694 209.828c-.16-.3-.335-.607-.55-.928.215.32.39.627.55.928M432.887 215.194c.088-.148.17-.304.245-.468-.074.164-.157.32-.245.468M433.19 214.585c.053-.13.102-.265.145-.405-.043.14-.092.275-.146.405M432.584 215.644c.073-.098.144-.2.213-.308-.07.107-.14.21-.213.308M431.25 207.864c-.078-.07-.155-.137-.234-.2.08.063.156.13.233.2M433.39 213.983c.043-.165.077-.335.102-.513-.025.178-.06.348-.102.513M432.182 216.127c.103-.11.204-.23.305-.355-.1.126-.202.246-.305.355M432.145 208.9c-.112-.17-.23-.325-.352-.473.122.148.24.304.352.473M428.014 206.674c.117 0 .233.008.35.016-.117-.008-.233-.015-.35-.016M433.52 212.498c-.013-.176-.035-.357-.067-.544.032.187.054.368.066.544M433.417 211.742c-.053-.25-.125-.508-.218-.775.092.267.164.525.217.775M433.12 210.762c-.084-.218-.182-.44-.294-.67.112.23.21.452.293.67M436.46 214.673c.06-.038.124-.078.184-.113-.06.035-.123.075-.185.113M431.682 216.602c.027-.023.056-.05.083-.075-.57.5-1.057.747-1.057.747l-12.676 8.612s-.48 3.586 2.152 1.912c1.718-1.09 7.71-6.56 12.4-10.3-.05.042-.098.08-.15.12l-.752-1.015zM437.17 214.267c.038-.02.072-.034.11-.053-.038.02-.072.033-.11.053M432.126 216.184c-.092.095-.184.185-.274.268.09-.083.182-.172.274-.268M433.17 217.038c.147-.117.294-.23.44-.343-.146.113-.293.226-.44.343M435.798 215.098l.223-.146-.222.146M434.918 215.715c.08-.06.164-.12.243-.177l-.242.177M434.1 216.32c.11-.084.22-.167.33-.248-.11.08-.22.164-.33.248M437.64 214.057l.122-.045-.12.045M433.533 212.725c.005.223 0 .44-.023.646.023-.207.028-.423.023-.646M431.416 208.016c.083.082.162.17.242.26-.08-.09-.16-.178-.242-.26M437.762 214.012c.134-.044.26-.078.362-.088-.103.01-.228.044-.362.088M433.2 210.967c-.024-.067-.056-.138-.08-.205.024.067.056.138.08.205M436.02 214.95c.15-.098.297-.19.438-.277-.14.087-.287.18-.438.278"/><path d="M431.765 216.527c.03-.025.057-.05.086-.076-.027.026-.057.052-.085.077M433.453 211.954c-.013-.07-.02-.14-.036-.212.015.072.023.142.036.212M435.16 215.538c.222-.157.433-.303.638-.44-.205.138-.416.283-.637.44M432.826 210.09c-.043-.086-.085-.173-.132-.262.047.09.09.176.132.263M433.335 214.18c.02-.064.04-.13.056-.196-.016.066-.035.132-.055.196M432.797 215.336l.09-.142c-.03.05-.06.095-.09.142M437.28 214.215c.13-.062.25-.115.36-.158-.11.043-.23.096-.36.158M433.132 214.726c.02-.046.038-.095.058-.142-.02.047-.037.096-.058.142M436.643 214.56c.186-.11.36-.21.525-.292-.164.084-.34.182-.525.292M432.487 215.77c.033-.04.064-.083.097-.127l-.097.128M433.492 213.47c.005-.033.013-.065.018-.1-.005.035-.013.067-.018.1M433.52 212.498c.005.076.01.152.013.227-.002-.075-.008-.15-.014-.227M426.43 206.837c-.074.015-.15.03-.224.047.075-.017.15-.032.224-.047M426.97 206.745c-.078.01-.156.023-.233.036l.232-.035M432.182 216.127l-.057.057.057-.057M427.497 206.69c-.077.005-.154.014-.23.02.076-.006.153-.015.23-.02M425.294 207.13c-.05.016-.1.03-.15.047.05-.017.1-.03.15-.047M428.542 206.7c-.06-.005-.118-.007-.178-.01.06.003.12.005.178.01M427.796 206.68c.073-.003.146-.007.22-.006-.074 0-.147.003-.22.005M431.25 207.864l.166.15-.167-.15M425.876 206.964c-.067.017-.134.034-.2.053.066-.02.134-.036.2-.053M433.61 216.695c.164-.128.328-.253.49-.375-.162.122-.326.247-.49.375M430.594 207.372c-.066-.04-.13-.078-.197-.114.066.036.132.074.197.114M429.188 206.807c-.062-.014-.124-.03-.187-.042.064.012.126.028.188.042M431.015 207.665c-.06-.048-.123-.092-.185-.136.062.043.124.087.185.135M434.43 216.072c.166-.124.328-.242.487-.357-.158.115-.32.233-.486.357M431.794 208.428c-.044-.054-.09-.1-.136-.15.045.05.092.096.136.15M430.15 207.133c-.068-.03-.136-.063-.204-.09.068.027.136.06.203.09M432.585 217.5c.197-.158.392-.312.584-.462-.193.15-.388.304-.585.46M429.685 206.946c-.068-.023-.136-.048-.205-.067.07.018.137.043.205.066"/></g><path d="M432.435 217.616c2.563-2.05 4.758-3.607 5.69-3.692l.46-.083-9.142-10.227-4.09-3.73-17.092-17.154s-4.054-3.817-10.733-10.975c-6.68-7.158-11.69-6.203-11.69-6.203l-21.712-.477-3.34 5.01 21.513 1.174s3.502-1.753 11.507 6.252c8.006 8.006 30.663 29.888 31.267 29.686 2.693-.895 5.376-.842 7.073 1.703 2.72 4.082.846 6.59-.463 7.702l.753 1.014z" fill="#E4E4E1"/><g fill="#F5F5F5"><path d="M473.518 103.322s-2.492-17.403-2.492-20.266M471.962 103.762l-2.626-20.755s.078-.996-.42-1.947"/></g><g><g transform="translate(444)"><mask id="d" fill="#fff"><use xlink:href="#c"/></mask><path d="M1.537 4.37c2.576 7.726 9.442 13.45 9.442 13.45l3.436-.858s-6.01-4.865-9.733-14.596c-.29-.758-.54-1.552-.76-2.366H.446c.28 1.517.636 3.002 1.092 4.37" fill="#D1D1CC" mask="url(#d)"/></g><g transform="translate(416)"><mask id="f" fill="#fff"><use xlink:href="#e"/></mask><path d="M13.813 22.245l3.673-.65-1.69-10.93h2.006l2.29-5.723.86 6.583 4.29 2.29c-.515-1.804-.102-7.784.51-13.815H.32c4.97 9.022 13.49 22.245 13.49 22.245" fill="#D1D1CC" mask="url(#f)"/></g><path d="M458.988 2.938c1.717 2.862 10.302 9.73 12.592 10.876 2.29 1.145 6.868-.572 6.868-.572V7.517c-4.58.572-8.3-4.006-8.3-4.006l10.017 2.29 4.58-2.862L479.146 0H457.57c.582 1.32 1.075 2.366 1.418 2.938M490.588 0c4.722.185 8.465.076 8.465.076s14.31 22.037 20.32 33.77c6.008 11.736 4.005 16.313 3.15 18.602-.86 2.29-8.586 6.298-8.586 6.298s4.863.286 4.006 1.716c-.858 1.432 2.29 4.293 2.29 4.293l8.585-5.437s1.144-1.145 8.872-1.145 18.964-16.677 18.964-16.677c7.398-4.773 18.403-30.282 18.403-30.282S577.52 8.87 584.34 0h-93.752z" fill="#D1D1CC"/></g><path d="M437.753 35.432c7 1.19 9.378 2.377 12.942 6.736 1.322 1.617 3.567 9.376-12.282 6.207-10.776-2.155-15.056-9.245-15.32-10.434-.267-1.19 1.325-4.775 14.66-2.508m30.245 1.32s18.49-1.846 24.433 5.416c0 0 .266 2.114 1.058 2.51l.792.396s3.915 10.49-13.736 6.34c-10.353-2.437-22.698-12.667-12.546-14.66m-49 1.45c0 .793 1.19 3.567 2.377 3.567 1.19 0 3.17.266 3.17.266s6.605 7.792 17.964 8.716c11.356.925 11.358-6.074 10.168-9.508 0 0 3.302.396 5.81-.132 2.51-.53 3.698-.53 3.698-.53s8.19 12.02 21.793 13.076c15.17 1.178 12.414-8.32 12.414-8.32l3.963-.925 14.154-19.35c-.412-.71-.835-1.428-1.262-2.15L498.64 42.036s-.662-.792-1.587-.924c-.925-.133-2.64 0-2.64 0s-4.228-5.02-16.114-5.945c-14.324-1.114-14.924 2.774-14.924 2.774s-1.586.002-1.982.53c-.396.527-2.38.793-4.755.925-2.378.13-3.962-.133-3.962-.133s.398-2.246-.396-2.377c-.795-.132-1.587 1.19-1.587 1.19s-5.417-4.312-14.13-4.623c-7.397-.265-11.36.527-11.36.527l8.28-12.385-2.46.435S419 37.413 419 38.205" fill="#D1D1CC"/></g></svg>