<?xml version="1.0" encoding="UTF-8"?>
<svg width="54px" height="71px" viewBox="0 0 54 71" version="1.1" xmlns="http://www.w3.org/2000/svg" xmlns:xlink="http://www.w3.org/1999/xlink">
    <!-- Generator: Sketch 46.1 (44463) - http://www.bohemiancoding.com/sketch -->
    <title>quoter01</title>
    <desc>Created with Sketch.</desc>
    <defs></defs>
    <g id="portfolio" stroke="none" stroke-width="1" fill="none" fill-rule="evenodd">
        <g id="cs-paycrave" transform="translate(-440.000000, -2475.000000)" fill-rule="nonzero" fill="#4A4A4A">
            <g id="content" transform="translate(-1.000000, 1677.000000)">
                <g id="analysis" transform="translate(1.000000, 0.000000)">
                    <g id="quote-chart" transform="translate(0.000000, 317.000000)">
                        <g id="quote01" transform="translate(315.000000, 235.000000)">
                            <g id="quoter01" transform="translate(125.000000, 246.000000)">
                                <path d="M24.2808558,36 C18.0062603,34.6957641 13.5039217,29.1293835 13.5016859,22.6733783 C13.5016859,17.6900524 16.1871124,13.387781 20.1463181,11.0154158 C21.4081089,13.754735 23.9826416,16.552948 27.5297423,18.6187631 C32.1752903,21.3218399 37.1100612,21.9877935 40.3094951,20.6981691 C40.4231073,21.3507402 40.4877287,22.0110149 40.5028098,22.6733783 C40.5036171,29.1299603 36.0007324,34.6977901 29.7251384,36 C38.3643592,34.669603 45,27.2157554 45,18.1385517 C45.0000001,11.6582714 41.5692195,5.67024535 36.0000001,2.43010515 C30.4307807,-0.810035049 23.5692193,-0.810035049 17.9999999,2.43010515 C12.4307805,5.67024535 8.9999999,11.6582714 9,18.1385517 C9.00149856,27.2187756 15.638638,34.6680929 24.2808558,36 Z" id="Shape"></path>
                                <path d="M40.4985008,40.0000007 L38.250499,40.0000007 C38.250499,46.1150472 33.2134789,51.0722719 26.9999996,51.0722719 C20.7865204,51.0722719 15.7495002,46.1150472 15.7495002,40.0000007 L13.5014985,40.0000007 C6.04516956,40.0008151 0.000827515563,45.9494039 0,53.287611 L0,66.5752213 C0,69.0189591 2.01292933,71 4.49600349,71 L49.5039958,71 C51.9870699,71 53.9999992,69.0189591 53.9999992,66.5752213 L53.9999992,53.287611 C54.0011924,49.7631578 52.5791003,46.3827199 50.0468195,43.890555 C47.5145387,41.3983901 44.0796864,39.9988265 40.4985008,40.0000007 Z" id="Shape"></path>
                            </g>
                        </g>
                    </g>
                </g>
            </g>
        </g>
    </g>
</svg>