<?xml version="1.0" encoding="UTF-8"?>
<svg width="63px" height="68px" viewBox="0 0 63 68" version="1.1" xmlns="http://www.w3.org/2000/svg" xmlns:xlink="http://www.w3.org/1999/xlink">
    <!-- Generator: Sketch 46.1 (44463) - http://www.bohemiancoding.com/sketch -->
    <title>quoter03</title>
    <desc>Created with Sketch.</desc>
    <defs></defs>
    <g id="portfolio" stroke="none" stroke-width="1" fill="none" fill-rule="evenodd">
        <g id="cs-paycrave" transform="translate(-1000.000000, -2478.000000)" fill-rule="nonzero" fill="#4A4A4A">
            <g id="content" transform="translate(-1.000000, 1677.000000)">
                <g id="analysis" transform="translate(1.000000, 0.000000)">
                    <g id="quote-chart" transform="translate(0.000000, 317.000000)">
                        <g id="quote03" transform="translate(875.000000, 233.000000)">
                            <g id="quoter03" transform="translate(125.000000, 251.000000)">
                                <path d="M19.9020944,43 C23.6804735,48.4296707 27.4056754,53.7963684 31.1378743,59.1602673 C31.1925459,59.1802766 31.2503858,59.1902327 31.3086011,59.1896547 C31.4793278,58.9685496 31.6612498,58.7222552 31.8375741,58.4661651 C35.2213225,53.5682663 38.6148667,48.6703674 41.9720265,43.7514776 C42.3918464,43.132943 42.7556903,43.0097958 43.4581889,43.2770811 C48.1447784,45.0599163 52.8579565,46.7671839 57.5417471,48.5612143 C61.3593094,50.0221875 62.8286791,62.0318354 62.4032616,64.3548389 C62.0632074,66.1740584 60.8471291,67.2459986 59.001321,67.2459986 C41.4472516,67.2459986 21.0677943,67.2585932 3.51512436,67.2585932 C1.64412701,67.2585932 0.436445099,66.249626 0.0823969842,64.4164124 C-0.3989965,61.9212828 1.2438987,49.9732085 4.61925069,48.6801632 C9.5745249,46.7839767 14.5549883,44.9507631 19.5228571,43.0923604 C19.6306109,43.0615736 19.7439622,43.0377838 19.9020944,43 Z" id="Shape"></path>
                                <path d="M17.8161068,29.103352 C17.0898184,26.6893875 16.2627732,24.2992129 15.6596319,21.8530623 C14.7926127,18.4680714 14.7801102,14.9207093 15.6232475,11.529691 C17.2031698,5.2715757 21.3034108,1.62613958 27.5517303,0.396067278 C31.1355928,-0.303632553 34.7110589,-0.103518401 38.1563809,1.21471608 C43.9065141,3.41317295 46.7892774,7.80868729 47.5771394,13.7365443 C48.2768393,19.033272 46.8970312,23.984348 44.9280759,28.8178744 C44.8334489,28.9728605 44.7262687,29.1198237 44.6076134,29.2572859 C45.1286671,26.3712635 44.9482043,23.402267 44.0814391,20.6005996 C43.4810966,18.6092539 42.6008742,16.6822806 41.6618771,14.8168808 C40.9733724,13.4468685 40.3226516,13.4300757 39.1947355,14.4768267 C37.4608793,16.0931333 35.5157137,17.3330014 33.1689205,17.8605751 C30.3701212,18.4945031 27.9225712,17.5932897 25.6331533,16.1001303 C24.9136551,15.602202 24.2312842,15.0526572 23.5914292,14.4558357 C22.4719095,13.4594631 21.8897592,13.5098415 21.0893026,14.7958898 C19.4687127,17.3771773 18.4689952,20.2992073 18.1687555,23.3322277 C17.988233,25.2032251 18.1351699,27.1106068 18.1351699,28.9927994 L17.8161068,29.103352 Z" id="Shape"></path>
                            </g>
                        </g>
                    </g>
                </g>
            </g>
        </g>
    </g>
</svg>