<?xml version="1.0" encoding="UTF-8"?>
<svg width="58px" height="71px" viewBox="0 0 58 71" version="1.1" xmlns="http://www.w3.org/2000/svg" xmlns:xlink="http://www.w3.org/1999/xlink">
    <!-- Generator: Sketch 46.1 (44463) - http://www.bohemiancoding.com/sketch -->
    <title>quoter02</title>
    <desc>Created with Sketch.</desc>
    <defs></defs>
    <g id="portfolio" stroke="none" stroke-width="1" fill="none" fill-rule="evenodd">
        <g id="cs-paycrave" transform="translate(-720.000000, -2475.000000)" fill-rule="nonzero" fill="#4A4A4A">
            <g id="content" transform="translate(-1.000000, 1677.000000)">
                <g id="analysis" transform="translate(1.000000, 0.000000)">
                    <g id="quote-chart" transform="translate(0.000000, 317.000000)">
                        <g id="quote02" transform="translate(595.000000, 235.000000)">
                            <path d="M182.774811,310.680721 C182.676403,310.123731 182.577995,309.567233 182.479587,309.011227 C181.313451,302.655045 179.407777,292.549512 172.131971,287.084908 C172.669279,283.525978 172.943838,277.993472 172.943838,269.765567 C172.943838,256.62808 164.425137,246 153.924004,246 C146.763335,246 142.209498,251.074908 142.209498,251.074908 C137.781132,255.432421 134.90417,262.175347 134.90417,269.793613 C134.90417,277.999376 135.190537,283.533358 135.714561,287.079004 C128.407756,292.486039 126.537509,302.674234 125.371373,309.02894 C125.272965,309.583962 125.174556,310.139968 125.076148,310.696958 C124.810106,312.264712 125.248633,313.870025 126.274781,315.084788 C127.300928,316.299551 128.810355,317.000243 130.400521,317 L149.277171,317 L149.277171,317 L177.448963,316.986715 C179.037732,316.98615 180.545669,316.286108 181.571476,315.072886 C182.597283,313.859664 183.0369,312.256333 182.773335,310.689578 L182.774811,310.680721 Z M153.931384,298.346244 L143.90261,293.234433 L149.09856,285.036051 C150.602303,285.764117 152.248913,286.149301 153.919575,286.163808 C155.584945,286.147698 157.225433,285.757754 158.719925,285.022766 L163.915875,293.234433 L153.931384,298.346244 Z M153.931384,282.612258 C144.385302,282.612258 140.275778,269.696189 141.089122,265.661947 C151.58435,256.535084 160.869159,257.165388 160.869159,257.165388 C160.869159,257.165388 162.534224,262.331816 166.819407,268.580241 C166.073965,274.732718 159.840301,282.606354 153.92548,282.606354 L153.931384,282.612258 Z" id="quoter02"></path>
                        </g>
                    </g>
                </g>
            </g>
        </g>
    </g>
</svg>