<svg width="127" height="294" viewBox="0 0 127 294" xmlns="http://www.w3.org/2000/svg" xmlns:xlink="http://www.w3.org/1999/xlink"><title>sb-survey-woman</title><defs><path id="a" d="M.67 58h104.9V.048H.67z"/><path id="c" d="M.966 16h32.122V.595H.966z"/><path id="e" d="M3.276 10.18V.604H.123v9.578h3.153z"/></defs><g fill="none" fill-rule="evenodd"><g fill="#E9A79E"><path d="M8.133 250.263c2.29-2.925 3.626-7.992 3.626-7.992l1.5-4.446s-.42-11.322 1.234-12.594c0 0-1.145-2.67-.255-4.07.89-1.4 1.145-9.668 1.526-9.923.382-.255 1.78-3.816 1.78-3.816l1.782-8.522-.255-5.344-7.77-6.95-6.103 6.274s-.92 17.9-1.69 23.585c-.768 5.685-1.766 15.44-2.457 18.822-.69 3.38-1.23 5.222-1 8.757.23 3.534 1 8.834 1 8.834s4.79.314 7.08-2.613M18.228 104.968c-.128 6.742 8.606 10.86 15.094 16.076 0 0 11.45 3.816 21.626 2.29 10.177-1.527 14.884.127 29.26-8.778 0 0 10.454-2.454 11.98-4.36 1.422-1.78 1.43-13.192 1.43-13.192S73.5 89.79 73.65 65.738l-.263-6.078s3.43.542 4.152-1.263c.72-1.804.81-3.7 1.442-4.783.632-1.082 1.715-4.782.632-6.497-1.083-1.714-8.88-33.22-45.523-28.1-1.832.256-5.41 20.328-5.77 21.23-.363.903-.173 7.347-.263 8.972-.09 1.623.74 6.92 1.642 9.177.902 2.256 6.46 7.264 6.46 7.264.078.308 7.683 14.213 11.14 15.98 0 0 0 5.3-6.683 8.297-6.684 2.996-9.143 3.994-9.143 3.994l-1.946.304c-1.736.54-11.222 6.575-11.3 10.734M104.625 192.128c-2.29.763-1.168 4.82-1.168 4.82 1.772 32.605.05 37.66-.61 38.432 0-.002.002-.002.003-.003l-.832 2.447s-2.29 5.343-4.326 5.724l-3.053-.254 1.548 18.12s6.592 7.068 6.338 9.612l2.93-5.858s2.765-8.912 4.148-10.91c1.382-1.997 3.457-4.685 3.84-6.298.384-1.614.23-6.07.46-8.144.232-2.074 3.842-9.372 5.84-17.515 1.997-8.142 3.38-26.12 3.38-26.12s-.647-4.212-3.7-4.594c-3.054-.38-12.51-.22-14.8.542"/></g><g fill="#A23324"><path d="M15.947 193.32l.705-1.932c.544-.347 1.968-2.02 2-1.377l3.642 8.99-.977 11.395s1.362 4.21.98 4.463c-.38.254-2.078 4.296-2.968 5.695-.892 1.4-4.835 4.678-4.835 4.678-1.654 1.273-3.944 11.322-3.944 11.322l-2.416 3.944 2.635-20.572 4.076-17.585 1.1-9.02zM74.716 54.31l1.158-1.507s1.565-.52 1.68-.695c.116-.174-.174-4.576-2.085-4.692l-.754 2.085s.405 1.16.29 2.087c-.116.927-.754 2.49-.754 2.49l.464.232z"/></g><g fill="#F1C4BE"><path d="M77.54 58.397c-.724 1.805-4.152 1.263-4.152 1.263l.262 6.077s-6.43 12.82-14.927 15.628c0 0 8.274-5.245 10.638-11.155 2.366-5.91 1.922-11.452 1.922-11.452s.018.37 2.438.37c2.07 0 3.82-.73 3.82-.73M95.374 100.593c1.234-1.95 2.245-3.59 2.245-3.59s-21.536 2.315-21.093 2.24c.444-.073 18.847 1.35 18.847 1.35M25.864 97.787c.755-2.202 2.362-3.148 3.664-3.554 0 0 12.94.873 14.566 3.31 0 0-5.024-1.328-9.308-.885-4.285.443-8.922 1.13-8.922 1.13M102.605 236.095s.242-.716.24-.714c.662-.77 2.384-5.827.612-38.43 0 0 3.775-.215 6.065-.978l-1.398 10.19-2.55 23.956-2.97 5.977z"/></g><g transform="translate(0 236)"><mask id="b" fill="#fff"><use xlink:href="#a"/></mask><path d="M102.526 35.027c.254-2.544-2.036-10.56-2.036-10.56L94.638 7.296l3.054.254c2.035-.382 4.325-5.725 4.325-5.725S97.65-.287 94.343.095c-3.307.38-6.5 1.57-17.823 4.623-11.32 3.054-26.217 2.958-39.83 2.83C23.08 7.423 8.134 4.497 8.134 4.497s-1.78 2.926-4.07 5.852-3.01 6.53-3.01 6.53L.67 20.87l1.46 6.992s.92 1.92 2.534 5.225C6.277 36.39 6.2 39.307 6.968 41c.768 1.69 1.306 1.612 1.614 4.224.306 2.612.69 3.457.767 5.762C9.425 53.29 9.314 58 9.314 58h92.126s.925-3.717 1.514-5.65c0 0 3.265-14.77 2.5-23.18l-2.928 5.857z" fill="#B63A29" mask="url(#b)"/></g><g transform="translate(44 278)"><mask id="d" fill="#fff"><use xlink:href="#c"/></mask><path d="M2.63 16h2.943l-.896-8.88s8.32-4.35 15.485-2.175C27.33 7.12 33.088 8.657 33.088 8.657l-15.23-6.014-14.716 1.15L.966.596 2.63 16z" fill="#A23324" mask="url(#d)"/></g><path d="M42.28 268.868H43.3l-.895-9.6-.257-10.74c-1.24.005-2.476.005-3.71 0l3.84 20.34zM95.442 243.36l2.25.188c2.035-.38 4.325-5.724 4.325-5.724s-4.835 1.018-8.14 1.4l1.565 4.137z" fill="#A23324"/><g fill="#E2897D"><path d="M14.495 225.23c-1.654 1.272-3.943 11.322-3.943 11.322l-2.418 3.944s14.376 7.887 27.987 8.014c13.612.127 27.987-.255 39.31-3.308 11.322-3.053 15.138-5.597 18.446-5.98 3.307-.38 8.14-1.398 8.14-1.398l.833-2.447c-.144.168-.238.137-.238.137s-1.075-4.38-2.15-6.53c-1.076-2.15.46-1.767.306-5.3-.153-3.535-1.382-3.15-1.382-3.15l-7.997 2.236s-12.277 1.31-16.856 2.074c-2.66.443-22.487 4.546-25.922 5.436-3.434.89-9.66 3.324-13.476.907 0 0-10.257-2.582-13.82-4.617-3.56-2.035-6.82-1.34-6.82-1.34M84.207 114.555c-14.375 8.905-19.08 7.25-29.26 8.777-10.176 1.528-21.625-2.288-21.625-2.288s3.85 9.248 9.956 11.03l4.522-.506 3.897.935s6.122-1.232 11.8-3.155c16.156-5.47 20.71-14.793 20.71-14.793"/></g><path d="M14.495 225.23s1.653 2.544 5.216 4.58c3.562 2.035 13.994 3.943 13.994 3.943 3.816 2.417 10.56.636 13.993-.254 3.435-.892 24.693-4.9 27.35-5.344 4.58-.763 16.92-3.308 16.92-3.308l7.42-4.314s.23-1.153 1.074-2.075c.847-.922 1.922-1.92 1.153-3.458-.767-1.536-.69-2.074-.46-3.38.23-1.306.307-2.074-.154-3.38-.462-1.306-3.38-3.84-4.84-5.608-1.46-1.767-.77-1.23-.692-3.15.077-1.92.538-3.303-.692-5.684-1.23-2.382-2.535-1.844-2.535-1.844s3.485-9.782 5.993-19.205c2.273-8.537 1.306-8.22 1.306-8.22l.69.615s-.23 3.15.692 5.07c.922 1.92 1.23 14.058.46 16.056-.767 2 .385 1.077 1.153 2.23.77 1.15-.768.92-.998 2.38-.23 1.46.768 1.383.768 1.383l.077 3.995 1.075.69s3.775-.214 6.065-.977c2.29-.762 4.453-1.653 7.506-1.27 3.053.38 6.096 1.48 6.096 1.48l1.152-.153s.845-1.382.768-2.458c-.076-1.076-.153-1.69-.153-1.69s1.46-3.228 1.383-4.226c-.077-1-1.843-5.224-1.843-5.224s-.768-9.603-.154-25.12c.615-15.52-5.608-51.55-9.987-53.623-4.38-2.074-12.37-5.992-12.37-5.992l-2.534-1.306-1.767.613s-4.867 7.888-6.29 9.665c-1.525 1.908-7.123 7.887-7.123 7.887S78.1 121.17 61.945 126.64c-5.68 1.923-11.45 2.29-11.45 2.29l-2.416-1.018-.892 1.273c-6.106-1.782-13.866-8.142-13.866-8.142-6.487-5.216-8.014-13.866-7.887-20.608.127-6.743 6.04-6.504 6.04-6.504l-7.913 1.23s-8.327 1.364-12.83 7.836c-2.458 3.533-3.84 13.06-4.07 25.12 0 0 1.766 31.65 1.843 32.573.077.92-1.075 8.757-1.153 10.063-.077 1.306-1 6.223-.614 7.144.384.922.845 1.768.076 2.612-.767.845-.844 1.228-1.075 2.534-.23 1.307-.462 4.15.076 5.07.537.923.23 1.537-.154 2.23-.384.69-.46 2.534-.46 2.534l2.042-.214 11.83.89.255 5.343-1.782 8.523s-1.4 3.562-1.782 3.817c-.38.254-.635 8.523-1.526 9.922-.89 1.4.255 4.07.255 4.07" fill="#D4503E"/><g fill="#A23324"><path d="M116.684 194.66s4.964-5.093 3.457-4.942c-1.505.15-12.804 2.26-15.516 2.41-2.71.15 2.11-2.56 2.11-2.56s7.682-1.808 12.052-1.507c4.368.302 4.67-2.26 4.67-2.26s-14.01 1.357-14.462 1.658c-.453.302-3.315-.452-3.315-.452l1.957-3.314-1.506-8.436.905-16.42-5.423 6.326 5.875-12.353-7.23 6.93s3.058-13.88 2.862-13.86c-.2.02-3.768 10.394-3.768 10.394l-.302-3.615s1.473-18.52 1.206-18.38c-.267.14-2.41 15.065-2.41 15.065l-.904-8.89-.754 6.93 3.35 17.146.692.615s-.23 3.15.69 5.07c.923 1.92 1.23 14.06.462 16.056-.767 2 .385 1.077 1.153 2.23.768 1.152-.768.92-.998 2.38-.23 1.46.767 1.384.767 1.384l.077 3.994 1.076.692s3.776-.215 6.066-.978c2.16-.72 4.207-1.554 6.995-1.326.167.014.338.032.51.053M21.317 175.105s-.79-8.07-4.218-11.45c-10.4-10.25-3.345-27.622-3.345-27.622s-2.792-16.683-2.983-16.667c-.19.016.15 8.436.15 8.436l-1.506-2.862s.602 8.888.602 9.34c0 .452-1.205 6.93-1.205 6.93s1.055 17.475 1.808 22.898c.755 5.423 5.725 14.16 5.725 14.16s-4.97 1.055-7.23.453c-2.26-.602-.603 2.863-.603 2.863s8.285 3.465 7.683 3.766c-.603.3-9.19-1.056-9.942-1.056-.754 0 6.93 3.164 9.038 3.767 2.11.604 1.055 1.658.453 1.658-.603 0-10.08.625-10.08.625-.385.692-.462 2.535-.462 2.535l2.044-.214 11.852 1.346 2.22-18.905zM34.876 229.036s2.26-6.628 2.108-9.64c-.15-3.014-.3-8.89 0-11.902.302-3.013 1.808-14.462 1.808-14.915 0-.452 1.055-8.738 1.055-12.052s-.3-8.888 0-11.45c.3-2.56 1.356-15.667 1.507-16.27.15-.602 5.574-20.336 5.574-20.336l-5.725 17.022s-1.96 17.928-1.96 19.434c0 1.506-.752 17.626-.752 17.626l-2.86 21.843-.754 20.64zM94.762 160.83c.187.745-1.793 16.387-13.827 23.045-12.035 6.658-22.79 11.01-21.765 9.986 1.024-1.023 17.924-9.473 24.07-16.643 6.145-7.17 11.266-17.41 11.522-16.387M33.82 215.114c-1.536-.256-11.778.512-11.522-.256.256-.768 11.266-1.792 11.266-1.792l.257 2.048zM44.32 210.76c.768-.255 20.228-3.84 23.044-3.584 2.816.256 22.02-2.56 22.02-2.56s-5.632 3.328-10.498 3.84c-4.865.513-34.567 3.33-34.567 3.33v-1.025zM46.88 229.197c3.328-.256 24.324-3.585 27.654-4.353 3.328-.768 21.252-5.377 19.715-5.377-1.537 0-15.62 2.304-19.204 2.816-3.586.513-28.167 6.914-28.167 6.914"/></g><path d="M119.54 126.446c2.71 17.324 1.506 36.306 1.506 36.306l1.657 20.036 2.294 1.04c-.316-.8-.567-1.398-.567-1.398s-.768-9.603-.154-25.12c.615-15.52-5.608-51.55-9.987-53.623-.086-.04-.173-.08-.262-.123 0 0 2.8 5.557 5.51 22.882" fill="#E2897D"/><g transform="translate(123 186)"><mask id="f" fill="#fff"><use xlink:href="#e"/></mask><path d="M.305 5.676L.123 10.18l1.153-.152s.844-1.383.767-2.458c-.076-1.076-.153-1.69-.153-1.69s1.46-3.227 1.383-4.226c-.017-.22-.116-.597-.26-1.05L.305 5.675z" fill="#E2897D" mask="url(#f)"/></g><g fill="#A23324"><path d="M35.897 231.97l-.466.043-.062.318h-.38l.147-1.143.403-.042.02.445.382.063-.043.318zm.995.043c-.127-1.25-.72-1.842-1.546-1.715-.825.127-1.778.847-1.46 1.906.317 1.06.952 1.207 1.376 1.184.423-.02 1.758-.125 1.63-1.375zM38.504 211.783l-.357-.08.04.437-.2.358-.198-.238.118-.358.12-.596.555.12-.08.357zm.596-1.072c-.2-.198-.862-.62-1.787.04-.833.596-.754 1.907-.2 2.462.557.556 1.67.397 2.264-.238.925-.986-.08-2.065-.277-2.263zM40.45 191.297c-.12.04-.318.2-.318.2l-.2.515-.118-.278.358-.635.04-.478.396.238s-.04.397-.16.437m.358-1.11c-.516-.36-1.35-.16-1.945.515s-.078 2.223.993 2.382c1.073.16 1.55-.953 1.55-.953.276-.833.193-1.397-.597-1.944M41.838 171.963l-.08.437-.198-.358.476-.556-.198.477zm-.477-1.548c-.793.317-1.23 1.35-1.03 2.064.197.713.792 1.044 1.31 1.07.754.04 1.746-.634 1.627-1.706-.143-1.285-1.112-1.747-1.906-1.43h.002zM43.267 150.088l-.317-.12v-.872l.516-.16-.2 1.152zm-.868-2.022c-.806.487-.973 1.803-.573 2.35.37.506.845.823 1.6.625.483-.126 1.31-.475 1.3-1.534-.01-1.398-1.523-1.927-2.328-1.44zM48.945 130.754l-.357.08-.397.357-.237-.317.475-.278.557-.16-.04.32zm.61-.922s-.845-.805-1.756-.402c-.912.402-.32 1.758-.32 1.758l.32.38s.634.848 1.65.276c1.017-.572.106-2.012.106-2.012z"/></g><path d="M91.872 12.644c-.834 1.025-.4 2.697-1.782 1.622-1.383-1.076-3.38-1.46-3.84 0-.462 1.46-2.997-.308-1.845-.768 1.153-.46 1.767-3.073-.538-3.38-2.304-.308-3.84-.538-2.304-.846 1.537-.307 3.456-.768 1.843-1.767-1.612-.998-1.843-2.074-2.995-1.152-1.15.922.232.077-.845-1.383-1.075-1.46-2.458-.537-3.226-1.536-.77-1-1.076-2.843-2.46-1.383-1.382 1.46-3.533 1.307-4.61.385-1.074-.922-2.687-1.613-3.533-1.152-.844.46-2.996 1.536-4.455.077C59.822-.1 59.438-.253 57.825.284c-1.613.538-3.61-.384-4.686.922-1.077 1.306-.462 2.15-2.767 1.844-2.305-.307-4.148 0-4.687 1.075-.537 1.076-4.455 2.228-4.762 3.918-.307 1.69-1.69 1.306-3.227.768-1.536-.536-4.302.078-4.916 1.077-.614 1-2.534 1.306-3.994.538-1.46-.768-2.305.154-3.457.154-1.153 0-1.153-1.538-3.228-2.076-2.074-.538-2.27.13-4.42 1.667-2.152 1.537-3.57-.82-5.106.178-1.536 1-1.69 1.844-3.533 1.844-1.844 0-4.764 1.23-3.688 2.842 1.076 1.613 3.38 3.073 2.766 2.305-.614-.77-.614-3.074 1.46-3.228 2.074-.154 2.697-.362 3.234-1.207.538-.845 3.72.656 5.85-.984 1.77-1.358 3.285-.19 3.438.886.154 1.076-.153 1.998-2.612 1.998-2.458 0-4.224-1-5.3.23-1.076 1.23-.845 1.998-2.612 2.612-1.768.615-4.533.308-3.765 1.613.77 1.305 2.075 2.15 1.844 3.38-.23 1.23-.307 1.23-1.92 1.46-1.614.23-2.212-.654-3.227 1.69-1.005 2.32-2.286 5.366-1.152 5.53 1.326.193-.257-1.336 1.382-2.688 1.56-1.286 2.843-4.84 2.305-2.305-.537 2.535-1.767 4.84.307 4.15 2.075-.693 4.994-1.077 3.304-.155-1.69.922-2.305.46-3.38 2.92-1.076 2.457-2.92 3.456-1.383 3.61 1.537.153 5.608-1.92 3.764-.154-1.844 1.767-4.07 3.918-2.15 3.38 1.92-.538 3.225-.998 2.534.154-.69 1.152-1.766 2.305-.536 2.15 1.228-.153 2.074-2.765 2.38-1.766.308 1-1.69 2.92-.92 3.84.767.923 3.072-.537 2.534 1.614-.537 2.15-1.997 3.15-.076 3.534 1.92.384 2.996-.077 2.61.922-.383 1-.306 1.767 1 1.536 1.306-.23 2.92-.845 2.152.77-.77 1.612-1.768 2.995.153 3.148 1.92.154 2.92.768 2.996 1.383.077.615 1.844 1.844 2.766 1.69.92-.153 1.46.384 1.15 1.306-.307.92-.768 2.534.54 2.15 1.305-.384 3.226-.154 2.073.615-1.152.768-1.844 2.842-1.076 2.612.77-.23 1.69-1.614 2.305-1.23.615.385 1 .23 1.92 1.153.922.922 2.228.922 2.46 0 .23-.922 1.612-.308 1.69 0 0 0-2.388-6.542-3.29-8.798-.902-2.256-.542-5.775-.45-7.4.09-1.623-.724-2.435-1.355-3.518-.632-1.083.18-1.354.54-2.256.363-.902.09-1.083-.36-2.166-.45-1.083.09-2.617-.63-3.61-.724-.992-.452-1.533 0-2.616.45-1.083 1.442-3.34 1.894-4.602.452-1.263 1.174-2.437 2.437-3.79 1.264-1.354 1.173-1.624 1.444-2.617.272-.993 4.784-1.444 5.686-.54.902.9 3.248 1.623 4.872 1.984 1.625.362.12 2.538-.765 2.173-1.502-.618-.296 1.344 1.147.44 1.444-.9 1.694-.988 1.784-.266.09.722-1.443 1.444-2.075 2.978-.633 1.534.18 1.895-.994 1.985-1.173.09-1.714-.902-3.7.09-1.985.993-1.985 1.535-.27 1.624 1.714.09 1.263 1.264.54 2.347-.72 1.084-1.623.632-1.352 1.715.27 1.083 1.584 1.084 1.624 2.256.045 1.295-1.59 1.9.722.723 1.26-.64.895-1.262-.45-1.985-1.193-.64-.362-.812 1.983-.452 2.347.362 1.715-.812 2.798-1.172 1.084-.36 1.715-.09 3.16-.993 1.443-.9.45-2.616-.542-4.51-.993-1.896 1.895-1.806 2.978-2.89 1.083-1.08 1.714-.36 2.888.092 1.173.45-.272 1.714-1.445 2.346-1.173.63.36 2.075 1.172 3.34.813 1.262.903 2.706.272 3.428-.632.722.36 2.797.72 3.43.362.63 1.666 2.52 3.52 2.697.636.06-.804 1.935.902.64 1.66-1.258-1.316-1.327-2.58-2.23-1.262-.902.324-1.56 1.137-2.372.812-.81 1.264-.54.902-1.713-.36-1.173 1.354-.27 2.437.812 1.083 1.082 1.985.81 2.888.99.902.182.992 1.175 1.262 2.167.272.993 2.256 1.083 2.437 1.895.18.812.992 1.985 1.803 1.534.813-.45 1.264-.54 1.535-.36.27.18.72.09 1.534-.542.812-.632 1.083-.45 2.166-.18 1.082.27 1.443-.362 2.526 1.353 1.083 1.714 0 5.414-.632 6.497-.63 1.083-.72 2.978-1.443 4.782-.724 1.805-4.152 1.264-4.152 1.264l.262 6.077s1.23-1.306 1.844-.922c.614.384 1.613 1.537 2.535 1.152.92-.384.307-1.306 1.613-1.613 1.305-.307 2.535 0 2.535-1.69s.383-2.766 1.305-3.073c.922-.306.308-1.766 1-1.766.69 0 2.688-.69 2.304-1.767-.385-1.075-1.152-2.612.076-2.535 1.23.077 3.304-.922 3.15-1.767-.154-.845-.537-1.613.23-1.23.77.385 1.537-.23.923-1.228-.615-1-2.996-3.457-1.613-4.15 1.382-.69 1.997-.997 1.536-1.996-.462-.998.537-1.92 1.304-2.38.77-.46.23-1.92 1.768-1.383 1.536.538 4.11.292 2.842-.23-1.123-.463-2.305-1.46-1.613-2.843.692-1.383.308-2.228-.69-2.46-1-.23-1.845-.843-1.076-1.69.77-.844 3.765-2.38 3.84-3.61.078-1.228-1.382-.998-1.305-2.227.076-1.23 1.124-.743 1.074-1.767-.07-1.46 1.427-2.06 2.453-.35.904 1.505 1.29-1.164-.244-2.396-1.555-1.25-2.21-.173-2.746-1.556-.538-1.383-2.765-2.535-3.534-2.304-.77.23-.265-2.01-.23-2.766.077-1.69 1.29-.775 1.513-1.278.226-.502-1.33-2.793-2.574-1.266" fill="#B63A29"/><path d="M19.183 52.83c-.77 1.614-1.768 2.997.153 3.15 1.92.155 2.92.77 2.996 1.384.078.614 1.844 1.843 2.766 1.69.922-.154 1.46.384 1.152 1.306-.307.922-.768 2.535.538 2.15 1.306-.384 3.227-.153 2.075.615-1.153.77-1.844 2.843-1.076 2.612.768-.23 1.69-1.613 2.304-1.23.616.385 1 .232 1.922 1.154.922.922 2.228.922 2.458 0 .23-.92 1.613-.307 1.69 0 0 0-2.386-6.54-3.29-8.797-.9-2.256-.54-5.775-.45-7.4.09-1.624-.722-2.436-1.353-3.52-.632-1.082.18-1.352.54-2.255.362-.902.09-1.083-.36-2.165-.452-1.083.09-2.617-.63-3.61-.724-.992-.453-1.534 0-2.617.45-1.082 1.442-3.34 1.893-4.602.45-1.263 1.173-2.436 2.437-3.79 1.263-1.353 1.173-1.624 1.443-2.616 0 0-1.088 1.12-2.397 1.99-1.31.874-3.318 2.27-3.84 2.533-.525.263-1.05 1.048-.7 1.747.35.698.786 2.62.175 3.23-.61.61-1.135 1.397-.873 2.182.262.785.873 1.92.262 2.27-.61.348-.35 1.047-.698 2.007-.35.96-2.184 2.357-2.184 2.357s-2.357-.61-2.182.786c.174 1.396-.437 2.53-1.31 2.706-.873.174-1.833 1.92-1.833 2.618 0 .7-.174 1.136-.96 1.92-.785.787-.667 2.197-.667 2.197m57.904-7.066c1.082.27 1.444-.36 2.527 1.353 1.083 1.715 0 5.415-.632 6.497-.632 1.083-.722 2.978-1.444 4.783-.722 1.805-4.15 1.263-4.15 1.263l.262 6.077s1.23-1.306 1.844-.922c.614.385 1.613 1.537 2.535 1.153.92-.385.306-1.306 1.612-1.614 1.306-.307 2.535 0 2.535-1.69s.384-2.765 1.306-3.072c.922-.308.307-1.767 1-1.767.69 0 2.687-.692 2.304-1.767-.385-1.076-1.153-2.612.076-2.536 1.23.078 3.303-.92 3.15-1.766-.154-.845-.538-1.613.23-1.23.768.385 1.537-.23.922-1.23-.615-.997-2.996-3.456-1.613-4.147 1.383-.693 1.997-1 1.536-2-.044-.094-.075-.19-.093-.283 0 0-1.045-.874-1.918-.787-.873.087-2.008-.175-2.183-1.047-.175-.873-1.658-3.667-2.968-2.62-1.31 1.048-1.048 2.88-1.833 3.056-.786.173-3.23-.088-2.97.96.264 1.047.176 2.53-.172 2.53 0 0-1.66-.174-1.833-.523-.174-.35-2.095-1.135-2.706-1.047-.61.087-1.22-.612-1.483-1.66-.263-1.046-.7-3.927-1.834-3.84-1.135.087-2.968-1.66-3.142-2.095-.174-.437-1.658.786-.523 1.833 1.135 1.048 3.492.61 3.23 2.532-.262 1.92-1.31 2.27.35 3.49 1.657 1.223 2.38 2.836 2.38 2.836.27.18.722.09 1.534-.542.814-.632 1.084-.45 2.167-.18" fill="#A23324"/></g></svg>